M48
; DRILL file {KiCad (6.0.10)} date Tue Jan 10 00:37:09 2023
; FORMAT={-:-/ absolute / metric / decimal}
; #@! TF.CreationDate,2023-01-10T00:37:09+03:00
; #@! TF.GenerationSoftware,Kicad,Pcbnew,(6.0.10)
; #@! TF.FileFunction,Plated,1,2,PTH
FMAT,2
METRIC
; #@! TA.AperFunction,Plated,PTH,ComponentDrill
T1C0.800
; #@! TA.AperFunction,Plated,PTH,ComponentDrill
T2C1.000
; #@! TA.AperFunction,Plated,PTH,ComponentDrill
T3C1.100
; #@! TA.AperFunction,Plated,PTH,ComponentDrill
T4C1.390
; #@! TA.AperFunction,Plated,PTH,ComponentDrill
T5C1.500
; #@! TA.AperFunction,Plated,PTH,ComponentDrill
T6C2.000
%
G90
G05
T1
X139.964Y-115.57
X139.964Y-123.19
X142.504Y-115.57
X142.504Y-123.19
X145.044Y-115.57
X145.044Y-123.19
X147.584Y-115.57
X147.584Y-123.19
T2
X73.152Y-113.03
X73.152Y-128.27
X75.692Y-113.03
X75.692Y-128.27
X78.232Y-113.03
X78.232Y-128.27
X80.772Y-113.03
X80.772Y-128.27
X83.312Y-113.03
X83.312Y-128.27
X85.852Y-113.03
X85.852Y-128.27
X88.392Y-113.03
X88.392Y-128.27
X90.932Y-113.03
X90.932Y-128.27
X93.472Y-113.03
X93.472Y-128.27
X96.012Y-113.03
X96.012Y-128.27
X98.552Y-113.03
X98.552Y-128.27
X101.092Y-113.03
X101.092Y-128.27
X103.632Y-113.03
X103.632Y-128.27
X106.172Y-113.03
X106.172Y-128.27
X108.712Y-113.03
X108.712Y-128.27
T3
X122.428Y-111.699
X124.968Y-111.699
X127.508Y-111.699
X148.986Y-58.1
X152.578Y-54.508
T4
X59.666Y-51.05
X59.666Y-58.55
X59.666Y-66.05
X59.666Y-73.55
X59.666Y-81.05
T5
X145.68Y-83.904
X151.13Y-83.904
X156.58Y-83.904
T6
X84.582Y-53.746
X84.582Y-63.746
X122.174Y-54.62
X122.174Y-64.62
T0
M30
