%TF.GenerationSoftware,KiCad,Pcbnew,(6.0.10)*%
%TF.CreationDate,2023-01-10T00:35:44+03:00*%
%TF.ProjectId,ee463_project,65653436-335f-4707-926f-6a6563742e6b,rev?*%
%TF.SameCoordinates,Original*%
%TF.FileFunction,Copper,L1,Top*%
%TF.FilePolarity,Positive*%
%FSLAX46Y46*%
G04 Gerber Fmt 4.6, Leading zero omitted, Abs format (unit mm)*
G04 Created by KiCad (PCBNEW (6.0.10)) date 2023-01-10 00:35:44*
%MOMM*%
%LPD*%
G01*
G04 APERTURE LIST*
G04 Aperture macros list*
%AMRoundRect*
0 Rectangle with rounded corners*
0 $1 Rounding radius*
0 $2 $3 $4 $5 $6 $7 $8 $9 X,Y pos of 4 corners*
0 Add a 4 corners polygon primitive as box body*
4,1,4,$2,$3,$4,$5,$6,$7,$8,$9,$2,$3,0*
0 Add four circle primitives for the rounded corners*
1,1,$1+$1,$2,$3*
1,1,$1+$1,$4,$5*
1,1,$1+$1,$6,$7*
1,1,$1+$1,$8,$9*
0 Add four rect primitives between the rounded corners*
20,1,$1+$1,$2,$3,$4,$5,0*
20,1,$1+$1,$4,$5,$6,$7,0*
20,1,$1+$1,$6,$7,$8,$9,0*
20,1,$1+$1,$8,$9,$2,$3,0*%
%AMHorizOval*
0 Thick line with rounded ends*
0 $1 width*
0 $2 $3 position (X,Y) of the first rounded end (center of the circle)*
0 $4 $5 position (X,Y) of the second rounded end (center of the circle)*
0 Add line between two ends*
20,1,$1,$2,$3,$4,$5,0*
0 Add two circle primitives to create the rounded ends*
1,1,$1,$2,$3*
1,1,$1,$4,$5*%
%AMRotRect*
0 Rectangle, with rotation*
0 The origin of the aperture is its center*
0 $1 length*
0 $2 width*
0 $3 Rotation angle, in degrees counterclockwise*
0 Add horizontal line*
21,1,$1,$2,0,0,$3*%
G04 Aperture macros list end*
%TA.AperFunction,ComponentPad*%
%ADD10O,1.905000X2.000000*%
%TD*%
%TA.AperFunction,ComponentPad*%
%ADD11R,1.905000X2.000000*%
%TD*%
%TA.AperFunction,ComponentPad*%
%ADD12C,4.000000*%
%TD*%
%TA.AperFunction,ComponentPad*%
%ADD13R,4.000000X4.000000*%
%TD*%
%TA.AperFunction,SMDPad,CuDef*%
%ADD14RoundRect,0.250000X0.625000X-0.312500X0.625000X0.312500X-0.625000X0.312500X-0.625000X-0.312500X0*%
%TD*%
%TA.AperFunction,ComponentPad*%
%ADD15R,2.500000X4.500000*%
%TD*%
%TA.AperFunction,ComponentPad*%
%ADD16O,2.500000X4.500000*%
%TD*%
%TA.AperFunction,SMDPad,CuDef*%
%ADD17RoundRect,0.250000X0.325000X0.650000X-0.325000X0.650000X-0.325000X-0.650000X0.325000X-0.650000X0*%
%TD*%
%TA.AperFunction,SMDPad,CuDef*%
%ADD18RoundRect,0.250000X0.650000X-0.325000X0.650000X0.325000X-0.650000X0.325000X-0.650000X-0.325000X0*%
%TD*%
%TA.AperFunction,ComponentPad*%
%ADD19R,1.600000X1.600000*%
%TD*%
%TA.AperFunction,ComponentPad*%
%ADD20O,1.600000X1.600000*%
%TD*%
%TA.AperFunction,ComponentPad*%
%ADD21R,3.000000X3.000000*%
%TD*%
%TA.AperFunction,ComponentPad*%
%ADD22C,3.000000*%
%TD*%
%TA.AperFunction,SMDPad,CuDef*%
%ADD23RoundRect,0.250000X-0.312500X-0.625000X0.312500X-0.625000X0.312500X0.625000X-0.312500X0.625000X0*%
%TD*%
%TA.AperFunction,ComponentPad*%
%ADD24RotRect,2.000000X2.000000X225.000000*%
%TD*%
%TA.AperFunction,ComponentPad*%
%ADD25HorizOval,2.000000X0.000000X0.000000X0.000000X0.000000X0*%
%TD*%
%TA.AperFunction,SMDPad,CuDef*%
%ADD26RoundRect,0.250000X0.312500X0.625000X-0.312500X0.625000X-0.312500X-0.625000X0.312500X-0.625000X0*%
%TD*%
%TA.AperFunction,Conductor*%
%ADD27C,0.750000*%
%TD*%
%TA.AperFunction,Conductor*%
%ADD28C,1.000000*%
%TD*%
G04 APERTURE END LIST*
D10*
%TO.P,U2,3,OUT*%
%TO.N,V_in_arduino*%
X122428000Y-111699000D03*
%TO.P,U2,2,GND*%
%TO.N,GND1*%
X124968000Y-111699000D03*
D11*
%TO.P,U2,1,IN*%
%TO.N,Vcc*%
X127508000Y-111699000D03*
%TD*%
D12*
%TO.P,C5,2*%
%TO.N,GND1*%
X122174000Y-64620000D03*
D13*
%TO.P,C5,1*%
%TO.N,Vout*%
X122174000Y-54620000D03*
%TD*%
%TO.P,C4,1*%
%TO.N,Vout*%
X84582000Y-53745501D03*
D12*
%TO.P,C4,2*%
%TO.N,GND1*%
X84582000Y-63745501D03*
%TD*%
D14*
%TO.P,R2,1*%
%TO.N,Net-(R2-Pad1)*%
X157226000Y-100024500D03*
%TO.P,R2,2*%
%TO.N,Gate*%
X157226000Y-97099500D03*
%TD*%
D15*
%TO.P,Q1,1,G*%
%TO.N,Gate*%
X156580000Y-83904000D03*
D16*
%TO.P,Q1,2,D*%
%TO.N,Drain*%
X151130000Y-83904000D03*
%TO.P,Q1,3,S*%
%TO.N,GND1*%
X145680000Y-83904000D03*
%TD*%
D17*
%TO.P,C3,1*%
%TO.N,Vcc*%
X140159000Y-102880000D03*
%TO.P,C3,2*%
%TO.N,GND1*%
X137209000Y-102880000D03*
%TD*%
D18*
%TO.P,C6,1*%
%TO.N,Vcc*%
X131572000Y-106641000D03*
%TO.P,C6,2*%
%TO.N,GND1*%
X131572000Y-103691000D03*
%TD*%
D19*
%TO.P,A1,1,D1/TX*%
%TO.N,unconnected-(A1-Pad1)*%
X108712000Y-128270000D03*
D20*
%TO.P,A1,2,D0/RX*%
%TO.N,unconnected-(A1-Pad2)*%
X106172000Y-128270000D03*
%TO.P,A1,3,~{RESET}*%
%TO.N,unconnected-(A1-Pad3)*%
X103632000Y-128270000D03*
%TO.P,A1,4,GND*%
%TO.N,GND1*%
X101092000Y-128270000D03*
%TO.P,A1,5,D2*%
%TO.N,unconnected-(A1-Pad5)*%
X98552000Y-128270000D03*
%TO.P,A1,6,D3*%
%TO.N,unconnected-(A1-Pad6)*%
X96012000Y-128270000D03*
%TO.P,A1,7,D4*%
%TO.N,unconnected-(A1-Pad7)*%
X93472000Y-128270000D03*
%TO.P,A1,8,D5*%
%TO.N,PWM*%
X90932000Y-128270000D03*
%TO.P,A1,9,D6*%
%TO.N,unconnected-(A1-Pad9)*%
X88392000Y-128270000D03*
%TO.P,A1,10,D7*%
%TO.N,unconnected-(A1-Pad10)*%
X85852000Y-128270000D03*
%TO.P,A1,11,D8*%
%TO.N,unconnected-(A1-Pad11)*%
X83312000Y-128270000D03*
%TO.P,A1,12,D9*%
%TO.N,unconnected-(A1-Pad12)*%
X80772000Y-128270000D03*
%TO.P,A1,13,D10*%
%TO.N,unconnected-(A1-Pad13)*%
X78232000Y-128270000D03*
%TO.P,A1,14,D11*%
%TO.N,unconnected-(A1-Pad14)*%
X75692000Y-128270000D03*
%TO.P,A1,15,D12*%
%TO.N,unconnected-(A1-Pad15)*%
X73152000Y-128270000D03*
%TO.P,A1,16,D13*%
%TO.N,unconnected-(A1-Pad16)*%
X73152000Y-113030000D03*
%TO.P,A1,17,3V3*%
%TO.N,unconnected-(A1-Pad17)*%
X75692000Y-113030000D03*
%TO.P,A1,18,AREF*%
%TO.N,unconnected-(A1-Pad18)*%
X78232000Y-113030000D03*
%TO.P,A1,19,A0*%
%TO.N,OUT*%
X80772000Y-113030000D03*
%TO.P,A1,20,A1*%
%TO.N,unconnected-(A1-Pad20)*%
X83312000Y-113030000D03*
%TO.P,A1,21,A2*%
%TO.N,unconnected-(A1-Pad21)*%
X85852000Y-113030000D03*
%TO.P,A1,22,A3*%
%TO.N,unconnected-(A1-Pad22)*%
X88392000Y-113030000D03*
%TO.P,A1,23,A4*%
%TO.N,unconnected-(A1-Pad23)*%
X90932000Y-113030000D03*
%TO.P,A1,24,A5*%
%TO.N,unconnected-(A1-Pad24)*%
X93472000Y-113030000D03*
%TO.P,A1,25,A6*%
%TO.N,unconnected-(A1-Pad25)*%
X96012000Y-113030000D03*
%TO.P,A1,26,A7*%
%TO.N,unconnected-(A1-Pad26)*%
X98552000Y-113030000D03*
%TO.P,A1,27,+5V*%
%TO.N,+5V*%
X101092000Y-113030000D03*
%TO.P,A1,28,~{RESET}*%
%TO.N,unconnected-(A1-Pad28)*%
X103632000Y-113030000D03*
%TO.P,A1,29,GND*%
%TO.N,GND1*%
X106172000Y-113030000D03*
%TO.P,A1,30,VIN*%
%TO.N,V_in_arduino*%
X108712000Y-113030000D03*
%TD*%
D21*
%TO.P,D2,1,+*%
%TO.N,Vout*%
X59666000Y-51050000D03*
D22*
%TO.P,D2,2*%
%TO.N,PhaseA*%
X59666000Y-58550000D03*
%TO.P,D2,3*%
%TO.N,PhaseB*%
X59666000Y-66050000D03*
%TO.P,D2,4*%
%TO.N,PhaseC*%
X59666000Y-73550000D03*
%TO.P,D2,5,-*%
%TO.N,GND1*%
X59666000Y-81050000D03*
%TD*%
D23*
%TO.P,R1,2*%
%TO.N,Net-(R1-Pad2)*%
X134050500Y-132344000D03*
%TO.P,R1,1*%
%TO.N,PWM*%
X131125500Y-132344000D03*
%TD*%
D17*
%TO.P,C2,1*%
%TO.N,Vcc*%
X140275000Y-95514000D03*
%TO.P,C2,2*%
%TO.N,GND1*%
X137325000Y-95514000D03*
%TD*%
%TO.P,C1,1*%
%TO.N,Vcc*%
X140275000Y-99324000D03*
%TO.P,C1,2*%
%TO.N,GND1*%
X137325000Y-99324000D03*
%TD*%
D24*
%TO.P,D1,1,K*%
%TO.N,Vout*%
X152578267Y-54508165D03*
D25*
%TO.P,D1,2,A*%
%TO.N,Drain*%
X148986165Y-58100267D03*
%TD*%
D20*
%TO.P,U1,8,VCC*%
%TO.N,Vcc*%
X139964000Y-115570000D03*
%TO.P,U1,7,VO*%
%TO.N,Net-(R2-Pad1)*%
X142504000Y-115570000D03*
%TO.P,U1,6,VO*%
X145044000Y-115570000D03*
%TO.P,U1,5,VEE*%
%TO.N,GND1*%
X147584000Y-115570000D03*
%TO.P,U1,4,NC*%
%TO.N,unconnected-(U1-Pad4)*%
X147584000Y-123190000D03*
%TO.P,U1,3,C*%
%TO.N,GND1*%
X145044000Y-123190000D03*
%TO.P,U1,2,A*%
%TO.N,Net-(R1-Pad2)*%
X142504000Y-123190000D03*
D19*
%TO.P,U1,1,NC*%
%TO.N,unconnected-(U1-Pad1)*%
X139964000Y-123190000D03*
%TD*%
D18*
%TO.P,C7,1*%
%TO.N,V_in_arduino*%
X117729000Y-107530000D03*
%TO.P,C7,2*%
%TO.N,GND1*%
X117729000Y-104580000D03*
%TD*%
D26*
%TO.P,R3,1*%
%TO.N,Gate*%
X156402500Y-92720000D03*
%TO.P,R3,2*%
%TO.N,GND1*%
X153477500Y-92720000D03*
%TD*%
D27*
%TO.N,Net-(R2-Pad1)*%
X157226000Y-118247000D02*
X157226000Y-100024500D01*
X156337000Y-119136000D02*
X157226000Y-118247000D01*
X145415000Y-119136000D02*
X156337000Y-119136000D01*
X143754000Y-117475000D02*
X145415000Y-119136000D01*
X143754000Y-115570000D02*
X143754000Y-117475000D01*
X143754000Y-115570000D02*
X142504000Y-115570000D01*
X145044000Y-115570000D02*
X143754000Y-115570000D01*
D28*
%TO.N,Net-(R1-Pad2)*%
X142504000Y-127127000D02*
X142504000Y-123190000D01*
X137414000Y-132217000D02*
X142504000Y-127127000D01*
X134177500Y-132217000D02*
X137414000Y-132217000D01*
X134050500Y-132344000D02*
X134177500Y-132217000D01*
D27*
%TO.N,+5V*%
X101092000Y-116469000D02*
X101092000Y-113030000D01*
X65913000Y-118882000D02*
X98679000Y-118882000D01*
X98679000Y-118882000D02*
X101092000Y-116469000D01*
X64516000Y-120279000D02*
X65913000Y-118882000D01*
X64516000Y-138821000D02*
X64516000Y-120279000D01*
%TO.N,OUT*%
X76835000Y-116469000D02*
X62992000Y-116469000D01*
X79883000Y-116469000D02*
X76835000Y-116469000D01*
X80772000Y-115580000D02*
X80518000Y-115834000D01*
X61468000Y-117993000D02*
X61468000Y-138821000D01*
X80518000Y-115834000D02*
X79883000Y-116469000D01*
X80772000Y-113030000D02*
X80772000Y-115580000D01*
X62992000Y-116469000D02*
X61468000Y-117993000D01*
%TO.N,PWM*%
X90932000Y-131074000D02*
X91059000Y-131201000D01*
X90932000Y-128270000D02*
X90932000Y-131074000D01*
D28*
X131318000Y-132344000D02*
X92202000Y-132344000D01*
X92202000Y-132344000D02*
X91059000Y-131201000D01*
%TD*%
%TA.AperFunction,Conductor*%
%TO.N,Vcc*%
G36*
X140970000Y-114435592D02*
G01*
X140949998Y-114503713D01*
X140896342Y-114550206D01*
X140826068Y-114560310D01*
X140771729Y-114538805D01*
X140625007Y-114436069D01*
X140615511Y-114430586D01*
X140418053Y-114338510D01*
X140407761Y-114334764D01*
X140235497Y-114288606D01*
X140221401Y-114288942D01*
X140218000Y-114296884D01*
X140218000Y-115698000D01*
X140197998Y-115766121D01*
X140144342Y-115812614D01*
X140092000Y-115824000D01*
X138696033Y-115824000D01*
X138682502Y-115827973D01*
X138681273Y-115836522D01*
X138728764Y-116013761D01*
X138732510Y-116024053D01*
X138824586Y-116221511D01*
X138830069Y-116231007D01*
X138946809Y-116397729D01*
X138969497Y-116465003D01*
X138952212Y-116533864D01*
X138900442Y-116582448D01*
X138843596Y-116596000D01*
X138811000Y-116596000D01*
X138811000Y-116603794D01*
X138809510Y-116605513D01*
X138749784Y-116643896D01*
X138714286Y-116649000D01*
X137794000Y-116649000D01*
X137725879Y-116628998D01*
X137679386Y-116575342D01*
X137668000Y-116523000D01*
X137668000Y-115298503D01*
X138682606Y-115298503D01*
X138682942Y-115312599D01*
X138690884Y-115316000D01*
X139691885Y-115316000D01*
X139707124Y-115311525D01*
X139708329Y-115310135D01*
X139710000Y-115302452D01*
X139710000Y-114302033D01*
X139706027Y-114288502D01*
X139697478Y-114287273D01*
X139520239Y-114334764D01*
X139509947Y-114338510D01*
X139312489Y-114430586D01*
X139302993Y-114436069D01*
X139124533Y-114561028D01*
X139116125Y-114568084D01*
X138962084Y-114722125D01*
X138955028Y-114730533D01*
X138830069Y-114908993D01*
X138824586Y-114918489D01*
X138732510Y-115115947D01*
X138728764Y-115126239D01*
X138682606Y-115298503D01*
X137668000Y-115298503D01*
X137668000Y-106997000D01*
X140970000Y-106997000D01*
X140970000Y-114435592D01*
G37*
%TD.AperFunction*%
%TD*%
%TA.AperFunction,Conductor*%
%TO.N,PhaseA*%
G36*
X63950121Y-55910002D02*
G01*
X63996614Y-55963658D01*
X64008000Y-56016000D01*
X64008000Y-60844000D01*
X63987998Y-60912121D01*
X63934342Y-60958614D01*
X63882000Y-60970000D01*
X48894000Y-60970000D01*
X48825879Y-60949998D01*
X48779386Y-60896342D01*
X48768000Y-60844000D01*
X48768000Y-60139654D01*
X58441618Y-60139654D01*
X58448673Y-60149627D01*
X58479679Y-60175551D01*
X58486598Y-60180579D01*
X58711272Y-60321515D01*
X58718807Y-60325556D01*
X58960520Y-60434694D01*
X58968551Y-60437680D01*
X59222832Y-60513002D01*
X59231184Y-60514869D01*
X59493340Y-60554984D01*
X59501874Y-60555700D01*
X59767045Y-60559867D01*
X59775596Y-60559418D01*
X60038883Y-60527557D01*
X60047284Y-60525955D01*
X60303824Y-60458653D01*
X60311926Y-60455926D01*
X60556949Y-60354434D01*
X60564617Y-60350628D01*
X60793598Y-60216822D01*
X60800679Y-60212009D01*
X60880655Y-60149301D01*
X60889125Y-60137442D01*
X60882608Y-60125818D01*
X59678812Y-58922022D01*
X59664868Y-58914408D01*
X59663035Y-58914539D01*
X59656420Y-58918790D01*
X58448910Y-60126300D01*
X58441618Y-60139654D01*
X48768000Y-60139654D01*
X48768000Y-58533204D01*
X57653665Y-58533204D01*
X57668932Y-58797969D01*
X57670005Y-58806470D01*
X57721065Y-59066722D01*
X57723276Y-59074974D01*
X57809184Y-59325894D01*
X57812499Y-59333779D01*
X57931664Y-59570713D01*
X57936020Y-59578079D01*
X58065347Y-59766250D01*
X58075601Y-59774594D01*
X58089342Y-59767448D01*
X59293978Y-58562812D01*
X59300356Y-58551132D01*
X60030408Y-58551132D01*
X60030539Y-58552965D01*
X60034790Y-58559580D01*
X61241730Y-59766520D01*
X61253939Y-59773187D01*
X61265439Y-59764497D01*
X61362831Y-59631913D01*
X61367418Y-59624685D01*
X61493962Y-59391621D01*
X61497530Y-59383827D01*
X61591271Y-59135750D01*
X61593748Y-59127544D01*
X61652954Y-58869038D01*
X61654294Y-58860577D01*
X61678031Y-58594616D01*
X61678277Y-58589677D01*
X61678666Y-58552485D01*
X61678523Y-58547519D01*
X61660362Y-58281123D01*
X61659201Y-58272649D01*
X61605419Y-58012944D01*
X61603120Y-58004709D01*
X61514588Y-57754705D01*
X61511191Y-57746854D01*
X61389550Y-57511178D01*
X61385122Y-57503866D01*
X61266031Y-57334417D01*
X61255509Y-57326037D01*
X61242121Y-57333089D01*
X60038022Y-58537188D01*
X60030408Y-58551132D01*
X59300356Y-58551132D01*
X59301592Y-58548868D01*
X59301461Y-58547035D01*
X59297210Y-58540420D01*
X58089814Y-57333024D01*
X58077804Y-57326466D01*
X58066064Y-57335434D01*
X57957935Y-57485911D01*
X57953418Y-57493196D01*
X57829325Y-57727567D01*
X57825839Y-57735395D01*
X57734700Y-57984446D01*
X57732311Y-57992670D01*
X57675812Y-58251795D01*
X57674563Y-58260250D01*
X57653754Y-58524653D01*
X57653665Y-58533204D01*
X48768000Y-58533204D01*
X48768000Y-56962500D01*
X58442584Y-56962500D01*
X58448980Y-56973770D01*
X59653188Y-58177978D01*
X59667132Y-58185592D01*
X59668965Y-58185461D01*
X59675580Y-58181210D01*
X60882604Y-56974186D01*
X60889795Y-56961017D01*
X60882473Y-56950780D01*
X60835233Y-56912115D01*
X60828261Y-56907160D01*
X60602122Y-56768582D01*
X60594552Y-56764624D01*
X60351704Y-56658022D01*
X60343644Y-56655120D01*
X60088592Y-56582467D01*
X60080214Y-56580685D01*
X59817656Y-56543318D01*
X59809111Y-56542691D01*
X59543908Y-56541302D01*
X59535374Y-56541839D01*
X59272433Y-56576456D01*
X59264035Y-56578149D01*
X59008238Y-56648127D01*
X59000143Y-56650946D01*
X58756199Y-56754997D01*
X58748577Y-56758881D01*
X58521013Y-56895075D01*
X58513981Y-56899962D01*
X58451053Y-56950377D01*
X58442584Y-56962500D01*
X48768000Y-56962500D01*
X48768000Y-56016000D01*
X48788002Y-55947879D01*
X48841658Y-55901386D01*
X48894000Y-55890000D01*
X63882000Y-55890000D01*
X63950121Y-55910002D01*
G37*
%TD.AperFunction*%
%TD*%
%TA.AperFunction,Conductor*%
%TO.N,Vcc*%
G36*
X142044121Y-93936002D02*
G01*
X142090614Y-93989658D01*
X142102000Y-94042000D01*
X142102000Y-107124000D01*
X139054000Y-107124000D01*
X139054000Y-104151589D01*
X139054039Y-104148440D01*
X139054657Y-104123720D01*
X139076356Y-104056120D01*
X139131157Y-104010983D01*
X139201661Y-104002639D01*
X139269636Y-104037696D01*
X139355829Y-104123739D01*
X139367240Y-104132751D01*
X139505243Y-104217816D01*
X139518424Y-104223963D01*
X139672710Y-104275138D01*
X139686086Y-104278005D01*
X139780438Y-104287672D01*
X139786854Y-104288000D01*
X139886885Y-104288000D01*
X139902124Y-104283525D01*
X139903329Y-104282135D01*
X139905000Y-104274452D01*
X139905000Y-104269884D01*
X140413000Y-104269884D01*
X140417475Y-104285123D01*
X140418865Y-104286328D01*
X140426548Y-104287999D01*
X140531095Y-104287999D01*
X140537614Y-104287662D01*
X140633206Y-104277743D01*
X140646600Y-104274851D01*
X140800784Y-104223412D01*
X140813962Y-104217239D01*
X140951807Y-104131937D01*
X140963208Y-104122901D01*
X141077739Y-104008171D01*
X141086751Y-103996760D01*
X141171816Y-103858757D01*
X141177963Y-103845576D01*
X141229138Y-103691290D01*
X141232005Y-103677914D01*
X141241672Y-103583562D01*
X141242000Y-103577146D01*
X141242000Y-103152115D01*
X141237525Y-103136876D01*
X141236135Y-103135671D01*
X141228452Y-103134000D01*
X140431115Y-103134000D01*
X140415876Y-103138475D01*
X140414671Y-103139865D01*
X140413000Y-103147548D01*
X140413000Y-104269884D01*
X139905000Y-104269884D01*
X139905000Y-102607885D01*
X140413000Y-102607885D01*
X140417475Y-102623124D01*
X140418865Y-102624329D01*
X140426548Y-102626000D01*
X141223884Y-102626000D01*
X141239123Y-102621525D01*
X141240328Y-102620135D01*
X141241999Y-102612452D01*
X141241999Y-102182905D01*
X141241662Y-102176386D01*
X141231743Y-102080794D01*
X141228851Y-102067400D01*
X141177412Y-101913216D01*
X141171239Y-101900038D01*
X141085937Y-101762193D01*
X141076901Y-101750792D01*
X140962171Y-101636261D01*
X140950760Y-101627249D01*
X140812757Y-101542184D01*
X140799576Y-101536037D01*
X140645290Y-101484862D01*
X140631914Y-101481995D01*
X140537562Y-101472328D01*
X140531145Y-101472000D01*
X140431115Y-101472000D01*
X140415876Y-101476475D01*
X140414671Y-101477865D01*
X140413000Y-101485548D01*
X140413000Y-102607885D01*
X139905000Y-102607885D01*
X139905000Y-101490116D01*
X139900525Y-101474877D01*
X139899135Y-101473672D01*
X139891452Y-101472001D01*
X139786905Y-101472001D01*
X139780386Y-101472338D01*
X139684794Y-101482257D01*
X139671400Y-101485149D01*
X139517216Y-101536588D01*
X139504038Y-101542761D01*
X139366193Y-101628063D01*
X139354791Y-101637100D01*
X139333732Y-101658195D01*
X139271449Y-101692274D01*
X139200629Y-101687269D01*
X139143757Y-101644771D01*
X139118889Y-101578272D01*
X139118599Y-101566027D01*
X139120694Y-101482257D01*
X139143557Y-100567739D01*
X139144217Y-100541325D01*
X139165916Y-100473725D01*
X139220717Y-100428588D01*
X139291221Y-100420244D01*
X139359196Y-100455301D01*
X139471829Y-100567739D01*
X139483240Y-100576751D01*
X139621243Y-100661816D01*
X139634424Y-100667963D01*
X139788710Y-100719138D01*
X139802086Y-100722005D01*
X139896438Y-100731672D01*
X139902854Y-100732000D01*
X140002885Y-100732000D01*
X140018124Y-100727525D01*
X140019329Y-100726135D01*
X140021000Y-100718452D01*
X140021000Y-100713884D01*
X140529000Y-100713884D01*
X140533475Y-100729123D01*
X140534865Y-100730328D01*
X140542548Y-100731999D01*
X140647095Y-100731999D01*
X140653614Y-100731662D01*
X140749206Y-100721743D01*
X140762600Y-100718851D01*
X140916784Y-100667412D01*
X140929962Y-100661239D01*
X141067807Y-100575937D01*
X141079208Y-100566901D01*
X141193739Y-100452171D01*
X141202751Y-100440760D01*
X141287816Y-100302757D01*
X141293963Y-100289576D01*
X141345138Y-100135290D01*
X141348005Y-100121914D01*
X141357672Y-100027562D01*
X141358000Y-100021146D01*
X141358000Y-99596115D01*
X141353525Y-99580876D01*
X141352135Y-99579671D01*
X141344452Y-99578000D01*
X140547115Y-99578000D01*
X140531876Y-99582475D01*
X140530671Y-99583865D01*
X140529000Y-99591548D01*
X140529000Y-100713884D01*
X140021000Y-100713884D01*
X140021000Y-99051885D01*
X140529000Y-99051885D01*
X140533475Y-99067124D01*
X140534865Y-99068329D01*
X140542548Y-99070000D01*
X141339884Y-99070000D01*
X141355123Y-99065525D01*
X141356328Y-99064135D01*
X141357999Y-99056452D01*
X141357999Y-98626905D01*
X141357662Y-98620386D01*
X141347743Y-98524794D01*
X141344851Y-98511400D01*
X141293412Y-98357216D01*
X141287239Y-98344038D01*
X141201937Y-98206193D01*
X141192901Y-98194792D01*
X141078171Y-98080261D01*
X141066760Y-98071249D01*
X140928757Y-97986184D01*
X140915576Y-97980037D01*
X140761290Y-97928862D01*
X140747914Y-97925995D01*
X140653562Y-97916328D01*
X140647145Y-97916000D01*
X140547115Y-97916000D01*
X140531876Y-97920475D01*
X140530671Y-97921865D01*
X140529000Y-97929548D01*
X140529000Y-99051885D01*
X140021000Y-99051885D01*
X140021000Y-97934116D01*
X140016525Y-97918877D01*
X140015135Y-97917672D01*
X140007452Y-97916001D01*
X139902905Y-97916001D01*
X139896386Y-97916338D01*
X139800794Y-97926257D01*
X139787400Y-97929149D01*
X139633216Y-97980588D01*
X139620038Y-97986761D01*
X139482193Y-98072063D01*
X139470792Y-98081099D01*
X139421937Y-98130039D01*
X139359654Y-98164118D01*
X139288834Y-98159115D01*
X139231961Y-98116618D01*
X139207093Y-98050119D01*
X139206803Y-98037872D01*
X139209528Y-97928862D01*
X139237148Y-96824092D01*
X139258846Y-96756494D01*
X139313646Y-96711357D01*
X139384151Y-96703013D01*
X139452126Y-96738071D01*
X139471824Y-96757735D01*
X139483240Y-96766751D01*
X139621243Y-96851816D01*
X139634424Y-96857963D01*
X139788710Y-96909138D01*
X139802086Y-96912005D01*
X139896438Y-96921672D01*
X139902854Y-96922000D01*
X140002885Y-96922000D01*
X140018124Y-96917525D01*
X140019329Y-96916135D01*
X140021000Y-96908452D01*
X140021000Y-96903884D01*
X140529000Y-96903884D01*
X140533475Y-96919123D01*
X140534865Y-96920328D01*
X140542548Y-96921999D01*
X140647095Y-96921999D01*
X140653614Y-96921662D01*
X140749206Y-96911743D01*
X140762600Y-96908851D01*
X140916784Y-96857412D01*
X140929962Y-96851239D01*
X141067807Y-96765937D01*
X141079208Y-96756901D01*
X141193739Y-96642171D01*
X141202751Y-96630760D01*
X141287816Y-96492757D01*
X141293963Y-96479576D01*
X141345138Y-96325290D01*
X141348005Y-96311914D01*
X141357672Y-96217562D01*
X141358000Y-96211146D01*
X141358000Y-95786115D01*
X141353525Y-95770876D01*
X141352135Y-95769671D01*
X141344452Y-95768000D01*
X140547115Y-95768000D01*
X140531876Y-95772475D01*
X140530671Y-95773865D01*
X140529000Y-95781548D01*
X140529000Y-96903884D01*
X140021000Y-96903884D01*
X140021000Y-95386000D01*
X140041002Y-95317879D01*
X140094658Y-95271386D01*
X140147000Y-95260000D01*
X141339884Y-95260000D01*
X141355123Y-95255525D01*
X141356328Y-95254135D01*
X141357999Y-95246452D01*
X141357999Y-94816905D01*
X141357662Y-94810386D01*
X141347743Y-94714794D01*
X141344851Y-94701400D01*
X141293412Y-94547216D01*
X141287239Y-94534038D01*
X141201937Y-94396193D01*
X141192901Y-94384792D01*
X141078171Y-94270261D01*
X141066760Y-94261249D01*
X140928757Y-94176184D01*
X140915576Y-94170037D01*
X140890118Y-94161593D01*
X140831759Y-94121162D01*
X140804522Y-94055598D01*
X140817056Y-93985716D01*
X140865380Y-93933705D01*
X140929786Y-93916000D01*
X141976000Y-93916000D01*
X142044121Y-93936002D01*
G37*
%TD.AperFunction*%
%TD*%
%TA.AperFunction,Conductor*%
%TO.N,PhaseB*%
G36*
X63950121Y-63276002D02*
G01*
X63996614Y-63329658D01*
X64008000Y-63382000D01*
X64008000Y-68210000D01*
X63987998Y-68278121D01*
X63934342Y-68324614D01*
X63882000Y-68336000D01*
X48894000Y-68336000D01*
X48825879Y-68315998D01*
X48779386Y-68262342D01*
X48768000Y-68210000D01*
X48768000Y-67639654D01*
X58441618Y-67639654D01*
X58448673Y-67649627D01*
X58479679Y-67675551D01*
X58486598Y-67680579D01*
X58711272Y-67821515D01*
X58718807Y-67825556D01*
X58960520Y-67934694D01*
X58968551Y-67937680D01*
X59222832Y-68013002D01*
X59231184Y-68014869D01*
X59493340Y-68054984D01*
X59501874Y-68055700D01*
X59767045Y-68059867D01*
X59775596Y-68059418D01*
X60038883Y-68027557D01*
X60047284Y-68025955D01*
X60303824Y-67958653D01*
X60311926Y-67955926D01*
X60556949Y-67854434D01*
X60564617Y-67850628D01*
X60793598Y-67716822D01*
X60800679Y-67712009D01*
X60880655Y-67649301D01*
X60889125Y-67637442D01*
X60882608Y-67625818D01*
X59678812Y-66422022D01*
X59664868Y-66414408D01*
X59663035Y-66414539D01*
X59656420Y-66418790D01*
X58448910Y-67626300D01*
X58441618Y-67639654D01*
X48768000Y-67639654D01*
X48768000Y-66033204D01*
X57653665Y-66033204D01*
X57668932Y-66297969D01*
X57670005Y-66306470D01*
X57721065Y-66566722D01*
X57723276Y-66574974D01*
X57809184Y-66825894D01*
X57812499Y-66833779D01*
X57931664Y-67070713D01*
X57936020Y-67078079D01*
X58065347Y-67266250D01*
X58075601Y-67274594D01*
X58089342Y-67267448D01*
X59293978Y-66062812D01*
X59300356Y-66051132D01*
X60030408Y-66051132D01*
X60030539Y-66052965D01*
X60034790Y-66059580D01*
X61241730Y-67266520D01*
X61253939Y-67273187D01*
X61265439Y-67264497D01*
X61362831Y-67131913D01*
X61367418Y-67124685D01*
X61493962Y-66891621D01*
X61497530Y-66883827D01*
X61591271Y-66635750D01*
X61593748Y-66627544D01*
X61652954Y-66369038D01*
X61654294Y-66360577D01*
X61678031Y-66094616D01*
X61678277Y-66089677D01*
X61678666Y-66052485D01*
X61678523Y-66047519D01*
X61660362Y-65781123D01*
X61659201Y-65772649D01*
X61605419Y-65512944D01*
X61603120Y-65504709D01*
X61514588Y-65254705D01*
X61511191Y-65246854D01*
X61389550Y-65011178D01*
X61385122Y-65003866D01*
X61266031Y-64834417D01*
X61255509Y-64826037D01*
X61242121Y-64833089D01*
X60038022Y-66037188D01*
X60030408Y-66051132D01*
X59300356Y-66051132D01*
X59301592Y-66048868D01*
X59301461Y-66047035D01*
X59297210Y-66040420D01*
X58089814Y-64833024D01*
X58077804Y-64826466D01*
X58066064Y-64835434D01*
X57957935Y-64985911D01*
X57953418Y-64993196D01*
X57829325Y-65227567D01*
X57825839Y-65235395D01*
X57734700Y-65484446D01*
X57732311Y-65492670D01*
X57675812Y-65751795D01*
X57674563Y-65760250D01*
X57653754Y-66024653D01*
X57653665Y-66033204D01*
X48768000Y-66033204D01*
X48768000Y-64462500D01*
X58442584Y-64462500D01*
X58448980Y-64473770D01*
X59653188Y-65677978D01*
X59667132Y-65685592D01*
X59668965Y-65685461D01*
X59675580Y-65681210D01*
X60882604Y-64474186D01*
X60889795Y-64461017D01*
X60882473Y-64450780D01*
X60835233Y-64412115D01*
X60828261Y-64407160D01*
X60602122Y-64268582D01*
X60594552Y-64264624D01*
X60351704Y-64158022D01*
X60343644Y-64155120D01*
X60088592Y-64082467D01*
X60080214Y-64080685D01*
X59817656Y-64043318D01*
X59809111Y-64042691D01*
X59543908Y-64041302D01*
X59535374Y-64041839D01*
X59272433Y-64076456D01*
X59264035Y-64078149D01*
X59008238Y-64148127D01*
X59000143Y-64150946D01*
X58756199Y-64254997D01*
X58748577Y-64258881D01*
X58521013Y-64395075D01*
X58513981Y-64399962D01*
X58451053Y-64450377D01*
X58442584Y-64462500D01*
X48768000Y-64462500D01*
X48768000Y-63382000D01*
X48788002Y-63313879D01*
X48841658Y-63267386D01*
X48894000Y-63256000D01*
X63882000Y-63256000D01*
X63950121Y-63276002D01*
G37*
%TD.AperFunction*%
%TD*%
%TA.AperFunction,Conductor*%
%TO.N,PhaseC*%
G36*
X63950121Y-71150002D02*
G01*
X63996614Y-71203658D01*
X64008000Y-71256000D01*
X64008000Y-76084000D01*
X63987998Y-76152121D01*
X63934342Y-76198614D01*
X63882000Y-76210000D01*
X48894000Y-76210000D01*
X48825879Y-76189998D01*
X48779386Y-76136342D01*
X48768000Y-76084000D01*
X48768000Y-75139654D01*
X58441618Y-75139654D01*
X58448673Y-75149627D01*
X58479679Y-75175551D01*
X58486598Y-75180579D01*
X58711272Y-75321515D01*
X58718807Y-75325556D01*
X58960520Y-75434694D01*
X58968551Y-75437680D01*
X59222832Y-75513002D01*
X59231184Y-75514869D01*
X59493340Y-75554984D01*
X59501874Y-75555700D01*
X59767045Y-75559867D01*
X59775596Y-75559418D01*
X60038883Y-75527557D01*
X60047284Y-75525955D01*
X60303824Y-75458653D01*
X60311926Y-75455926D01*
X60556949Y-75354434D01*
X60564617Y-75350628D01*
X60793598Y-75216822D01*
X60800679Y-75212009D01*
X60880655Y-75149301D01*
X60889125Y-75137442D01*
X60882608Y-75125818D01*
X59678812Y-73922022D01*
X59664868Y-73914408D01*
X59663035Y-73914539D01*
X59656420Y-73918790D01*
X58448910Y-75126300D01*
X58441618Y-75139654D01*
X48768000Y-75139654D01*
X48768000Y-73533204D01*
X57653665Y-73533204D01*
X57668932Y-73797969D01*
X57670005Y-73806470D01*
X57721065Y-74066722D01*
X57723276Y-74074974D01*
X57809184Y-74325894D01*
X57812499Y-74333779D01*
X57931664Y-74570713D01*
X57936020Y-74578079D01*
X58065347Y-74766250D01*
X58075601Y-74774594D01*
X58089342Y-74767448D01*
X59293978Y-73562812D01*
X59300356Y-73551132D01*
X60030408Y-73551132D01*
X60030539Y-73552965D01*
X60034790Y-73559580D01*
X61241730Y-74766520D01*
X61253939Y-74773187D01*
X61265439Y-74764497D01*
X61362831Y-74631913D01*
X61367418Y-74624685D01*
X61493962Y-74391621D01*
X61497530Y-74383827D01*
X61591271Y-74135750D01*
X61593748Y-74127544D01*
X61652954Y-73869038D01*
X61654294Y-73860577D01*
X61678031Y-73594616D01*
X61678277Y-73589677D01*
X61678666Y-73552485D01*
X61678523Y-73547519D01*
X61660362Y-73281123D01*
X61659201Y-73272649D01*
X61605419Y-73012944D01*
X61603120Y-73004709D01*
X61514588Y-72754705D01*
X61511191Y-72746854D01*
X61389550Y-72511178D01*
X61385122Y-72503866D01*
X61266031Y-72334417D01*
X61255509Y-72326037D01*
X61242121Y-72333089D01*
X60038022Y-73537188D01*
X60030408Y-73551132D01*
X59300356Y-73551132D01*
X59301592Y-73548868D01*
X59301461Y-73547035D01*
X59297210Y-73540420D01*
X58089814Y-72333024D01*
X58077804Y-72326466D01*
X58066064Y-72335434D01*
X57957935Y-72485911D01*
X57953418Y-72493196D01*
X57829325Y-72727567D01*
X57825839Y-72735395D01*
X57734700Y-72984446D01*
X57732311Y-72992670D01*
X57675812Y-73251795D01*
X57674563Y-73260250D01*
X57653754Y-73524653D01*
X57653665Y-73533204D01*
X48768000Y-73533204D01*
X48768000Y-71962500D01*
X58442584Y-71962500D01*
X58448980Y-71973770D01*
X59653188Y-73177978D01*
X59667132Y-73185592D01*
X59668965Y-73185461D01*
X59675580Y-73181210D01*
X60882604Y-71974186D01*
X60889795Y-71961017D01*
X60882473Y-71950780D01*
X60835233Y-71912115D01*
X60828261Y-71907160D01*
X60602122Y-71768582D01*
X60594552Y-71764624D01*
X60351704Y-71658022D01*
X60343644Y-71655120D01*
X60088592Y-71582467D01*
X60080214Y-71580685D01*
X59817656Y-71543318D01*
X59809111Y-71542691D01*
X59543908Y-71541302D01*
X59535374Y-71541839D01*
X59272433Y-71576456D01*
X59264035Y-71578149D01*
X59008238Y-71648127D01*
X59000143Y-71650946D01*
X58756199Y-71754997D01*
X58748577Y-71758881D01*
X58521013Y-71895075D01*
X58513981Y-71899962D01*
X58451053Y-71950377D01*
X58442584Y-71962500D01*
X48768000Y-71962500D01*
X48768000Y-71256000D01*
X48788002Y-71187879D01*
X48841658Y-71141386D01*
X48894000Y-71130000D01*
X63882000Y-71130000D01*
X63950121Y-71150002D01*
G37*
%TD.AperFunction*%
%TD*%
%TA.AperFunction,Conductor*%
%TO.N,Vout*%
G36*
X154634047Y-40162128D02*
G01*
X154680668Y-40215671D01*
X154686000Y-40229914D01*
X154686000Y-54874000D01*
X154345064Y-54874000D01*
X154383273Y-54835791D01*
X154387835Y-54830707D01*
X154419895Y-54790834D01*
X154428117Y-54777484D01*
X154481361Y-54660379D01*
X154486348Y-54643324D01*
X154504431Y-54517054D01*
X154504431Y-54499276D01*
X154486348Y-54373006D01*
X154481361Y-54355951D01*
X154428115Y-54238842D01*
X154419898Y-54225498D01*
X154387835Y-54185621D01*
X154383279Y-54180543D01*
X153837001Y-53634265D01*
X153823057Y-53626651D01*
X153821224Y-53626782D01*
X153814609Y-53631033D01*
X152667362Y-54778280D01*
X152605050Y-54812306D01*
X152534235Y-54807241D01*
X152489172Y-54778280D01*
X151345158Y-53634266D01*
X151331214Y-53626652D01*
X151329381Y-53626783D01*
X151322766Y-53631034D01*
X150834786Y-54119014D01*
X150772474Y-54153040D01*
X150701659Y-54147975D01*
X150656237Y-54118654D01*
X150454732Y-53915517D01*
X150454716Y-53915502D01*
X150453112Y-53913885D01*
X150425567Y-53889887D01*
X150287662Y-53786363D01*
X150196057Y-53717595D01*
X150196052Y-53717592D01*
X150192421Y-53714866D01*
X149941281Y-53577734D01*
X149673180Y-53477738D01*
X149644270Y-53469249D01*
X149607219Y-53458370D01*
X149607213Y-53458368D01*
X149605059Y-53457736D01*
X149602871Y-53457260D01*
X149602867Y-53457259D01*
X149452685Y-53424589D01*
X149325460Y-53396913D01*
X149040048Y-53376500D01*
X146356190Y-53376500D01*
X146231011Y-53383209D01*
X146143540Y-53387896D01*
X146143532Y-53387897D01*
X146141846Y-53387987D01*
X146130712Y-53389184D01*
X146116727Y-53390687D01*
X146116722Y-53390688D01*
X146115063Y-53390866D01*
X145903081Y-53425217D01*
X145899316Y-53426322D01*
X145899314Y-53426323D01*
X145811662Y-53452061D01*
X145628532Y-53505836D01*
X145624451Y-53507700D01*
X145624445Y-53507702D01*
X145466386Y-53579888D01*
X145368250Y-53624707D01*
X145366285Y-53625780D01*
X145366277Y-53625784D01*
X145332988Y-53643962D01*
X145305938Y-53658733D01*
X145065244Y-53813420D01*
X144848992Y-54000802D01*
X141182408Y-57667386D01*
X141157970Y-57692254D01*
X141003555Y-57876847D01*
X140944508Y-57916261D01*
X140906913Y-57922000D01*
X76502140Y-57922000D01*
X76434019Y-57901998D01*
X76418124Y-57889900D01*
X75048748Y-56664669D01*
X119666001Y-56664669D01*
X119666371Y-56671490D01*
X119671895Y-56722352D01*
X119675521Y-56737604D01*
X119720676Y-56858054D01*
X119729214Y-56873649D01*
X119805715Y-56975724D01*
X119818276Y-56988285D01*
X119920351Y-57064786D01*
X119935946Y-57073324D01*
X120056394Y-57118478D01*
X120071649Y-57122105D01*
X120122514Y-57127631D01*
X120129328Y-57128000D01*
X121901885Y-57128000D01*
X121917124Y-57123525D01*
X121918329Y-57122135D01*
X121920000Y-57114452D01*
X121920000Y-57109884D01*
X122428000Y-57109884D01*
X122432475Y-57125123D01*
X122433865Y-57126328D01*
X122441548Y-57127999D01*
X124218669Y-57127999D01*
X124225490Y-57127629D01*
X124276352Y-57122105D01*
X124291604Y-57118479D01*
X124412054Y-57073324D01*
X124427649Y-57064786D01*
X124529724Y-56988285D01*
X124542285Y-56975724D01*
X124618786Y-56873649D01*
X124627324Y-56858054D01*
X124672478Y-56737606D01*
X124676105Y-56722351D01*
X124681631Y-56671486D01*
X124682000Y-56664672D01*
X124682000Y-54892115D01*
X124677525Y-54876876D01*
X124676135Y-54875671D01*
X124668452Y-54874000D01*
X122446115Y-54874000D01*
X122430876Y-54878475D01*
X122429671Y-54879865D01*
X122428000Y-54887548D01*
X122428000Y-57109884D01*
X121920000Y-57109884D01*
X121920000Y-54892115D01*
X121915525Y-54876876D01*
X121914135Y-54875671D01*
X121906452Y-54874000D01*
X119684116Y-54874000D01*
X119668877Y-54878475D01*
X119667672Y-54879865D01*
X119666001Y-54887548D01*
X119666001Y-56664669D01*
X75048748Y-56664669D01*
X74071367Y-55790170D01*
X82074001Y-55790170D01*
X82074371Y-55796991D01*
X82079895Y-55847853D01*
X82083521Y-55863105D01*
X82128676Y-55983555D01*
X82137214Y-55999150D01*
X82213715Y-56101225D01*
X82226276Y-56113786D01*
X82328351Y-56190287D01*
X82343946Y-56198825D01*
X82464394Y-56243979D01*
X82479649Y-56247606D01*
X82530514Y-56253132D01*
X82537328Y-56253501D01*
X84309885Y-56253501D01*
X84325124Y-56249026D01*
X84326329Y-56247636D01*
X84328000Y-56239953D01*
X84328000Y-56235385D01*
X84836000Y-56235385D01*
X84840475Y-56250624D01*
X84841865Y-56251829D01*
X84849548Y-56253500D01*
X86626669Y-56253500D01*
X86633490Y-56253130D01*
X86684352Y-56247606D01*
X86699604Y-56243980D01*
X86820054Y-56198825D01*
X86835649Y-56190287D01*
X86937724Y-56113786D01*
X86950285Y-56101225D01*
X87026786Y-55999150D01*
X87035324Y-55983555D01*
X87080478Y-55863107D01*
X87084105Y-55847852D01*
X87089631Y-55796987D01*
X87090000Y-55790173D01*
X87090000Y-54347885D01*
X119666000Y-54347885D01*
X119670475Y-54363124D01*
X119671865Y-54364329D01*
X119679548Y-54366000D01*
X121901885Y-54366000D01*
X121917124Y-54361525D01*
X121918329Y-54360135D01*
X121920000Y-54352452D01*
X121920000Y-54347885D01*
X122428000Y-54347885D01*
X122432475Y-54363124D01*
X122433865Y-54364329D01*
X122441548Y-54366000D01*
X124663884Y-54366000D01*
X124679123Y-54361525D01*
X124680328Y-54360135D01*
X124681999Y-54352452D01*
X124681999Y-53263375D01*
X151696753Y-53263375D01*
X151696884Y-53265208D01*
X151701135Y-53271823D01*
X152565455Y-54136143D01*
X152579399Y-54143757D01*
X152581232Y-54143626D01*
X152587847Y-54139375D01*
X153452166Y-53275056D01*
X153459780Y-53261112D01*
X153459649Y-53259279D01*
X153455398Y-53252664D01*
X152905893Y-52703159D01*
X152900809Y-52698597D01*
X152860936Y-52666537D01*
X152847586Y-52658315D01*
X152730481Y-52605071D01*
X152713426Y-52600084D01*
X152587156Y-52582001D01*
X152569378Y-52582001D01*
X152443108Y-52600084D01*
X152426053Y-52605071D01*
X152308944Y-52658317D01*
X152295600Y-52666534D01*
X152255723Y-52698597D01*
X152250645Y-52703153D01*
X151704367Y-53249431D01*
X151696753Y-53263375D01*
X124681999Y-53263375D01*
X124681999Y-52575331D01*
X124681629Y-52568510D01*
X124676105Y-52517648D01*
X124672479Y-52502396D01*
X124627324Y-52381946D01*
X124618786Y-52366351D01*
X124542285Y-52264276D01*
X124529724Y-52251715D01*
X124427649Y-52175214D01*
X124412054Y-52166676D01*
X124291606Y-52121522D01*
X124276351Y-52117895D01*
X124225486Y-52112369D01*
X124218672Y-52112000D01*
X122446115Y-52112000D01*
X122430876Y-52116475D01*
X122429671Y-52117865D01*
X122428000Y-52125548D01*
X122428000Y-54347885D01*
X121920000Y-54347885D01*
X121920000Y-52130116D01*
X121915525Y-52114877D01*
X121914135Y-52113672D01*
X121906452Y-52112001D01*
X120129331Y-52112001D01*
X120122510Y-52112371D01*
X120071648Y-52117895D01*
X120056396Y-52121521D01*
X119935946Y-52166676D01*
X119920351Y-52175214D01*
X119818276Y-52251715D01*
X119805715Y-52264276D01*
X119729214Y-52366351D01*
X119720676Y-52381946D01*
X119675522Y-52502394D01*
X119671895Y-52517649D01*
X119666369Y-52568514D01*
X119666000Y-52575328D01*
X119666000Y-54347885D01*
X87090000Y-54347885D01*
X87090000Y-54017616D01*
X87085525Y-54002377D01*
X87084135Y-54001172D01*
X87076452Y-53999501D01*
X84854115Y-53999501D01*
X84838876Y-54003976D01*
X84837671Y-54005366D01*
X84836000Y-54013049D01*
X84836000Y-56235385D01*
X84328000Y-56235385D01*
X84328000Y-54017616D01*
X84323525Y-54002377D01*
X84322135Y-54001172D01*
X84314452Y-53999501D01*
X82092116Y-53999501D01*
X82076877Y-54003976D01*
X82075672Y-54005366D01*
X82074001Y-54013049D01*
X82074001Y-55790170D01*
X74071367Y-55790170D01*
X71641501Y-53616079D01*
X71641499Y-53616078D01*
X71628000Y-53604000D01*
X49148000Y-53604000D01*
X49079879Y-53583998D01*
X49033386Y-53530342D01*
X49022000Y-53478000D01*
X49022000Y-53473386D01*
X82074000Y-53473386D01*
X82078475Y-53488625D01*
X82079865Y-53489830D01*
X82087548Y-53491501D01*
X84309885Y-53491501D01*
X84325124Y-53487026D01*
X84326329Y-53485636D01*
X84328000Y-53477953D01*
X84328000Y-53473386D01*
X84836000Y-53473386D01*
X84840475Y-53488625D01*
X84841865Y-53489830D01*
X84849548Y-53491501D01*
X87071884Y-53491501D01*
X87087123Y-53487026D01*
X87088328Y-53485636D01*
X87089999Y-53477953D01*
X87089999Y-51700832D01*
X87089629Y-51694011D01*
X87084105Y-51643149D01*
X87080479Y-51627897D01*
X87035324Y-51507447D01*
X87026786Y-51491852D01*
X86950285Y-51389777D01*
X86937724Y-51377216D01*
X86835649Y-51300715D01*
X86820054Y-51292177D01*
X86699606Y-51247023D01*
X86684351Y-51243396D01*
X86633486Y-51237870D01*
X86626672Y-51237501D01*
X84854115Y-51237501D01*
X84838876Y-51241976D01*
X84837671Y-51243366D01*
X84836000Y-51251049D01*
X84836000Y-53473386D01*
X84328000Y-53473386D01*
X84328000Y-51255617D01*
X84323525Y-51240378D01*
X84322135Y-51239173D01*
X84314452Y-51237502D01*
X82537331Y-51237502D01*
X82530510Y-51237872D01*
X82479648Y-51243396D01*
X82464396Y-51247022D01*
X82343946Y-51292177D01*
X82328351Y-51300715D01*
X82226276Y-51377216D01*
X82213715Y-51389777D01*
X82137214Y-51491852D01*
X82128676Y-51507447D01*
X82083522Y-51627895D01*
X82079895Y-51643150D01*
X82074369Y-51694015D01*
X82074000Y-51700829D01*
X82074000Y-53473386D01*
X49022000Y-53473386D01*
X49022000Y-52594669D01*
X57658001Y-52594669D01*
X57658371Y-52601490D01*
X57663895Y-52652352D01*
X57667521Y-52667604D01*
X57712676Y-52788054D01*
X57721214Y-52803649D01*
X57797715Y-52905724D01*
X57810276Y-52918285D01*
X57912351Y-52994786D01*
X57927946Y-53003324D01*
X58048394Y-53048478D01*
X58063649Y-53052105D01*
X58114514Y-53057631D01*
X58121328Y-53058000D01*
X59393885Y-53058000D01*
X59409124Y-53053525D01*
X59410329Y-53052135D01*
X59412000Y-53044452D01*
X59412000Y-53039884D01*
X59920000Y-53039884D01*
X59924475Y-53055123D01*
X59925865Y-53056328D01*
X59933548Y-53057999D01*
X61210669Y-53057999D01*
X61217490Y-53057629D01*
X61268352Y-53052105D01*
X61283604Y-53048479D01*
X61404054Y-53003324D01*
X61419649Y-52994786D01*
X61521724Y-52918285D01*
X61534285Y-52905724D01*
X61610786Y-52803649D01*
X61619324Y-52788054D01*
X61664478Y-52667606D01*
X61668105Y-52652351D01*
X61673631Y-52601486D01*
X61674000Y-52594672D01*
X61674000Y-51322115D01*
X61669525Y-51306876D01*
X61668135Y-51305671D01*
X61660452Y-51304000D01*
X59938115Y-51304000D01*
X59922876Y-51308475D01*
X59921671Y-51309865D01*
X59920000Y-51317548D01*
X59920000Y-53039884D01*
X59412000Y-53039884D01*
X59412000Y-51322115D01*
X59407525Y-51306876D01*
X59406135Y-51305671D01*
X59398452Y-51304000D01*
X57676116Y-51304000D01*
X57660877Y-51308475D01*
X57659672Y-51309865D01*
X57658001Y-51317548D01*
X57658001Y-52594669D01*
X49022000Y-52594669D01*
X49022000Y-50777885D01*
X57658000Y-50777885D01*
X57662475Y-50793124D01*
X57663865Y-50794329D01*
X57671548Y-50796000D01*
X59393885Y-50796000D01*
X59409124Y-50791525D01*
X59410329Y-50790135D01*
X59412000Y-50782452D01*
X59412000Y-50777885D01*
X59920000Y-50777885D01*
X59924475Y-50793124D01*
X59925865Y-50794329D01*
X59933548Y-50796000D01*
X61655884Y-50796000D01*
X61671123Y-50791525D01*
X61672328Y-50790135D01*
X61673999Y-50782452D01*
X61673999Y-49505331D01*
X61673629Y-49498510D01*
X61668105Y-49447648D01*
X61664479Y-49432396D01*
X61619324Y-49311946D01*
X61610786Y-49296351D01*
X61534285Y-49194276D01*
X61521724Y-49181715D01*
X61419649Y-49105214D01*
X61404054Y-49096676D01*
X61283606Y-49051522D01*
X61268351Y-49047895D01*
X61217486Y-49042369D01*
X61210672Y-49042000D01*
X59938115Y-49042000D01*
X59922876Y-49046475D01*
X59921671Y-49047865D01*
X59920000Y-49055548D01*
X59920000Y-50777885D01*
X59412000Y-50777885D01*
X59412000Y-49060116D01*
X59407525Y-49044877D01*
X59406135Y-49043672D01*
X59398452Y-49042001D01*
X58121331Y-49042001D01*
X58114510Y-49042371D01*
X58063648Y-49047895D01*
X58048396Y-49051521D01*
X57927946Y-49096676D01*
X57912351Y-49105214D01*
X57810276Y-49181715D01*
X57797715Y-49194276D01*
X57721214Y-49296351D01*
X57712676Y-49311946D01*
X57667522Y-49432394D01*
X57663895Y-49447649D01*
X57658369Y-49498514D01*
X57658000Y-49505328D01*
X57658000Y-50777885D01*
X49022000Y-50777885D01*
X49022000Y-40521698D01*
X49042002Y-40453577D01*
X49095658Y-40407084D01*
X49147697Y-40395698D01*
X147810292Y-40158529D01*
X147810294Y-40158529D01*
X147828407Y-40158485D01*
X148512162Y-40156841D01*
X148512165Y-40156841D01*
X148512632Y-40156840D01*
X148512650Y-40156840D01*
X154565878Y-40142289D01*
X154634047Y-40162128D01*
G37*
%TD.AperFunction*%
%TD*%
%TA.AperFunction,Conductor*%
%TO.N,Drain*%
G36*
X149108169Y-55402002D02*
G01*
X149135714Y-55426000D01*
X150692133Y-57241822D01*
X152708882Y-59594695D01*
X153639666Y-60680610D01*
X153668812Y-60745349D01*
X153670000Y-60762610D01*
X153670000Y-86498000D01*
X153649998Y-86566121D01*
X153596342Y-86612614D01*
X153544000Y-86624000D01*
X152135013Y-86624000D01*
X152066892Y-86603998D01*
X152020399Y-86550342D01*
X152010295Y-86480068D01*
X152039789Y-86415488D01*
X152065928Y-86392628D01*
X152199291Y-86305192D01*
X152206696Y-86299509D01*
X152394654Y-86131751D01*
X152401139Y-86125035D01*
X152562239Y-85931334D01*
X152567654Y-85923742D01*
X152698354Y-85708354D01*
X152702592Y-85700037D01*
X152800019Y-85467701D01*
X152802980Y-85458851D01*
X152864994Y-85214669D01*
X152866616Y-85205472D01*
X152887684Y-84996247D01*
X152888000Y-84989955D01*
X152888000Y-84176115D01*
X152883525Y-84160876D01*
X152882135Y-84159671D01*
X152874452Y-84158000D01*
X149390115Y-84158000D01*
X149374876Y-84162475D01*
X149373671Y-84163865D01*
X149372000Y-84171548D01*
X149372000Y-84967998D01*
X149372173Y-84972673D01*
X149386088Y-85159926D01*
X149387464Y-85169132D01*
X149443071Y-85414874D01*
X149445795Y-85423785D01*
X149537112Y-85658608D01*
X149541123Y-85667017D01*
X149666146Y-85885760D01*
X149671357Y-85893486D01*
X149827341Y-86091350D01*
X149833634Y-86098218D01*
X150017144Y-86270848D01*
X150024398Y-86276722D01*
X150194135Y-86394473D01*
X150238705Y-86449736D01*
X150246322Y-86520323D01*
X150214568Y-86583822D01*
X150153524Y-86620074D01*
X150122315Y-86624000D01*
X148462000Y-86624000D01*
X148393879Y-86603998D01*
X148347386Y-86550342D01*
X148336000Y-86498000D01*
X148336000Y-83631885D01*
X149372000Y-83631885D01*
X149376475Y-83647124D01*
X149377865Y-83648329D01*
X149385548Y-83650000D01*
X150857885Y-83650000D01*
X150873124Y-83645525D01*
X150874329Y-83644135D01*
X150876000Y-83636452D01*
X150876000Y-83631885D01*
X151384000Y-83631885D01*
X151388475Y-83647124D01*
X151389865Y-83648329D01*
X151397548Y-83650000D01*
X152869885Y-83650000D01*
X152885124Y-83645525D01*
X152886329Y-83644135D01*
X152888000Y-83636452D01*
X152888000Y-82840002D01*
X152887827Y-82835327D01*
X152873912Y-82648074D01*
X152872536Y-82638868D01*
X152816929Y-82393126D01*
X152814205Y-82384215D01*
X152722888Y-82149392D01*
X152718877Y-82140983D01*
X152593854Y-81922240D01*
X152588643Y-81914514D01*
X152432659Y-81716650D01*
X152426366Y-81709782D01*
X152242856Y-81537152D01*
X152235602Y-81531278D01*
X152028597Y-81387673D01*
X152020562Y-81382940D01*
X151794593Y-81271505D01*
X151785960Y-81268017D01*
X151546006Y-81191207D01*
X151536924Y-81189027D01*
X151401880Y-81167033D01*
X151388286Y-81168729D01*
X151384000Y-81182839D01*
X151384000Y-83631885D01*
X150876000Y-83631885D01*
X150876000Y-81182394D01*
X150871982Y-81168710D01*
X150858290Y-81166689D01*
X150768096Y-81178964D01*
X150758978Y-81180902D01*
X150517098Y-81251404D01*
X150508367Y-81254667D01*
X150279558Y-81360151D01*
X150271406Y-81364670D01*
X150060709Y-81502808D01*
X150053304Y-81508491D01*
X149865346Y-81676249D01*
X149858861Y-81682965D01*
X149697761Y-81876666D01*
X149692346Y-81884258D01*
X149561646Y-82099646D01*
X149557408Y-82107963D01*
X149459981Y-82340299D01*
X149457020Y-82349149D01*
X149395006Y-82593331D01*
X149393384Y-82602528D01*
X149372316Y-82811753D01*
X149372000Y-82818045D01*
X149372000Y-83631885D01*
X148336000Y-83631885D01*
X148336000Y-63256000D01*
X144751752Y-60762610D01*
X142696598Y-59332937D01*
X148118325Y-59332937D01*
X148124052Y-59340587D01*
X148295207Y-59445472D01*
X148304002Y-59449954D01*
X148514153Y-59537001D01*
X148523538Y-59540050D01*
X148744719Y-59593152D01*
X148754466Y-59594695D01*
X148981235Y-59612542D01*
X148991095Y-59612542D01*
X149217864Y-59594695D01*
X149227611Y-59593152D01*
X149448792Y-59540050D01*
X149458177Y-59537001D01*
X149668328Y-59449954D01*
X149677123Y-59445472D01*
X149844610Y-59342835D01*
X149854072Y-59332377D01*
X149850289Y-59323601D01*
X148998977Y-58472289D01*
X148985033Y-58464675D01*
X148983200Y-58464806D01*
X148976585Y-58469057D01*
X148125085Y-59320557D01*
X148118325Y-59332937D01*
X142696598Y-59332937D01*
X142617652Y-59278018D01*
X142573154Y-59222697D01*
X142565628Y-59152100D01*
X142600511Y-59085489D01*
X143580803Y-58105197D01*
X147473890Y-58105197D01*
X147491737Y-58331966D01*
X147493280Y-58341713D01*
X147546382Y-58562894D01*
X147549431Y-58572279D01*
X147636478Y-58782430D01*
X147640960Y-58791225D01*
X147743597Y-58958712D01*
X147754055Y-58968174D01*
X147762831Y-58964391D01*
X148614143Y-58113079D01*
X148620521Y-58101399D01*
X149350573Y-58101399D01*
X149350704Y-58103232D01*
X149354955Y-58109847D01*
X150206455Y-58961347D01*
X150218835Y-58968107D01*
X150226485Y-58962380D01*
X150331370Y-58791225D01*
X150335852Y-58782430D01*
X150422899Y-58572279D01*
X150425948Y-58562894D01*
X150479050Y-58341713D01*
X150480593Y-58331966D01*
X150498440Y-58105197D01*
X150498440Y-58095337D01*
X150480593Y-57868568D01*
X150479050Y-57858821D01*
X150425948Y-57637640D01*
X150422899Y-57628255D01*
X150335852Y-57418104D01*
X150331370Y-57409309D01*
X150228733Y-57241822D01*
X150218275Y-57232360D01*
X150209499Y-57236143D01*
X149358187Y-58087455D01*
X149350573Y-58101399D01*
X148620521Y-58101399D01*
X148621757Y-58099135D01*
X148621626Y-58097302D01*
X148617375Y-58090687D01*
X147765875Y-57239187D01*
X147753495Y-57232427D01*
X147745845Y-57238154D01*
X147640960Y-57409309D01*
X147636478Y-57418104D01*
X147549431Y-57628255D01*
X147546382Y-57637640D01*
X147493280Y-57858821D01*
X147491737Y-57868568D01*
X147473890Y-58095337D01*
X147473890Y-58105197D01*
X143580803Y-58105197D01*
X144817843Y-56868157D01*
X148118258Y-56868157D01*
X148122041Y-56876933D01*
X148973353Y-57728245D01*
X148987297Y-57735859D01*
X148989130Y-57735728D01*
X148995745Y-57731477D01*
X149847245Y-56879977D01*
X149854005Y-56867597D01*
X149848278Y-56859947D01*
X149677123Y-56755062D01*
X149668328Y-56750580D01*
X149458177Y-56663533D01*
X149448792Y-56660484D01*
X149227611Y-56607382D01*
X149217864Y-56605839D01*
X148991095Y-56587992D01*
X148981235Y-56587992D01*
X148754466Y-56605839D01*
X148744719Y-56607382D01*
X148523538Y-56660484D01*
X148514153Y-56663533D01*
X148304002Y-56750580D01*
X148295207Y-56755062D01*
X148127720Y-56857699D01*
X148118258Y-56868157D01*
X144817843Y-56868157D01*
X146267095Y-55418905D01*
X146329407Y-55384879D01*
X146356190Y-55382000D01*
X149040048Y-55382000D01*
X149108169Y-55402002D01*
G37*
%TD.AperFunction*%
%TD*%
%TA.AperFunction,Conductor*%
%TO.N,Vout*%
G36*
X147907889Y-40147993D02*
G01*
X148512165Y-40156841D01*
X148512168Y-40156841D01*
X154686000Y-40247238D01*
X154699080Y-40247430D01*
X154699082Y-40247430D01*
X162474686Y-40361279D01*
X164721845Y-40394182D01*
X164789665Y-40415179D01*
X164835368Y-40469509D01*
X164846000Y-40520168D01*
X164846000Y-59320000D01*
X164825998Y-59388121D01*
X164772342Y-59434614D01*
X164720000Y-59446000D01*
X155278076Y-59446000D01*
X155209955Y-59425998D01*
X155176804Y-59394966D01*
X155163698Y-59377261D01*
X155163685Y-59377244D01*
X155162355Y-59375448D01*
X152761266Y-56574178D01*
X152732120Y-56509439D01*
X152742601Y-56439221D01*
X152789382Y-56385816D01*
X152804781Y-56377477D01*
X152847590Y-56358013D01*
X152860934Y-56349796D01*
X152900811Y-56317733D01*
X152905889Y-56313177D01*
X153452167Y-55766899D01*
X153459781Y-55752955D01*
X153459650Y-55751122D01*
X153455399Y-55744507D01*
X152220189Y-54509297D01*
X152942675Y-54509297D01*
X152942806Y-54511130D01*
X152947057Y-54517745D01*
X153811376Y-55382064D01*
X153825320Y-55389678D01*
X153827153Y-55389547D01*
X153833768Y-55385296D01*
X154383273Y-54835791D01*
X154387835Y-54830707D01*
X154419895Y-54790834D01*
X154428117Y-54777484D01*
X154481361Y-54660379D01*
X154486348Y-54643324D01*
X154504431Y-54517054D01*
X154504431Y-54499276D01*
X154486348Y-54373006D01*
X154481361Y-54355951D01*
X154428115Y-54238842D01*
X154419898Y-54225498D01*
X154387835Y-54185621D01*
X154383279Y-54180543D01*
X153837001Y-53634265D01*
X153823057Y-53626651D01*
X153821224Y-53626782D01*
X153814609Y-53631033D01*
X152950289Y-54495353D01*
X152942675Y-54509297D01*
X152220189Y-54509297D01*
X151345158Y-53634266D01*
X151331214Y-53626652D01*
X151329381Y-53626783D01*
X151322766Y-53631034D01*
X150834786Y-54119014D01*
X150772474Y-54153040D01*
X150701659Y-54147975D01*
X150656237Y-54118654D01*
X150454732Y-53915517D01*
X150454716Y-53915502D01*
X150453112Y-53913885D01*
X150425567Y-53889887D01*
X150287662Y-53786363D01*
X150196057Y-53717595D01*
X150196052Y-53717592D01*
X150192421Y-53714866D01*
X149941281Y-53577734D01*
X149673180Y-53477738D01*
X149644270Y-53469249D01*
X149607219Y-53458370D01*
X149607213Y-53458368D01*
X149605059Y-53457736D01*
X149602871Y-53457260D01*
X149602867Y-53457259D01*
X149455571Y-53425217D01*
X149325460Y-53396913D01*
X149040048Y-53376500D01*
X148637058Y-53376500D01*
X148519582Y-53263375D01*
X151696753Y-53263375D01*
X151696884Y-53265208D01*
X151701135Y-53271823D01*
X152565455Y-54136143D01*
X152579399Y-54143757D01*
X152581232Y-54143626D01*
X152587847Y-54139375D01*
X153452166Y-53275056D01*
X153459780Y-53261112D01*
X153459649Y-53259279D01*
X153455398Y-53252664D01*
X152905893Y-52703159D01*
X152900809Y-52698597D01*
X152860936Y-52666537D01*
X152847586Y-52658315D01*
X152730481Y-52605071D01*
X152713426Y-52600084D01*
X152587156Y-52582001D01*
X152569378Y-52582001D01*
X152443108Y-52600084D01*
X152426053Y-52605071D01*
X152308944Y-52658317D01*
X152295600Y-52666534D01*
X152255723Y-52698597D01*
X152250645Y-52703153D01*
X151704367Y-53249431D01*
X151696753Y-53263375D01*
X148519582Y-53263375D01*
X148082000Y-52842000D01*
X148082098Y-52846978D01*
X147828301Y-40153193D01*
X147830355Y-40152585D01*
X147867990Y-40147409D01*
X147907889Y-40147993D01*
G37*
%TD.AperFunction*%
%TD*%
%TA.AperFunction,Conductor*%
%TO.N,Vcc*%
G36*
X150445435Y-104651466D02*
G01*
X150493195Y-104703996D01*
X150505863Y-104759226D01*
X150498107Y-110581396D01*
X150495168Y-112787168D01*
X150475075Y-112855262D01*
X150421358Y-112901683D01*
X150369168Y-112913000D01*
X129090906Y-112913000D01*
X129022785Y-112892998D01*
X128976292Y-112839342D01*
X128965643Y-112773394D01*
X128968131Y-112750491D01*
X128968500Y-112743672D01*
X128968500Y-111971115D01*
X128964025Y-111955876D01*
X128962635Y-111954671D01*
X128954952Y-111953000D01*
X127380000Y-111953000D01*
X127311879Y-111932998D01*
X127265386Y-111879342D01*
X127254000Y-111827000D01*
X127254000Y-111426885D01*
X127762000Y-111426885D01*
X127766475Y-111442124D01*
X127767865Y-111443329D01*
X127775548Y-111445000D01*
X128950384Y-111445000D01*
X128965623Y-111440525D01*
X128966828Y-111439135D01*
X128968499Y-111431452D01*
X128968499Y-110654331D01*
X128968129Y-110647510D01*
X128962605Y-110596648D01*
X128958979Y-110581396D01*
X128913824Y-110460946D01*
X128905286Y-110445351D01*
X128828785Y-110343276D01*
X128816224Y-110330715D01*
X128714149Y-110254214D01*
X128698554Y-110245676D01*
X128578106Y-110200522D01*
X128562851Y-110196895D01*
X128511986Y-110191369D01*
X128505172Y-110191000D01*
X127780115Y-110191000D01*
X127764876Y-110195475D01*
X127763671Y-110196865D01*
X127762000Y-110204548D01*
X127762000Y-111426885D01*
X127254000Y-111426885D01*
X127254000Y-110209116D01*
X127249525Y-110193877D01*
X127248135Y-110192672D01*
X127240452Y-110191001D01*
X126618000Y-110191001D01*
X126549879Y-110170999D01*
X126503386Y-110117343D01*
X126492000Y-110065001D01*
X126492000Y-109737008D01*
X126512002Y-109668887D01*
X126565658Y-109622394D01*
X126618007Y-109611008D01*
X128450988Y-109611128D01*
X129902885Y-109611223D01*
X129902886Y-109611223D01*
X129921000Y-109611224D01*
X139818404Y-109611869D01*
X139829439Y-104884880D01*
X142102000Y-104830630D01*
X142116303Y-104830289D01*
X142116305Y-104830289D01*
X150376856Y-104633095D01*
X150445435Y-104651466D01*
G37*
%TD.AperFunction*%
%TD*%
%TA.AperFunction,Conductor*%
%TO.N,Vcc*%
G36*
X139954000Y-109992000D02*
G01*
X129921000Y-109992000D01*
X129921000Y-107109612D01*
X129941002Y-107041491D01*
X129994658Y-106994998D01*
X130064932Y-106984894D01*
X130129512Y-107014388D01*
X130167896Y-107074114D01*
X130172327Y-107096609D01*
X130174257Y-107115206D01*
X130177149Y-107128600D01*
X130228588Y-107282784D01*
X130234761Y-107295962D01*
X130320063Y-107433807D01*
X130329099Y-107445208D01*
X130443829Y-107559739D01*
X130455240Y-107568751D01*
X130593243Y-107653816D01*
X130606424Y-107659963D01*
X130760710Y-107711138D01*
X130774086Y-107714005D01*
X130868438Y-107723672D01*
X130874854Y-107724000D01*
X131299885Y-107724000D01*
X131315124Y-107719525D01*
X131316329Y-107718135D01*
X131318000Y-107710452D01*
X131318000Y-107705884D01*
X131826000Y-107705884D01*
X131830475Y-107721123D01*
X131831865Y-107722328D01*
X131839548Y-107723999D01*
X132269095Y-107723999D01*
X132275614Y-107723662D01*
X132371206Y-107713743D01*
X132384600Y-107710851D01*
X132538784Y-107659412D01*
X132551962Y-107653239D01*
X132689807Y-107567937D01*
X132701208Y-107558901D01*
X132815739Y-107444171D01*
X132824751Y-107432760D01*
X132909816Y-107294757D01*
X132915963Y-107281576D01*
X132967138Y-107127290D01*
X132970005Y-107113914D01*
X132979672Y-107019562D01*
X132980000Y-107013146D01*
X132980000Y-106913115D01*
X132975525Y-106897876D01*
X132974135Y-106896671D01*
X132966452Y-106895000D01*
X131844115Y-106895000D01*
X131828876Y-106899475D01*
X131827671Y-106900865D01*
X131826000Y-106908548D01*
X131826000Y-107705884D01*
X131318000Y-107705884D01*
X131318000Y-106513000D01*
X131338002Y-106444879D01*
X131391658Y-106398386D01*
X131444000Y-106387000D01*
X132961884Y-106387000D01*
X132977123Y-106382525D01*
X132978328Y-106381135D01*
X132979999Y-106373452D01*
X132979999Y-106268905D01*
X132979662Y-106262386D01*
X132969743Y-106166794D01*
X132966850Y-106153397D01*
X132946993Y-106093875D01*
X132944409Y-106022926D01*
X132980593Y-105961842D01*
X133044058Y-105930018D01*
X133066517Y-105928000D01*
X139954000Y-105928000D01*
X139954000Y-109992000D01*
G37*
%TD.AperFunction*%
%TD*%
%TA.AperFunction,Conductor*%
%TO.N,Gate*%
G36*
X161486121Y-81056002D02*
G01*
X161532614Y-81109658D01*
X161544000Y-81162000D01*
X161544000Y-98436000D01*
X161523998Y-98504121D01*
X161470342Y-98550614D01*
X161418000Y-98562000D01*
X155066000Y-98562000D01*
X154997879Y-98541998D01*
X154951386Y-98488342D01*
X154940000Y-98436000D01*
X154940000Y-97459095D01*
X155843001Y-97459095D01*
X155843338Y-97465614D01*
X155853257Y-97561206D01*
X155856149Y-97574600D01*
X155907588Y-97728784D01*
X155913761Y-97741962D01*
X155999063Y-97879807D01*
X156008099Y-97891208D01*
X156122829Y-98005739D01*
X156134240Y-98014751D01*
X156272243Y-98099816D01*
X156285424Y-98105963D01*
X156439710Y-98157138D01*
X156453086Y-98160005D01*
X156547438Y-98169672D01*
X156553854Y-98170000D01*
X156953885Y-98170000D01*
X156969124Y-98165525D01*
X156970329Y-98164135D01*
X156972000Y-98156452D01*
X156972000Y-98151884D01*
X157480000Y-98151884D01*
X157484475Y-98167123D01*
X157485865Y-98168328D01*
X157493548Y-98169999D01*
X157898095Y-98169999D01*
X157904614Y-98169662D01*
X158000206Y-98159743D01*
X158013600Y-98156851D01*
X158167784Y-98105412D01*
X158180962Y-98099239D01*
X158318807Y-98013937D01*
X158330208Y-98004901D01*
X158444739Y-97890171D01*
X158453751Y-97878760D01*
X158538816Y-97740757D01*
X158544963Y-97727576D01*
X158596138Y-97573290D01*
X158599005Y-97559914D01*
X158608672Y-97465562D01*
X158609000Y-97459146D01*
X158609000Y-97371615D01*
X158604525Y-97356376D01*
X158603135Y-97355171D01*
X158595452Y-97353500D01*
X157498115Y-97353500D01*
X157482876Y-97357975D01*
X157481671Y-97359365D01*
X157480000Y-97367048D01*
X157480000Y-98151884D01*
X156972000Y-98151884D01*
X156972000Y-97371615D01*
X156967525Y-97356376D01*
X156966135Y-97355171D01*
X156958452Y-97353500D01*
X155861116Y-97353500D01*
X155845877Y-97357975D01*
X155844672Y-97359365D01*
X155843001Y-97367048D01*
X155843001Y-97459095D01*
X154940000Y-97459095D01*
X154940000Y-96827385D01*
X155843000Y-96827385D01*
X155847475Y-96842624D01*
X155848865Y-96843829D01*
X155856548Y-96845500D01*
X156953885Y-96845500D01*
X156969124Y-96841025D01*
X156970329Y-96839635D01*
X156972000Y-96831952D01*
X156972000Y-96827385D01*
X157480000Y-96827385D01*
X157484475Y-96842624D01*
X157485865Y-96843829D01*
X157493548Y-96845500D01*
X158590884Y-96845500D01*
X158606123Y-96841025D01*
X158607328Y-96839635D01*
X158608999Y-96831952D01*
X158608999Y-96739905D01*
X158608662Y-96733386D01*
X158598743Y-96637794D01*
X158595851Y-96624400D01*
X158544412Y-96470216D01*
X158538239Y-96457038D01*
X158452937Y-96319193D01*
X158443901Y-96307792D01*
X158329171Y-96193261D01*
X158317760Y-96184249D01*
X158179757Y-96099184D01*
X158166576Y-96093037D01*
X158012290Y-96041862D01*
X157998914Y-96038995D01*
X157904562Y-96029328D01*
X157898145Y-96029000D01*
X157498115Y-96029000D01*
X157482876Y-96033475D01*
X157481671Y-96034865D01*
X157480000Y-96042548D01*
X157480000Y-96827385D01*
X156972000Y-96827385D01*
X156972000Y-96047116D01*
X156967525Y-96031877D01*
X156966135Y-96030672D01*
X156958452Y-96029001D01*
X156553905Y-96029001D01*
X156547386Y-96029338D01*
X156451794Y-96039257D01*
X156438400Y-96042149D01*
X156284216Y-96093588D01*
X156271038Y-96099761D01*
X156133193Y-96185063D01*
X156121792Y-96194099D01*
X156007261Y-96308829D01*
X155998249Y-96320240D01*
X155913184Y-96458243D01*
X155907037Y-96471424D01*
X155855862Y-96625710D01*
X155852995Y-96639086D01*
X155843328Y-96733438D01*
X155843000Y-96739855D01*
X155843000Y-96827385D01*
X154940000Y-96827385D01*
X154940000Y-93864837D01*
X154951436Y-93812386D01*
X154971200Y-93769218D01*
X154971201Y-93769216D01*
X154973537Y-93764113D01*
X155029051Y-93547902D01*
X155040500Y-93407138D01*
X155040500Y-93392095D01*
X155332001Y-93392095D01*
X155332338Y-93398614D01*
X155342257Y-93494206D01*
X155345149Y-93507600D01*
X155396588Y-93661784D01*
X155402761Y-93674962D01*
X155488063Y-93812807D01*
X155497099Y-93824208D01*
X155611829Y-93938739D01*
X155623240Y-93947751D01*
X155761243Y-94032816D01*
X155774424Y-94038963D01*
X155928710Y-94090138D01*
X155942086Y-94093005D01*
X156036438Y-94102672D01*
X156042854Y-94103000D01*
X156130385Y-94103000D01*
X156145624Y-94098525D01*
X156146829Y-94097135D01*
X156148500Y-94089452D01*
X156148500Y-94084884D01*
X156656500Y-94084884D01*
X156660975Y-94100123D01*
X156662365Y-94101328D01*
X156670048Y-94102999D01*
X156762095Y-94102999D01*
X156768614Y-94102662D01*
X156864206Y-94092743D01*
X156877600Y-94089851D01*
X157031784Y-94038412D01*
X157044962Y-94032239D01*
X157182807Y-93946937D01*
X157194208Y-93937901D01*
X157308739Y-93823171D01*
X157317751Y-93811760D01*
X157402816Y-93673757D01*
X157408963Y-93660576D01*
X157460138Y-93506290D01*
X157463005Y-93492914D01*
X157472672Y-93398562D01*
X157473000Y-93392146D01*
X157473000Y-92992115D01*
X157468525Y-92976876D01*
X157467135Y-92975671D01*
X157459452Y-92974000D01*
X156674615Y-92974000D01*
X156659376Y-92978475D01*
X156658171Y-92979865D01*
X156656500Y-92987548D01*
X156656500Y-94084884D01*
X156148500Y-94084884D01*
X156148500Y-92992115D01*
X156144025Y-92976876D01*
X156142635Y-92975671D01*
X156134952Y-92974000D01*
X155350116Y-92974000D01*
X155334877Y-92978475D01*
X155333672Y-92979865D01*
X155332001Y-92987548D01*
X155332001Y-93392095D01*
X155040500Y-93392095D01*
X155040500Y-92447885D01*
X155332000Y-92447885D01*
X155336475Y-92463124D01*
X155337865Y-92464329D01*
X155345548Y-92466000D01*
X156130385Y-92466000D01*
X156145624Y-92461525D01*
X156146829Y-92460135D01*
X156148500Y-92452452D01*
X156148500Y-92447885D01*
X156656500Y-92447885D01*
X156660975Y-92463124D01*
X156662365Y-92464329D01*
X156670048Y-92466000D01*
X157454884Y-92466000D01*
X157470123Y-92461525D01*
X157471328Y-92460135D01*
X157472999Y-92452452D01*
X157472999Y-92047905D01*
X157472662Y-92041386D01*
X157462743Y-91945794D01*
X157459851Y-91932400D01*
X157408412Y-91778216D01*
X157402239Y-91765038D01*
X157316937Y-91627193D01*
X157307901Y-91615792D01*
X157193171Y-91501261D01*
X157181760Y-91492249D01*
X157043757Y-91407184D01*
X157030576Y-91401037D01*
X156876290Y-91349862D01*
X156862914Y-91346995D01*
X156768562Y-91337328D01*
X156762145Y-91337000D01*
X156674615Y-91337000D01*
X156659376Y-91341475D01*
X156658171Y-91342865D01*
X156656500Y-91350548D01*
X156656500Y-92447885D01*
X156148500Y-92447885D01*
X156148500Y-91355116D01*
X156144025Y-91339877D01*
X156142635Y-91338672D01*
X156134952Y-91337001D01*
X156042905Y-91337001D01*
X156036386Y-91337338D01*
X155940794Y-91347257D01*
X155927400Y-91350149D01*
X155773216Y-91401588D01*
X155760038Y-91407761D01*
X155622193Y-91493063D01*
X155610792Y-91502099D01*
X155496261Y-91616829D01*
X155487249Y-91628240D01*
X155402184Y-91766243D01*
X155396037Y-91779424D01*
X155344862Y-91933710D01*
X155341995Y-91947086D01*
X155332328Y-92041438D01*
X155332000Y-92047855D01*
X155332000Y-92447885D01*
X155040500Y-92447885D01*
X155040500Y-92032862D01*
X155029051Y-91892098D01*
X154973537Y-91675887D01*
X154951436Y-91627614D01*
X154940000Y-91575163D01*
X154940000Y-86732160D01*
X154960002Y-86664039D01*
X155013658Y-86617546D01*
X155083932Y-86607442D01*
X155110230Y-86614178D01*
X155212395Y-86652478D01*
X155227649Y-86656105D01*
X155278514Y-86661631D01*
X155285328Y-86662000D01*
X156307885Y-86662000D01*
X156323124Y-86657525D01*
X156324329Y-86656135D01*
X156326000Y-86648452D01*
X156326000Y-86643884D01*
X156834000Y-86643884D01*
X156838475Y-86659123D01*
X156839865Y-86660328D01*
X156847548Y-86661999D01*
X157874669Y-86661999D01*
X157881490Y-86661629D01*
X157932352Y-86656105D01*
X157947604Y-86652479D01*
X158068054Y-86607324D01*
X158083649Y-86598786D01*
X158185724Y-86522285D01*
X158198285Y-86509724D01*
X158274786Y-86407649D01*
X158283324Y-86392054D01*
X158328478Y-86271606D01*
X158332105Y-86256351D01*
X158337631Y-86205486D01*
X158338000Y-86198672D01*
X158338000Y-84176115D01*
X158333525Y-84160876D01*
X158332135Y-84159671D01*
X158324452Y-84158000D01*
X156852115Y-84158000D01*
X156836876Y-84162475D01*
X156835671Y-84163865D01*
X156834000Y-84171548D01*
X156834000Y-86643884D01*
X156326000Y-86643884D01*
X156326000Y-83776000D01*
X156346002Y-83707879D01*
X156399658Y-83661386D01*
X156452000Y-83650000D01*
X158319884Y-83650000D01*
X158335123Y-83645525D01*
X158336328Y-83644135D01*
X158337999Y-83636452D01*
X158337999Y-81609331D01*
X158337629Y-81602510D01*
X158332105Y-81551648D01*
X158328479Y-81536396D01*
X158283324Y-81415946D01*
X158274786Y-81400351D01*
X158198285Y-81298276D01*
X158185725Y-81285716D01*
X158155184Y-81262827D01*
X158112668Y-81205967D01*
X158107642Y-81135149D01*
X158141702Y-81072856D01*
X158204033Y-81038865D01*
X158230748Y-81036000D01*
X161418000Y-81036000D01*
X161486121Y-81056002D01*
G37*
%TD.AperFunction*%
%TD*%
%TA.AperFunction,Conductor*%
%TO.N,GND1*%
G36*
X153876621Y-87660002D02*
G01*
X153923114Y-87713658D01*
X153934500Y-87766000D01*
X153934500Y-91211000D01*
X153914498Y-91279121D01*
X153860842Y-91325614D01*
X153808500Y-91337000D01*
X153749615Y-91337000D01*
X153734376Y-91341475D01*
X153733171Y-91342865D01*
X153731500Y-91350548D01*
X153731500Y-94084884D01*
X153735975Y-94100123D01*
X153737365Y-94101328D01*
X153745048Y-94102999D01*
X153808500Y-94102999D01*
X153876621Y-94123001D01*
X153923114Y-94176657D01*
X153934500Y-94228999D01*
X153934500Y-98436000D01*
X153957478Y-98649729D01*
X153968864Y-98702071D01*
X153993395Y-98793766D01*
X154074487Y-98980356D01*
X154191478Y-99146803D01*
X154237971Y-99200459D01*
X154239832Y-99202277D01*
X154239838Y-99202284D01*
X154350599Y-99310522D01*
X154357093Y-99316868D01*
X154361921Y-99320098D01*
X154376064Y-99329560D01*
X154421560Y-99384064D01*
X154432000Y-99434284D01*
X154432000Y-103134000D01*
X144526000Y-103134000D01*
X144526000Y-97800000D01*
X143107500Y-97800000D01*
X143107500Y-94042000D01*
X143084522Y-93828271D01*
X143073136Y-93775929D01*
X143048605Y-93684234D01*
X143044576Y-93674962D01*
X143011209Y-93598187D01*
X142967513Y-93497644D01*
X142893326Y-93392095D01*
X152407001Y-93392095D01*
X152407338Y-93398614D01*
X152417257Y-93494206D01*
X152420149Y-93507600D01*
X152471588Y-93661784D01*
X152477761Y-93674962D01*
X152563063Y-93812807D01*
X152572099Y-93824208D01*
X152686829Y-93938739D01*
X152698240Y-93947751D01*
X152836243Y-94032816D01*
X152849424Y-94038963D01*
X153003710Y-94090138D01*
X153017086Y-94093005D01*
X153111438Y-94102672D01*
X153117854Y-94103000D01*
X153205385Y-94103000D01*
X153220624Y-94098525D01*
X153221829Y-94097135D01*
X153223500Y-94089452D01*
X153223500Y-92992115D01*
X153219025Y-92976876D01*
X153217635Y-92975671D01*
X153209952Y-92974000D01*
X152425116Y-92974000D01*
X152409877Y-92978475D01*
X152408672Y-92979865D01*
X152407001Y-92987548D01*
X152407001Y-93392095D01*
X142893326Y-93392095D01*
X142850522Y-93331197D01*
X142804029Y-93277541D01*
X142802168Y-93275723D01*
X142802162Y-93275716D01*
X142748000Y-93222788D01*
X142748000Y-92447885D01*
X152407000Y-92447885D01*
X152411475Y-92463124D01*
X152412865Y-92464329D01*
X152420548Y-92466000D01*
X153205385Y-92466000D01*
X153220624Y-92461525D01*
X153221829Y-92460135D01*
X153223500Y-92452452D01*
X153223500Y-91355116D01*
X153219025Y-91339877D01*
X153217635Y-91338672D01*
X153209952Y-91337001D01*
X153117905Y-91337001D01*
X153111386Y-91337338D01*
X153015794Y-91347257D01*
X153002400Y-91350149D01*
X152848216Y-91401588D01*
X152835038Y-91407761D01*
X152697193Y-91493063D01*
X152685792Y-91502099D01*
X152571261Y-91616829D01*
X152562249Y-91628240D01*
X152477184Y-91766243D01*
X152471037Y-91779424D01*
X152419862Y-91933710D01*
X152416995Y-91947086D01*
X152407328Y-92041438D01*
X152407000Y-92047855D01*
X152407000Y-92447885D01*
X142748000Y-92447885D01*
X142748000Y-87640000D01*
X153808500Y-87640000D01*
X153876621Y-87660002D01*
G37*
%TD.AperFunction*%
%TD*%
%TA.AperFunction,Conductor*%
%TO.N,GND1*%
G36*
X154610832Y-120531502D02*
G01*
X154657325Y-120585158D01*
X154668706Y-120638656D01*
X154600429Y-128070260D01*
X154517636Y-137081971D01*
X154497009Y-137149905D01*
X154442928Y-137195903D01*
X154391397Y-137206813D01*
X134870842Y-137168663D01*
X118255114Y-137136190D01*
X118255113Y-137136190D01*
X118237000Y-137136155D01*
X116199404Y-137132173D01*
X116217700Y-133969771D01*
X116238096Y-133901768D01*
X116292019Y-133855586D01*
X116343698Y-133844500D01*
X129867718Y-133844500D01*
X129935839Y-133864502D01*
X129956813Y-133881405D01*
X130007625Y-133932217D01*
X130012231Y-133935418D01*
X130012233Y-133935420D01*
X130186319Y-134056413D01*
X130190925Y-134059614D01*
X130236660Y-134080553D01*
X130388782Y-134150200D01*
X130388784Y-134150201D01*
X130393887Y-134152537D01*
X130610098Y-134208051D01*
X130674232Y-134213267D01*
X130748311Y-134219293D01*
X130748323Y-134219293D01*
X130750862Y-134219500D01*
X131500138Y-134219500D01*
X131502677Y-134219293D01*
X131502689Y-134219293D01*
X131576768Y-134213267D01*
X131640902Y-134208051D01*
X131857113Y-134152537D01*
X131862216Y-134150201D01*
X131862218Y-134150200D01*
X132014340Y-134080553D01*
X132060075Y-134059614D01*
X132064681Y-134056413D01*
X132238767Y-133935420D01*
X132238769Y-133935418D01*
X132243375Y-133932217D01*
X132401217Y-133774375D01*
X132484535Y-133654496D01*
X132539837Y-133609974D01*
X132610431Y-133602419D01*
X132673903Y-133634228D01*
X132691464Y-133654495D01*
X132774783Y-133774375D01*
X132932625Y-133932217D01*
X132937231Y-133935418D01*
X132937233Y-133935420D01*
X133111319Y-134056413D01*
X133115925Y-134059614D01*
X133161660Y-134080553D01*
X133313782Y-134150200D01*
X133313784Y-134150201D01*
X133318887Y-134152537D01*
X133535098Y-134208051D01*
X133599232Y-134213267D01*
X133673311Y-134219293D01*
X133673323Y-134219293D01*
X133675862Y-134219500D01*
X134425138Y-134219500D01*
X134427677Y-134219293D01*
X134427689Y-134219293D01*
X134501768Y-134213267D01*
X134565902Y-134208051D01*
X134782113Y-134152537D01*
X134787216Y-134150201D01*
X134787218Y-134150200D01*
X134939340Y-134080553D01*
X134985075Y-134059614D01*
X134989681Y-134056413D01*
X135163767Y-133935420D01*
X135163769Y-133935418D01*
X135168375Y-133932217D01*
X135326217Y-133774375D01*
X135329419Y-133769767D01*
X135333022Y-133765459D01*
X135334368Y-133766584D01*
X135383466Y-133727064D01*
X135431618Y-133717500D01*
X137298268Y-133717500D01*
X137316021Y-133718757D01*
X137319588Y-133719265D01*
X137319593Y-133719265D01*
X137324706Y-133719993D01*
X137329868Y-133719876D01*
X137329871Y-133719876D01*
X137433150Y-133717532D01*
X137436009Y-133717500D01*
X137476554Y-133717500D01*
X137479109Y-133717290D01*
X137479133Y-133717289D01*
X137488839Y-133716491D01*
X137496298Y-133716099D01*
X137571382Y-133714395D01*
X137576454Y-133713437D01*
X137576460Y-133713436D01*
X137608847Y-133707316D01*
X137621916Y-133705549D01*
X137654759Y-133702849D01*
X137654764Y-133702848D01*
X137659911Y-133702425D01*
X137693273Y-133694045D01*
X137732746Y-133684131D01*
X137740045Y-133682526D01*
X137808753Y-133669543D01*
X137808754Y-133669543D01*
X137813833Y-133668583D01*
X137818684Y-133666808D01*
X137818687Y-133666807D01*
X137836414Y-133660320D01*
X137849637Y-133655481D01*
X137862236Y-133651605D01*
X137873657Y-133648736D01*
X137894206Y-133643575D01*
X137894210Y-133643574D01*
X137899217Y-133642316D01*
X137934267Y-133627076D01*
X137968087Y-133612371D01*
X137975027Y-133609595D01*
X137994636Y-133602419D01*
X138045545Y-133583789D01*
X138078723Y-133565017D01*
X138090528Y-133559131D01*
X138090998Y-133558927D01*
X138125493Y-133543928D01*
X138129828Y-133541124D01*
X138129831Y-133541122D01*
X138171594Y-133514104D01*
X138188545Y-133503138D01*
X138194927Y-133499273D01*
X138255795Y-133464836D01*
X138255803Y-133464831D01*
X138260297Y-133462288D01*
X138264319Y-133459043D01*
X138264326Y-133459038D01*
X138289977Y-133438341D01*
X138300651Y-133430614D01*
X138332661Y-133409905D01*
X138388203Y-133359365D01*
X138393871Y-133354508D01*
X138415326Y-133337197D01*
X138415334Y-133337190D01*
X138417945Y-133335083D01*
X138446703Y-133306325D01*
X138450999Y-133302226D01*
X138451895Y-133301411D01*
X138515158Y-133243846D01*
X138518357Y-133239795D01*
X138518361Y-133239791D01*
X138533037Y-133221207D01*
X138542824Y-133210204D01*
X143483174Y-128269853D01*
X143496616Y-128258188D01*
X143499493Y-128256028D01*
X143499496Y-128256026D01*
X143503636Y-128252917D01*
X143578588Y-128174484D01*
X143580587Y-128172440D01*
X143609246Y-128143781D01*
X143610906Y-128141823D01*
X143610913Y-128141816D01*
X143617218Y-128134381D01*
X143622219Y-128128827D01*
X143670531Y-128078271D01*
X143674104Y-128074532D01*
X143695591Y-128043034D01*
X143703581Y-128032545D01*
X143728239Y-128003469D01*
X143766807Y-127939026D01*
X143770835Y-127932730D01*
X143810232Y-127874976D01*
X143813149Y-127870700D01*
X143815325Y-127866013D01*
X143815328Y-127866007D01*
X143829204Y-127836113D01*
X143835370Y-127824468D01*
X143854951Y-127791750D01*
X143882474Y-127721878D01*
X143885419Y-127715007D01*
X143893735Y-127697091D01*
X143917035Y-127646896D01*
X143927224Y-127610156D01*
X143931404Y-127597662D01*
X143945381Y-127562178D01*
X143948083Y-127549576D01*
X143961119Y-127488771D01*
X143962901Y-127481513D01*
X143981594Y-127414105D01*
X143982974Y-127409129D01*
X143987025Y-127371220D01*
X143989112Y-127358198D01*
X143996018Y-127325984D01*
X143996019Y-127325976D01*
X143997103Y-127320920D01*
X143998472Y-127291913D01*
X144000641Y-127245915D01*
X144001214Y-127238466D01*
X144004143Y-127211050D01*
X144004143Y-127211048D01*
X144004500Y-127207708D01*
X144004500Y-127167032D01*
X144004640Y-127161097D01*
X144008482Y-127079620D01*
X144008726Y-127074454D01*
X144005361Y-127045810D01*
X144004500Y-127031109D01*
X144004500Y-124300951D01*
X144024502Y-124232830D01*
X144078158Y-124186337D01*
X144148432Y-124176233D01*
X144202771Y-124197738D01*
X144382993Y-124323931D01*
X144392489Y-124329414D01*
X144589947Y-124421490D01*
X144600239Y-124425236D01*
X144772503Y-124471394D01*
X144786599Y-124471058D01*
X144790000Y-124463116D01*
X144790000Y-123062000D01*
X144810002Y-122993879D01*
X144863658Y-122947386D01*
X144916000Y-122936000D01*
X145172000Y-122936000D01*
X145240121Y-122956002D01*
X145286614Y-123009658D01*
X145298000Y-123062000D01*
X145298000Y-124457967D01*
X145301973Y-124471498D01*
X145310522Y-124472727D01*
X145487761Y-124425236D01*
X145498053Y-124421490D01*
X145695511Y-124329414D01*
X145705007Y-124323931D01*
X145883467Y-124198972D01*
X145891875Y-124191916D01*
X145899469Y-124184322D01*
X145961781Y-124150296D01*
X146032596Y-124155361D01*
X146089521Y-124198027D01*
X146150824Y-124280122D01*
X146217288Y-124369127D01*
X146221335Y-124374547D01*
X146224642Y-124377825D01*
X146224647Y-124377831D01*
X146408074Y-124559663D01*
X146411390Y-124562950D01*
X146627205Y-124721192D01*
X146631340Y-124723368D01*
X146631344Y-124723370D01*
X146760918Y-124791542D01*
X146864039Y-124845797D01*
X146868458Y-124847340D01*
X147112273Y-124932484D01*
X147112279Y-124932486D01*
X147116690Y-124934026D01*
X147121283Y-124934898D01*
X147360413Y-124980299D01*
X147379606Y-124983943D01*
X147506616Y-124988933D01*
X147642345Y-124994266D01*
X147642350Y-124994266D01*
X147647013Y-124994449D01*
X147742943Y-124983943D01*
X147908382Y-124965825D01*
X147908387Y-124965824D01*
X147913035Y-124965315D01*
X148028567Y-124934898D01*
X148167309Y-124898370D01*
X148171829Y-124897180D01*
X148296501Y-124843617D01*
X148413407Y-124793391D01*
X148413410Y-124793389D01*
X148417710Y-124791542D01*
X148421690Y-124789079D01*
X148421694Y-124789077D01*
X148641302Y-124653179D01*
X148641306Y-124653176D01*
X148645275Y-124650720D01*
X148659010Y-124639092D01*
X148845960Y-124480828D01*
X148845961Y-124480827D01*
X148849526Y-124477809D01*
X148871920Y-124452274D01*
X149022894Y-124280122D01*
X149022898Y-124280117D01*
X149025976Y-124276607D01*
X149054134Y-124232830D01*
X149168219Y-124055465D01*
X149168222Y-124055460D01*
X149170747Y-124051534D01*
X149280661Y-123807534D01*
X149353302Y-123549969D01*
X149387075Y-123284495D01*
X149389549Y-123190000D01*
X149374975Y-122993879D01*
X149370064Y-122927788D01*
X149370063Y-122927784D01*
X149369717Y-122923123D01*
X149359161Y-122876470D01*
X149311686Y-122666666D01*
X149310655Y-122662109D01*
X149213662Y-122412691D01*
X149190704Y-122372523D01*
X149174267Y-122303456D01*
X149197780Y-122236466D01*
X149253778Y-122192823D01*
X149300097Y-122184000D01*
X149479000Y-122184000D01*
X149479000Y-120637500D01*
X149499002Y-120569379D01*
X149552658Y-120522886D01*
X149605000Y-120511500D01*
X154542711Y-120511500D01*
X154610832Y-120531502D01*
G37*
%TD.AperFunction*%
%TA.AperFunction,Conductor*%
G36*
X100607426Y-59435651D02*
G01*
X138904155Y-59699767D01*
X138967171Y-59717160D01*
X147268385Y-64600227D01*
X147316959Y-64652006D01*
X147330500Y-64708831D01*
X147330500Y-81794529D01*
X147310498Y-81862650D01*
X147256842Y-81909143D01*
X147186568Y-81919247D01*
X147121988Y-81889753D01*
X147105550Y-81872535D01*
X146982660Y-81716650D01*
X146976366Y-81709782D01*
X146792856Y-81537152D01*
X146785602Y-81531278D01*
X146578597Y-81387673D01*
X146570562Y-81382940D01*
X146344593Y-81271505D01*
X146335960Y-81268017D01*
X146096006Y-81191207D01*
X146086924Y-81189027D01*
X145951880Y-81167033D01*
X145938286Y-81168729D01*
X145934000Y-81182839D01*
X145934000Y-86625606D01*
X145938018Y-86639290D01*
X145951710Y-86641311D01*
X146041904Y-86629036D01*
X146051022Y-86627098D01*
X146292902Y-86556596D01*
X146301633Y-86553333D01*
X146530442Y-86447849D01*
X146538594Y-86443330D01*
X146749291Y-86305192D01*
X146756696Y-86299509D01*
X146944654Y-86131751D01*
X146951133Y-86125041D01*
X147107626Y-85936880D01*
X147166564Y-85897297D01*
X147237546Y-85895861D01*
X147298036Y-85933028D01*
X147328829Y-85996999D01*
X147330500Y-86017450D01*
X147330500Y-86498000D01*
X147353478Y-86711729D01*
X147364864Y-86764071D01*
X147389395Y-86855766D01*
X147470487Y-87042356D01*
X147587478Y-87208803D01*
X147633971Y-87262459D01*
X147635839Y-87264284D01*
X147692125Y-87319289D01*
X147726865Y-87381205D01*
X147730058Y-87408535D01*
X147731530Y-87621883D01*
X147731655Y-87640000D01*
X147828000Y-101610000D01*
X154432000Y-101597008D01*
X154562698Y-101596751D01*
X154716240Y-101596449D01*
X154784400Y-101616317D01*
X154830998Y-101669881D01*
X154842483Y-101723607D01*
X154696295Y-117635658D01*
X154675668Y-117703592D01*
X154621587Y-117749590D01*
X154570300Y-117760500D01*
X149605000Y-117760500D01*
X149536879Y-117740498D01*
X149490386Y-117686842D01*
X149479000Y-117634500D01*
X149479000Y-116596000D01*
X148704404Y-116596000D01*
X148636283Y-116575998D01*
X148589790Y-116522342D01*
X148579686Y-116452068D01*
X148601191Y-116397729D01*
X148717931Y-116231007D01*
X148723414Y-116221511D01*
X148815490Y-116024053D01*
X148819236Y-116013761D01*
X148865394Y-115841497D01*
X148865058Y-115827401D01*
X148857116Y-115824000D01*
X147456000Y-115824000D01*
X147387879Y-115803998D01*
X147341386Y-115750342D01*
X147330000Y-115698000D01*
X147330000Y-115297885D01*
X147838000Y-115297885D01*
X147842475Y-115313124D01*
X147843865Y-115314329D01*
X147851548Y-115316000D01*
X148851967Y-115316000D01*
X148865498Y-115312027D01*
X148866727Y-115303478D01*
X148819236Y-115126239D01*
X148815490Y-115115947D01*
X148723414Y-114918489D01*
X148717931Y-114908993D01*
X148592972Y-114730533D01*
X148585916Y-114722125D01*
X148431875Y-114568084D01*
X148423467Y-114561028D01*
X148245007Y-114436069D01*
X148235511Y-114430586D01*
X148038053Y-114338510D01*
X148027761Y-114334764D01*
X147855497Y-114288606D01*
X147841401Y-114288942D01*
X147838000Y-114296884D01*
X147838000Y-115297885D01*
X147330000Y-115297885D01*
X147330000Y-114302033D01*
X147326027Y-114288502D01*
X147317478Y-114287273D01*
X147140239Y-114334764D01*
X147129947Y-114338510D01*
X146932489Y-114430586D01*
X146922993Y-114436069D01*
X146744533Y-114561028D01*
X146736125Y-114568084D01*
X146730467Y-114573742D01*
X146668155Y-114607768D01*
X146597340Y-114602703D01*
X146542214Y-114559289D01*
X146540868Y-114560350D01*
X146375190Y-114350189D01*
X146180269Y-114166825D01*
X146176437Y-114164167D01*
X146176430Y-114164161D01*
X146153174Y-114148028D01*
X146108604Y-114092765D01*
X146100986Y-114022178D01*
X146132740Y-113958678D01*
X146193783Y-113922426D01*
X146224993Y-113918500D01*
X150369168Y-113918500D01*
X150372506Y-113918142D01*
X150372511Y-113918142D01*
X150578905Y-113896022D01*
X150578912Y-113896021D01*
X150582251Y-113895663D01*
X150585537Y-113894950D01*
X150585546Y-113894949D01*
X150633009Y-113884657D01*
X150633028Y-113884652D01*
X150634441Y-113884346D01*
X150725508Y-113860079D01*
X150912206Y-113779236D01*
X151078808Y-113662465D01*
X151132525Y-113616044D01*
X151249088Y-113497083D01*
X151304740Y-113414138D01*
X151358879Y-113333446D01*
X151362441Y-113328137D01*
X151439466Y-113139832D01*
X151459559Y-113071738D01*
X151479815Y-112990886D01*
X151500667Y-112788508D01*
X151511362Y-104760566D01*
X151511102Y-104736318D01*
X151495309Y-104609739D01*
X151486307Y-104537588D01*
X151486305Y-104537579D01*
X151485913Y-104534434D01*
X151473245Y-104479204D01*
X151472781Y-104477583D01*
X151472776Y-104477565D01*
X151444964Y-104380479D01*
X151443621Y-104375789D01*
X151441574Y-104371371D01*
X151441572Y-104371365D01*
X151360782Y-104196981D01*
X151360781Y-104196980D01*
X151358098Y-104191188D01*
X151354305Y-104186057D01*
X151354303Y-104186053D01*
X151239061Y-104030144D01*
X151239056Y-104030138D01*
X151237166Y-104027581D01*
X151189406Y-103975051D01*
X151187504Y-103973279D01*
X151187497Y-103973272D01*
X151071799Y-103865485D01*
X151071796Y-103865483D01*
X151067550Y-103861527D01*
X150895802Y-103752467D01*
X150889835Y-103750200D01*
X150889831Y-103750198D01*
X150708596Y-103681343D01*
X150708593Y-103681342D01*
X150705616Y-103680211D01*
X150702541Y-103679387D01*
X150702537Y-103679386D01*
X150674203Y-103671796D01*
X150637037Y-103661840D01*
X150627732Y-103659756D01*
X150560091Y-103644611D01*
X150560086Y-103644610D01*
X150555699Y-103643628D01*
X150551215Y-103643280D01*
X150551209Y-103643279D01*
X150453690Y-103635709D01*
X150352860Y-103627881D01*
X150349668Y-103627957D01*
X150349661Y-103627957D01*
X143236507Y-103797760D01*
X143167928Y-103779389D01*
X143120168Y-103726859D01*
X143107500Y-103671796D01*
X143107500Y-94042000D01*
X143084522Y-93828271D01*
X143073136Y-93775929D01*
X143048605Y-93684234D01*
X142967513Y-93497644D01*
X142850522Y-93331197D01*
X142804029Y-93277541D01*
X142802168Y-93275723D01*
X142802162Y-93275716D01*
X142689063Y-93165193D01*
X142689061Y-93165191D01*
X142684907Y-93161132D01*
X142680080Y-93157903D01*
X142680078Y-93157901D01*
X142521120Y-93051556D01*
X142521117Y-93051554D01*
X142515810Y-93048004D01*
X142327401Y-92971231D01*
X142259280Y-92951229D01*
X142257999Y-92950910D01*
X142257992Y-92950908D01*
X142217169Y-92940739D01*
X142178406Y-92931083D01*
X142099498Y-92923059D01*
X141979179Y-92910823D01*
X141979174Y-92910823D01*
X141976000Y-92910500D01*
X140929786Y-92910500D01*
X140928762Y-92910534D01*
X140928737Y-92910534D01*
X140868116Y-92912523D01*
X140868113Y-92912523D01*
X140863886Y-92912662D01*
X140859724Y-92913363D01*
X140859717Y-92913364D01*
X140666413Y-92945935D01*
X140666405Y-92945937D01*
X140663264Y-92946466D01*
X140660190Y-92947311D01*
X140660181Y-92947313D01*
X140615082Y-92959711D01*
X140598858Y-92964171D01*
X140596661Y-92964954D01*
X140596659Y-92964955D01*
X140463570Y-93012410D01*
X140463566Y-93012412D01*
X140458352Y-93014271D01*
X140453541Y-93017014D01*
X140453540Y-93017014D01*
X140337904Y-93082932D01*
X140268818Y-93099290D01*
X140205443Y-93078193D01*
X140165628Y-93051556D01*
X140165625Y-93051554D01*
X140160318Y-93048004D01*
X139971909Y-92971231D01*
X139903788Y-92951229D01*
X139902507Y-92950910D01*
X139902500Y-92950908D01*
X139861677Y-92940739D01*
X139822914Y-92931083D01*
X139744006Y-92923059D01*
X139623687Y-92910823D01*
X139623682Y-92910823D01*
X139620508Y-92910500D01*
X139432740Y-92910500D01*
X139346587Y-92919218D01*
X139234447Y-92930566D01*
X139234439Y-92930567D01*
X139231299Y-92930885D01*
X139228210Y-92931517D01*
X139228201Y-92931518D01*
X139183107Y-92940739D01*
X139183084Y-92940744D01*
X139181838Y-92940999D01*
X139101896Y-92960788D01*
X139097748Y-92962469D01*
X139097744Y-92962470D01*
X138919262Y-93034789D01*
X138919257Y-93034792D01*
X138913338Y-93037190D01*
X138744018Y-93149985D01*
X138689217Y-93195122D01*
X138569873Y-93311289D01*
X138452553Y-93477505D01*
X138371093Y-93663934D01*
X138349394Y-93731533D01*
X138327229Y-93811888D01*
X138320503Y-93864837D01*
X138318593Y-93879877D01*
X138290166Y-93944934D01*
X138231080Y-93984296D01*
X138193597Y-93990000D01*
X138038000Y-93990000D01*
X138038000Y-94019516D01*
X138017998Y-94087637D01*
X137964342Y-94134130D01*
X137894068Y-94144234D01*
X137872333Y-94139109D01*
X137811293Y-94118863D01*
X137797914Y-94115995D01*
X137703562Y-94106328D01*
X137697145Y-94106000D01*
X137597115Y-94106000D01*
X137581876Y-94110475D01*
X137580671Y-94111865D01*
X137579000Y-94119548D01*
X137579000Y-96903884D01*
X137583475Y-96919123D01*
X137584865Y-96920328D01*
X137592548Y-96921999D01*
X137697095Y-96921999D01*
X137703614Y-96921662D01*
X137799206Y-96911743D01*
X137812603Y-96908850D01*
X137872125Y-96888993D01*
X137943074Y-96886409D01*
X138004158Y-96922593D01*
X138035982Y-96986058D01*
X138038000Y-97008517D01*
X138038000Y-97829516D01*
X138017998Y-97897637D01*
X137964342Y-97944130D01*
X137894068Y-97954234D01*
X137872333Y-97949109D01*
X137811293Y-97928863D01*
X137797914Y-97925995D01*
X137703562Y-97916328D01*
X137697145Y-97916000D01*
X137597115Y-97916000D01*
X137581876Y-97920475D01*
X137580671Y-97921865D01*
X137579000Y-97929548D01*
X137579000Y-100713884D01*
X137583475Y-100729123D01*
X137584865Y-100730328D01*
X137592548Y-100731999D01*
X137697095Y-100731999D01*
X137703614Y-100731662D01*
X137799206Y-100721743D01*
X137812603Y-100718850D01*
X137872125Y-100698993D01*
X137943074Y-100696409D01*
X138004158Y-100732593D01*
X138035982Y-100796058D01*
X138038000Y-100818517D01*
X138038000Y-101426120D01*
X138017998Y-101494241D01*
X137964342Y-101540734D01*
X137894068Y-101550838D01*
X137858750Y-101540315D01*
X137849576Y-101536037D01*
X137695290Y-101484862D01*
X137681914Y-101481995D01*
X137587562Y-101472328D01*
X137581145Y-101472000D01*
X137481115Y-101472000D01*
X137465876Y-101476475D01*
X137464671Y-101477865D01*
X137463000Y-101485548D01*
X137463000Y-104269884D01*
X137467475Y-104285123D01*
X137468865Y-104286328D01*
X137476548Y-104287999D01*
X137581095Y-104287999D01*
X137587614Y-104287662D01*
X137683206Y-104277743D01*
X137696600Y-104274851D01*
X137850792Y-104223409D01*
X137869048Y-104214857D01*
X137939221Y-104204071D01*
X138004085Y-104232936D01*
X138043046Y-104292287D01*
X138048500Y-104328957D01*
X138048500Y-104796500D01*
X138028498Y-104864621D01*
X137974842Y-104911114D01*
X137922500Y-104922500D01*
X133066517Y-104922500D01*
X133065118Y-104922563D01*
X133065106Y-104922563D01*
X133028484Y-104924205D01*
X132976533Y-104926535D01*
X132975145Y-104926660D01*
X132975126Y-104926661D01*
X132958365Y-104928167D01*
X132954074Y-104928553D01*
X132783507Y-104958862D01*
X132700087Y-104990591D01*
X132596320Y-105030059D01*
X132596310Y-105030063D01*
X132593348Y-105031190D01*
X132529883Y-105063014D01*
X132527658Y-105064371D01*
X132525368Y-105065641D01*
X132524970Y-105064924D01*
X132459588Y-105082485D01*
X132435393Y-105079143D01*
X132435388Y-105079171D01*
X132434404Y-105079006D01*
X132431176Y-105078560D01*
X132424902Y-105076949D01*
X132377815Y-105073119D01*
X132286689Y-105065707D01*
X132286677Y-105065707D01*
X132284138Y-105065500D01*
X130859862Y-105065500D01*
X130857323Y-105065707D01*
X130857311Y-105065707D01*
X130783232Y-105071733D01*
X130719098Y-105076949D01*
X130502887Y-105132463D01*
X130497784Y-105134799D01*
X130497782Y-105134800D01*
X130426085Y-105167626D01*
X130299925Y-105225386D01*
X130295321Y-105228586D01*
X130295319Y-105228587D01*
X130121233Y-105349580D01*
X130121231Y-105349582D01*
X130116625Y-105352783D01*
X129958783Y-105510625D01*
X129955582Y-105515231D01*
X129955580Y-105515233D01*
X129834877Y-105688902D01*
X129831386Y-105693925D01*
X129738463Y-105896887D01*
X129737066Y-105902328D01*
X129719471Y-105970855D01*
X129683157Y-106031861D01*
X129647651Y-106055079D01*
X129502644Y-106118099D01*
X129336197Y-106235090D01*
X129282541Y-106281583D01*
X129280723Y-106283444D01*
X129280716Y-106283450D01*
X129204915Y-106361018D01*
X129166132Y-106400705D01*
X129053004Y-106569802D01*
X128976231Y-106758211D01*
X128956229Y-106826332D01*
X128936083Y-106907206D01*
X128915500Y-107109612D01*
X128915500Y-108479650D01*
X128895498Y-108547771D01*
X128841842Y-108594264D01*
X128789493Y-108605650D01*
X127689090Y-108605578D01*
X126621448Y-108605508D01*
X126618073Y-108605508D01*
X126614726Y-108605868D01*
X126614720Y-108605868D01*
X126407654Y-108628120D01*
X126407652Y-108628120D01*
X126404305Y-108628480D01*
X126401013Y-108629196D01*
X126401007Y-108629197D01*
X126358852Y-108638366D01*
X126351956Y-108639866D01*
X126350511Y-108640252D01*
X126350505Y-108640254D01*
X126264752Y-108663194D01*
X126264747Y-108663196D01*
X126260234Y-108664403D01*
X126073644Y-108745495D01*
X125907197Y-108862486D01*
X125853541Y-108908979D01*
X125851723Y-108910840D01*
X125851716Y-108910846D01*
X125741193Y-109023945D01*
X125737132Y-109028101D01*
X125733903Y-109032928D01*
X125733901Y-109032930D01*
X125670835Y-109127198D01*
X125624004Y-109197198D01*
X125547231Y-109385607D01*
X125527229Y-109453728D01*
X125507083Y-109534602D01*
X125486500Y-109737008D01*
X125486500Y-110065001D01*
X125486860Y-110068345D01*
X125486860Y-110068354D01*
X125489957Y-110097161D01*
X125477351Y-110167029D01*
X125428972Y-110218990D01*
X125360180Y-110236548D01*
X125342482Y-110233916D01*
X125342357Y-110234615D01*
X125239837Y-110216353D01*
X125226540Y-110217813D01*
X125222000Y-110232370D01*
X125222000Y-113167096D01*
X125225918Y-113180440D01*
X125240194Y-113182427D01*
X125302515Y-113172890D01*
X125312543Y-113170501D01*
X125519015Y-113103016D01*
X125589979Y-113100865D01*
X125650841Y-113137421D01*
X125669821Y-113164405D01*
X125712969Y-113246939D01*
X125712972Y-113246943D01*
X125715927Y-113252596D01*
X125719958Y-113257539D01*
X125719959Y-113257540D01*
X125781866Y-113333446D01*
X125844391Y-113410109D01*
X126001904Y-113538573D01*
X126182030Y-113632741D01*
X126377413Y-113688766D01*
X126409045Y-113691589D01*
X126494891Y-113699251D01*
X126494897Y-113699251D01*
X126497684Y-113699500D01*
X128391020Y-113699500D01*
X128461080Y-113720774D01*
X128551096Y-113780996D01*
X128739505Y-113857769D01*
X128807626Y-113877771D01*
X128808907Y-113878090D01*
X128808914Y-113878092D01*
X128835269Y-113884657D01*
X128888500Y-113897917D01*
X128967408Y-113905941D01*
X129087727Y-113918177D01*
X129087732Y-113918177D01*
X129090906Y-113918500D01*
X136536500Y-113918500D01*
X136604621Y-113938502D01*
X136651114Y-113992158D01*
X136662500Y-114044500D01*
X136662500Y-116523000D01*
X136685478Y-116736729D01*
X136696864Y-116789071D01*
X136721395Y-116880766D01*
X136802487Y-117067356D01*
X136919478Y-117233803D01*
X136965971Y-117287459D01*
X136967832Y-117289277D01*
X136967838Y-117289284D01*
X137080937Y-117399807D01*
X137085093Y-117403868D01*
X137089920Y-117407097D01*
X137089922Y-117407099D01*
X137248880Y-117513444D01*
X137248883Y-117513446D01*
X137254190Y-117516996D01*
X137442599Y-117593769D01*
X137510720Y-117613771D01*
X137512001Y-117614090D01*
X137512008Y-117614092D01*
X137548418Y-117623162D01*
X137591594Y-117633917D01*
X137670502Y-117641941D01*
X137790821Y-117654177D01*
X137790826Y-117654177D01*
X137794000Y-117654500D01*
X138685000Y-117654500D01*
X138753121Y-117674502D01*
X138799614Y-117728158D01*
X138811000Y-117780500D01*
X138811000Y-121369249D01*
X138790998Y-121437370D01*
X138743376Y-121480910D01*
X138616061Y-121547469D01*
X138616057Y-121547472D01*
X138610404Y-121550427D01*
X138452891Y-121678891D01*
X138324427Y-121836404D01*
X138230259Y-122016530D01*
X138174234Y-122211913D01*
X138163500Y-122332184D01*
X138163500Y-124047816D01*
X138163749Y-124050603D01*
X138163749Y-124050609D01*
X138171411Y-124136455D01*
X138174234Y-124168087D01*
X138230259Y-124363470D01*
X138324427Y-124543596D01*
X138328458Y-124548539D01*
X138328459Y-124548540D01*
X138342465Y-124565713D01*
X138452891Y-124701109D01*
X138610404Y-124829573D01*
X138616057Y-124832528D01*
X138616058Y-124832529D01*
X138644389Y-124847340D01*
X138790530Y-124923741D01*
X138985913Y-124979766D01*
X139017545Y-124982589D01*
X139103391Y-124990251D01*
X139103397Y-124990251D01*
X139106184Y-124990500D01*
X140821816Y-124990500D01*
X140824603Y-124990251D01*
X140824609Y-124990251D01*
X140866299Y-124986530D01*
X140935928Y-125000397D01*
X140987007Y-125049707D01*
X141003500Y-125112031D01*
X141003500Y-126453282D01*
X140983498Y-126521403D01*
X140966595Y-126542377D01*
X136829378Y-130679595D01*
X136767066Y-130713621D01*
X136740283Y-130716500D01*
X135151340Y-130716500D01*
X135079430Y-130693965D01*
X134989681Y-130631587D01*
X134989679Y-130631586D01*
X134985075Y-130628386D01*
X134858915Y-130570626D01*
X134787218Y-130537800D01*
X134787216Y-130537799D01*
X134782113Y-130535463D01*
X134565902Y-130479949D01*
X134501768Y-130474733D01*
X134427689Y-130468707D01*
X134427677Y-130468707D01*
X134425138Y-130468500D01*
X133675862Y-130468500D01*
X133673323Y-130468707D01*
X133673311Y-130468707D01*
X133599232Y-130474733D01*
X133535098Y-130479949D01*
X133318887Y-130535463D01*
X133313784Y-130537799D01*
X133313782Y-130537800D01*
X133242085Y-130570626D01*
X133115925Y-130628386D01*
X133111321Y-130631586D01*
X133111319Y-130631587D01*
X132937233Y-130752580D01*
X132937231Y-130752582D01*
X132932625Y-130755783D01*
X132778313Y-130910095D01*
X132716001Y-130944121D01*
X132689218Y-130947000D01*
X132486782Y-130947000D01*
X132418661Y-130926998D01*
X132397687Y-130910095D01*
X132243375Y-130755783D01*
X132238769Y-130752582D01*
X132238767Y-130752580D01*
X132064681Y-130631587D01*
X132064679Y-130631586D01*
X132060075Y-130628386D01*
X131933915Y-130570626D01*
X131862218Y-130537800D01*
X131862216Y-130537799D01*
X131857113Y-130535463D01*
X131640902Y-130479949D01*
X131576768Y-130474733D01*
X131502689Y-130468707D01*
X131502677Y-130468707D01*
X131500138Y-130468500D01*
X130750862Y-130468500D01*
X130748323Y-130468707D01*
X130748311Y-130468707D01*
X130674232Y-130474733D01*
X130610098Y-130479949D01*
X130393887Y-130535463D01*
X130388784Y-130537799D01*
X130388782Y-130537800D01*
X130317085Y-130570626D01*
X130190925Y-130628386D01*
X130186321Y-130631586D01*
X130186319Y-130631587D01*
X130012233Y-130752580D01*
X130012231Y-130752582D01*
X130007625Y-130755783D01*
X129956813Y-130806595D01*
X129894501Y-130840621D01*
X129867718Y-130843500D01*
X116362519Y-130843500D01*
X116294398Y-130823498D01*
X116247905Y-130769842D01*
X116236521Y-130716771D01*
X116324563Y-115499255D01*
X116344959Y-115431251D01*
X116398883Y-115385069D01*
X116449545Y-115373988D01*
X123577822Y-115316502D01*
X123577829Y-115316502D01*
X123581125Y-115316475D01*
X123584404Y-115316102D01*
X123584411Y-115316102D01*
X123787407Y-115293035D01*
X123787409Y-115293035D01*
X123790706Y-115292660D01*
X123793934Y-115291944D01*
X123793941Y-115291943D01*
X123821920Y-115285738D01*
X123842032Y-115281278D01*
X123843355Y-115280921D01*
X123843368Y-115280918D01*
X123925316Y-115258817D01*
X123929766Y-115257617D01*
X124116356Y-115176525D01*
X124282803Y-115059534D01*
X124336459Y-115013041D01*
X124338277Y-115011180D01*
X124338284Y-115011174D01*
X124448807Y-114898075D01*
X124448809Y-114898073D01*
X124452868Y-114893919D01*
X124456099Y-114889090D01*
X124562444Y-114730132D01*
X124562446Y-114730129D01*
X124565996Y-114724822D01*
X124633015Y-114560350D01*
X124641567Y-114539363D01*
X124641567Y-114539362D01*
X124642769Y-114536413D01*
X124662771Y-114468292D01*
X124682917Y-114387418D01*
X124702544Y-114194411D01*
X124703177Y-114188191D01*
X124703177Y-114188186D01*
X124703500Y-114185012D01*
X124703500Y-113292055D01*
X124701331Y-113250041D01*
X124700553Y-113234974D01*
X124706100Y-113190961D01*
X124714000Y-113165632D01*
X124714000Y-110230904D01*
X124704011Y-110196885D01*
X124699554Y-110148639D01*
X124703176Y-110113025D01*
X124703177Y-110113001D01*
X124703500Y-110109827D01*
X124703500Y-109987452D01*
X124683475Y-109787777D01*
X124673537Y-109738729D01*
X124654381Y-109660453D01*
X124578650Y-109471624D01*
X124466457Y-109301905D01*
X124421515Y-109246944D01*
X124305784Y-109127198D01*
X124173235Y-109032930D01*
X124145194Y-109012987D01*
X124145191Y-109012985D01*
X124139988Y-109009285D01*
X123953851Y-108927160D01*
X123950834Y-108926180D01*
X123950827Y-108926177D01*
X123887565Y-108905621D01*
X123887552Y-108905617D01*
X123886330Y-108905220D01*
X123885089Y-108904873D01*
X123885076Y-108904869D01*
X123810389Y-108883981D01*
X123810386Y-108883980D01*
X123806051Y-108882768D01*
X123604316Y-108856413D01*
X123158515Y-108843676D01*
X120380901Y-108764315D01*
X120313380Y-108742375D01*
X120268438Y-108687414D01*
X120258500Y-108638366D01*
X120258500Y-108326246D01*
X120246875Y-108173790D01*
X120241082Y-108136025D01*
X120235619Y-108103894D01*
X120178229Y-107908707D01*
X120082723Y-107729067D01*
X120043224Y-107670073D01*
X119939414Y-107539822D01*
X119935030Y-107536026D01*
X119935027Y-107536023D01*
X119864579Y-107475026D01*
X119785607Y-107406649D01*
X119780037Y-107403526D01*
X119780032Y-107403523D01*
X119693887Y-107355231D01*
X119644247Y-107304473D01*
X119629500Y-107245323D01*
X119629500Y-107142862D01*
X119618051Y-107002098D01*
X119562537Y-106785887D01*
X119548516Y-106755261D01*
X119471949Y-106588026D01*
X119469614Y-106582925D01*
X119466413Y-106578319D01*
X119345420Y-106404233D01*
X119345418Y-106404231D01*
X119342217Y-106399625D01*
X119184375Y-106241783D01*
X119179769Y-106238582D01*
X119179767Y-106238580D01*
X119005681Y-106117587D01*
X119005679Y-106117586D01*
X119001075Y-106114386D01*
X118832064Y-106037007D01*
X118803218Y-106023800D01*
X118803216Y-106023799D01*
X118798113Y-106021463D01*
X118581902Y-105965949D01*
X118517768Y-105960733D01*
X118443689Y-105954707D01*
X118443677Y-105954707D01*
X118441138Y-105954500D01*
X117319822Y-105954500D01*
X117251701Y-105934498D01*
X117223676Y-105909936D01*
X117218332Y-105903626D01*
X117218325Y-105903618D01*
X117216634Y-105901622D01*
X117193117Y-105878118D01*
X117159076Y-105815817D01*
X117164121Y-105745000D01*
X117206652Y-105688153D01*
X117273166Y-105663324D01*
X117282189Y-105663000D01*
X117456885Y-105663000D01*
X117472124Y-105658525D01*
X117473329Y-105657135D01*
X117475000Y-105649452D01*
X117475000Y-105644884D01*
X117983000Y-105644884D01*
X117987475Y-105660123D01*
X117988865Y-105661328D01*
X117996548Y-105662999D01*
X118426095Y-105662999D01*
X118432614Y-105662662D01*
X118528206Y-105652743D01*
X118541600Y-105649851D01*
X118695784Y-105598412D01*
X118708962Y-105592239D01*
X118846807Y-105506937D01*
X118858208Y-105497901D01*
X118972739Y-105383171D01*
X118981751Y-105371760D01*
X119066816Y-105233757D01*
X119072963Y-105220576D01*
X119124138Y-105066290D01*
X119127005Y-105052914D01*
X119136672Y-104958562D01*
X119137000Y-104952146D01*
X119137000Y-104852115D01*
X119132525Y-104836876D01*
X119131135Y-104835671D01*
X119123452Y-104834000D01*
X118001115Y-104834000D01*
X117985876Y-104838475D01*
X117984671Y-104839865D01*
X117983000Y-104847548D01*
X117983000Y-105644884D01*
X117475000Y-105644884D01*
X117475000Y-104307885D01*
X117983000Y-104307885D01*
X117987475Y-104323124D01*
X117988865Y-104324329D01*
X117996548Y-104326000D01*
X119118884Y-104326000D01*
X119134123Y-104321525D01*
X119135328Y-104320135D01*
X119136999Y-104312452D01*
X119136999Y-104207905D01*
X119136662Y-104201386D01*
X119126743Y-104105794D01*
X119123851Y-104092400D01*
X119114074Y-104063095D01*
X130164001Y-104063095D01*
X130164338Y-104069614D01*
X130174257Y-104165206D01*
X130177149Y-104178600D01*
X130228588Y-104332784D01*
X130234761Y-104345962D01*
X130320063Y-104483807D01*
X130329099Y-104495208D01*
X130443829Y-104609739D01*
X130455240Y-104618751D01*
X130593243Y-104703816D01*
X130606424Y-104709963D01*
X130760710Y-104761138D01*
X130774086Y-104764005D01*
X130868438Y-104773672D01*
X130874854Y-104774000D01*
X131299885Y-104774000D01*
X131315124Y-104769525D01*
X131316329Y-104768135D01*
X131318000Y-104760452D01*
X131318000Y-104755884D01*
X131826000Y-104755884D01*
X131830475Y-104771123D01*
X131831865Y-104772328D01*
X131839548Y-104773999D01*
X132269095Y-104773999D01*
X132275614Y-104773662D01*
X132371206Y-104763743D01*
X132384600Y-104760851D01*
X132538784Y-104709412D01*
X132551962Y-104703239D01*
X132689807Y-104617937D01*
X132701208Y-104608901D01*
X132815739Y-104494171D01*
X132824751Y-104482760D01*
X132909816Y-104344757D01*
X132915963Y-104331576D01*
X132967138Y-104177290D01*
X132970005Y-104163914D01*
X132979672Y-104069562D01*
X132980000Y-104063146D01*
X132980000Y-103963115D01*
X132975525Y-103947876D01*
X132974135Y-103946671D01*
X132966452Y-103945000D01*
X131844115Y-103945000D01*
X131828876Y-103949475D01*
X131827671Y-103950865D01*
X131826000Y-103958548D01*
X131826000Y-104755884D01*
X131318000Y-104755884D01*
X131318000Y-103963115D01*
X131313525Y-103947876D01*
X131312135Y-103946671D01*
X131304452Y-103945000D01*
X130182116Y-103945000D01*
X130166877Y-103949475D01*
X130165672Y-103950865D01*
X130164001Y-103958548D01*
X130164001Y-104063095D01*
X119114074Y-104063095D01*
X119072412Y-103938216D01*
X119066239Y-103925038D01*
X118980937Y-103787193D01*
X118971901Y-103775792D01*
X118857171Y-103661261D01*
X118845760Y-103652249D01*
X118723836Y-103577095D01*
X136126001Y-103577095D01*
X136126338Y-103583614D01*
X136136257Y-103679206D01*
X136139149Y-103692600D01*
X136190588Y-103846784D01*
X136196761Y-103859962D01*
X136282063Y-103997807D01*
X136291099Y-104009208D01*
X136405829Y-104123739D01*
X136417240Y-104132751D01*
X136555243Y-104217816D01*
X136568424Y-104223963D01*
X136722710Y-104275138D01*
X136736086Y-104278005D01*
X136830438Y-104287672D01*
X136836854Y-104288000D01*
X136936885Y-104288000D01*
X136952124Y-104283525D01*
X136953329Y-104282135D01*
X136955000Y-104274452D01*
X136955000Y-103152115D01*
X136950525Y-103136876D01*
X136949135Y-103135671D01*
X136941452Y-103134000D01*
X136144116Y-103134000D01*
X136128877Y-103138475D01*
X136127672Y-103139865D01*
X136126001Y-103147548D01*
X136126001Y-103577095D01*
X118723836Y-103577095D01*
X118707757Y-103567184D01*
X118694576Y-103561037D01*
X118540290Y-103509862D01*
X118526914Y-103506995D01*
X118432562Y-103497328D01*
X118426145Y-103497000D01*
X118001115Y-103497000D01*
X117985876Y-103501475D01*
X117984671Y-103502865D01*
X117983000Y-103510548D01*
X117983000Y-104307885D01*
X117475000Y-104307885D01*
X117475000Y-103515116D01*
X117470525Y-103499877D01*
X117469135Y-103498672D01*
X117461452Y-103497001D01*
X117031905Y-103497001D01*
X117025386Y-103497338D01*
X116929794Y-103507257D01*
X116916400Y-103510149D01*
X116762216Y-103561588D01*
X116749038Y-103567761D01*
X116611193Y-103653063D01*
X116597877Y-103663617D01*
X116532067Y-103690254D01*
X116462303Y-103677083D01*
X116410734Y-103628286D01*
X116393615Y-103564142D01*
X116394455Y-103418885D01*
X130164000Y-103418885D01*
X130168475Y-103434124D01*
X130169865Y-103435329D01*
X130177548Y-103437000D01*
X131299885Y-103437000D01*
X131315124Y-103432525D01*
X131316329Y-103431135D01*
X131318000Y-103423452D01*
X131318000Y-103418885D01*
X131826000Y-103418885D01*
X131830475Y-103434124D01*
X131831865Y-103435329D01*
X131839548Y-103437000D01*
X132961884Y-103437000D01*
X132977123Y-103432525D01*
X132978328Y-103431135D01*
X132979999Y-103423452D01*
X132979999Y-103318905D01*
X132979662Y-103312386D01*
X132969743Y-103216794D01*
X132966851Y-103203400D01*
X132915412Y-103049216D01*
X132909239Y-103036038D01*
X132823937Y-102898193D01*
X132814901Y-102886792D01*
X132700171Y-102772261D01*
X132688760Y-102763249D01*
X132550757Y-102678184D01*
X132537576Y-102672037D01*
X132383290Y-102620862D01*
X132369914Y-102617995D01*
X132275562Y-102608328D01*
X132269145Y-102608000D01*
X131844115Y-102608000D01*
X131828876Y-102612475D01*
X131827671Y-102613865D01*
X131826000Y-102621548D01*
X131826000Y-103418885D01*
X131318000Y-103418885D01*
X131318000Y-102626116D01*
X131313525Y-102610877D01*
X131312135Y-102609672D01*
X131304452Y-102608001D01*
X130874905Y-102608001D01*
X130868386Y-102608338D01*
X130772794Y-102618257D01*
X130759400Y-102621149D01*
X130605216Y-102672588D01*
X130592038Y-102678761D01*
X130454193Y-102764063D01*
X130442792Y-102773099D01*
X130328261Y-102887829D01*
X130319249Y-102899240D01*
X130234184Y-103037243D01*
X130228037Y-103050424D01*
X130176862Y-103204710D01*
X130173995Y-103218086D01*
X130164328Y-103312438D01*
X130164000Y-103318855D01*
X130164000Y-103418885D01*
X116394455Y-103418885D01*
X116395694Y-103204710D01*
X116396203Y-103116724D01*
X49122905Y-103441281D01*
X49054689Y-103421607D01*
X49007938Y-103368177D01*
X48996303Y-103316429D01*
X48989852Y-102607885D01*
X136126000Y-102607885D01*
X136130475Y-102623124D01*
X136131865Y-102624329D01*
X136139548Y-102626000D01*
X136936885Y-102626000D01*
X136952124Y-102621525D01*
X136953329Y-102620135D01*
X136955000Y-102612452D01*
X136955000Y-101490116D01*
X136950525Y-101474877D01*
X136949135Y-101473672D01*
X136941452Y-101472001D01*
X136836905Y-101472001D01*
X136830386Y-101472338D01*
X136734794Y-101482257D01*
X136721400Y-101485149D01*
X136567216Y-101536588D01*
X136554038Y-101542761D01*
X136416193Y-101628063D01*
X136404792Y-101637099D01*
X136290261Y-101751829D01*
X136281249Y-101763240D01*
X136196184Y-101901243D01*
X136190037Y-101914424D01*
X136138862Y-102068710D01*
X136135995Y-102082086D01*
X136126328Y-102176438D01*
X136126000Y-102182855D01*
X136126000Y-102607885D01*
X48989852Y-102607885D01*
X48966299Y-100021095D01*
X136242001Y-100021095D01*
X136242338Y-100027614D01*
X136252257Y-100123206D01*
X136255149Y-100136600D01*
X136306588Y-100290784D01*
X136312761Y-100303962D01*
X136398063Y-100441807D01*
X136407099Y-100453208D01*
X136521829Y-100567739D01*
X136533240Y-100576751D01*
X136671243Y-100661816D01*
X136684424Y-100667963D01*
X136838710Y-100719138D01*
X136852086Y-100722005D01*
X136946438Y-100731672D01*
X136952854Y-100732000D01*
X137052885Y-100732000D01*
X137068124Y-100727525D01*
X137069329Y-100726135D01*
X137071000Y-100718452D01*
X137071000Y-99596115D01*
X137066525Y-99580876D01*
X137065135Y-99579671D01*
X137057452Y-99578000D01*
X136260116Y-99578000D01*
X136244877Y-99582475D01*
X136243672Y-99583865D01*
X136242001Y-99591548D01*
X136242001Y-100021095D01*
X48966299Y-100021095D01*
X48957474Y-99051885D01*
X136242000Y-99051885D01*
X136246475Y-99067124D01*
X136247865Y-99068329D01*
X136255548Y-99070000D01*
X137052885Y-99070000D01*
X137068124Y-99065525D01*
X137069329Y-99064135D01*
X137071000Y-99056452D01*
X137071000Y-97934116D01*
X137066525Y-97918877D01*
X137065135Y-97917672D01*
X137057452Y-97916001D01*
X136952905Y-97916001D01*
X136946386Y-97916338D01*
X136850794Y-97926257D01*
X136837400Y-97929149D01*
X136683216Y-97980588D01*
X136670038Y-97986761D01*
X136532193Y-98072063D01*
X136520792Y-98081099D01*
X136406261Y-98195829D01*
X136397249Y-98207240D01*
X136312184Y-98345243D01*
X136306037Y-98358424D01*
X136254862Y-98512710D01*
X136251995Y-98526086D01*
X136242328Y-98620438D01*
X136242000Y-98626855D01*
X136242000Y-99051885D01*
X48957474Y-99051885D01*
X48931609Y-96211095D01*
X136242001Y-96211095D01*
X136242338Y-96217614D01*
X136252257Y-96313206D01*
X136255149Y-96326600D01*
X136306588Y-96480784D01*
X136312761Y-96493962D01*
X136398063Y-96631807D01*
X136407099Y-96643208D01*
X136521829Y-96757739D01*
X136533240Y-96766751D01*
X136671243Y-96851816D01*
X136684424Y-96857963D01*
X136838710Y-96909138D01*
X136852086Y-96912005D01*
X136946438Y-96921672D01*
X136952854Y-96922000D01*
X137052885Y-96922000D01*
X137068124Y-96917525D01*
X137069329Y-96916135D01*
X137071000Y-96908452D01*
X137071000Y-95786115D01*
X137066525Y-95770876D01*
X137065135Y-95769671D01*
X137057452Y-95768000D01*
X136260116Y-95768000D01*
X136244877Y-95772475D01*
X136243672Y-95773865D01*
X136242001Y-95781548D01*
X136242001Y-96211095D01*
X48931609Y-96211095D01*
X48922784Y-95241885D01*
X136242000Y-95241885D01*
X136246475Y-95257124D01*
X136247865Y-95258329D01*
X136255548Y-95260000D01*
X137052885Y-95260000D01*
X137068124Y-95255525D01*
X137069329Y-95254135D01*
X137071000Y-95246452D01*
X137071000Y-94124116D01*
X137066525Y-94108877D01*
X137065135Y-94107672D01*
X137057452Y-94106001D01*
X136952905Y-94106001D01*
X136946386Y-94106338D01*
X136850794Y-94116257D01*
X136837400Y-94119149D01*
X136683216Y-94170588D01*
X136670038Y-94176761D01*
X136532193Y-94262063D01*
X136520792Y-94271099D01*
X136406261Y-94385829D01*
X136397249Y-94397240D01*
X136312184Y-94535243D01*
X136306037Y-94548424D01*
X136254862Y-94702710D01*
X136251995Y-94716086D01*
X136242328Y-94810438D01*
X136242000Y-94816855D01*
X136242000Y-95241885D01*
X48922784Y-95241885D01*
X48829240Y-84967998D01*
X143922000Y-84967998D01*
X143922173Y-84972673D01*
X143936088Y-85159926D01*
X143937464Y-85169132D01*
X143993071Y-85414874D01*
X143995795Y-85423785D01*
X144087112Y-85658608D01*
X144091123Y-85667017D01*
X144216146Y-85885760D01*
X144221357Y-85893486D01*
X144377341Y-86091350D01*
X144383634Y-86098218D01*
X144567144Y-86270848D01*
X144574398Y-86276722D01*
X144781403Y-86420327D01*
X144789438Y-86425060D01*
X145015407Y-86536495D01*
X145024040Y-86539983D01*
X145263994Y-86616793D01*
X145273076Y-86618973D01*
X145408120Y-86640967D01*
X145421714Y-86639271D01*
X145426000Y-86625161D01*
X145426000Y-84176115D01*
X145421525Y-84160876D01*
X145420135Y-84159671D01*
X145412452Y-84158000D01*
X143940115Y-84158000D01*
X143924876Y-84162475D01*
X143923671Y-84163865D01*
X143922000Y-84171548D01*
X143922000Y-84967998D01*
X48829240Y-84967998D01*
X48817075Y-83631885D01*
X143922000Y-83631885D01*
X143926475Y-83647124D01*
X143927865Y-83648329D01*
X143935548Y-83650000D01*
X145407885Y-83650000D01*
X145423124Y-83645525D01*
X145424329Y-83644135D01*
X145426000Y-83636452D01*
X145426000Y-81182394D01*
X145421982Y-81168710D01*
X145408290Y-81166689D01*
X145318096Y-81178964D01*
X145308978Y-81180902D01*
X145067098Y-81251404D01*
X145058367Y-81254667D01*
X144829558Y-81360151D01*
X144821406Y-81364670D01*
X144610709Y-81502808D01*
X144603304Y-81508491D01*
X144415346Y-81676249D01*
X144408861Y-81682965D01*
X144247761Y-81876666D01*
X144242346Y-81884258D01*
X144111646Y-82099646D01*
X144107408Y-82107963D01*
X144009981Y-82340299D01*
X144007020Y-82349149D01*
X143945006Y-82593331D01*
X143943384Y-82602528D01*
X143922316Y-82811753D01*
X143922000Y-82818045D01*
X143922000Y-83631885D01*
X48817075Y-83631885D01*
X48808041Y-82639654D01*
X58441618Y-82639654D01*
X58448673Y-82649627D01*
X58479679Y-82675551D01*
X58486598Y-82680579D01*
X58711272Y-82821515D01*
X58718807Y-82825556D01*
X58960520Y-82934694D01*
X58968551Y-82937680D01*
X59222832Y-83013002D01*
X59231184Y-83014869D01*
X59493340Y-83054984D01*
X59501874Y-83055700D01*
X59767045Y-83059867D01*
X59775596Y-83059418D01*
X60038883Y-83027557D01*
X60047284Y-83025955D01*
X60303824Y-82958653D01*
X60311926Y-82955926D01*
X60556949Y-82854434D01*
X60564617Y-82850628D01*
X60793598Y-82716822D01*
X60800679Y-82712009D01*
X60880655Y-82649301D01*
X60889125Y-82637442D01*
X60882608Y-82625818D01*
X59678812Y-81422022D01*
X59664868Y-81414408D01*
X59663035Y-81414539D01*
X59656420Y-81418790D01*
X58448910Y-82626300D01*
X58441618Y-82639654D01*
X48808041Y-82639654D01*
X48793414Y-81033204D01*
X57653665Y-81033204D01*
X57668932Y-81297969D01*
X57670005Y-81306470D01*
X57721065Y-81566722D01*
X57723276Y-81574974D01*
X57809184Y-81825894D01*
X57812499Y-81833779D01*
X57931664Y-82070713D01*
X57936020Y-82078079D01*
X58065347Y-82266250D01*
X58075601Y-82274594D01*
X58089342Y-82267448D01*
X59293978Y-81062812D01*
X59300356Y-81051132D01*
X60030408Y-81051132D01*
X60030539Y-81052965D01*
X60034790Y-81059580D01*
X61241730Y-82266520D01*
X61253939Y-82273187D01*
X61265439Y-82264497D01*
X61362831Y-82131913D01*
X61367418Y-82124685D01*
X61493962Y-81891621D01*
X61497530Y-81883827D01*
X61591271Y-81635750D01*
X61593748Y-81627544D01*
X61652954Y-81369038D01*
X61654294Y-81360577D01*
X61678031Y-81094616D01*
X61678277Y-81089677D01*
X61678666Y-81052485D01*
X61678523Y-81047519D01*
X61660362Y-80781123D01*
X61659201Y-80772649D01*
X61605419Y-80512944D01*
X61603120Y-80504709D01*
X61514588Y-80254705D01*
X61511191Y-80246854D01*
X61389550Y-80011178D01*
X61385122Y-80003866D01*
X61266031Y-79834417D01*
X61255509Y-79826037D01*
X61242121Y-79833089D01*
X60038022Y-81037188D01*
X60030408Y-81051132D01*
X59300356Y-81051132D01*
X59301592Y-81048868D01*
X59301461Y-81047035D01*
X59297210Y-81040420D01*
X58089814Y-79833024D01*
X58077804Y-79826466D01*
X58066064Y-79835434D01*
X57957935Y-79985911D01*
X57953418Y-79993196D01*
X57829325Y-80227567D01*
X57825839Y-80235395D01*
X57734700Y-80484446D01*
X57732311Y-80492670D01*
X57675812Y-80751795D01*
X57674563Y-80760250D01*
X57653754Y-81024653D01*
X57653665Y-81033204D01*
X48793414Y-81033204D01*
X48779113Y-79462500D01*
X58442584Y-79462500D01*
X58448980Y-79473770D01*
X59653188Y-80677978D01*
X59667132Y-80685592D01*
X59668965Y-80685461D01*
X59675580Y-80681210D01*
X60882604Y-79474186D01*
X60889795Y-79461017D01*
X60882473Y-79450780D01*
X60835233Y-79412115D01*
X60828261Y-79407160D01*
X60602122Y-79268582D01*
X60594552Y-79264624D01*
X60351704Y-79158022D01*
X60343644Y-79155120D01*
X60088592Y-79082467D01*
X60080214Y-79080685D01*
X59817656Y-79043318D01*
X59809111Y-79042691D01*
X59543908Y-79041302D01*
X59535374Y-79041839D01*
X59272433Y-79076456D01*
X59264035Y-79078149D01*
X59008238Y-79148127D01*
X59000143Y-79150946D01*
X58756199Y-79254997D01*
X58748577Y-79258881D01*
X58521013Y-79395075D01*
X58513981Y-79399962D01*
X58451053Y-79450377D01*
X58442584Y-79462500D01*
X48779113Y-79462500D01*
X48769158Y-78369147D01*
X48788539Y-78300847D01*
X48841769Y-78253868D01*
X48895153Y-78242000D01*
X65278000Y-78242000D01*
X65278000Y-77743288D01*
X65298002Y-77675167D01*
X65314905Y-77654192D01*
X65500473Y-77468625D01*
X65503656Y-77465442D01*
X65675134Y-77236373D01*
X65812266Y-76985233D01*
X65912262Y-76717132D01*
X65932264Y-76649011D01*
X65993087Y-76369412D01*
X66013500Y-76084000D01*
X66013500Y-71256000D01*
X66008391Y-71112940D01*
X65987925Y-70970588D01*
X65967988Y-70831923D01*
X65967670Y-70829711D01*
X65956284Y-70777369D01*
X65934238Y-70690989D01*
X65921715Y-70641925D01*
X65921713Y-70641919D01*
X65920878Y-70638647D01*
X65820883Y-70370547D01*
X65812267Y-70354767D01*
X65685909Y-70123360D01*
X65683750Y-70119406D01*
X65512272Y-69890338D01*
X65465779Y-69836682D01*
X65451193Y-69822096D01*
X65417167Y-69759784D01*
X65422232Y-69688969D01*
X65451193Y-69643906D01*
X65500466Y-69594633D01*
X65500473Y-69594625D01*
X65503656Y-69591442D01*
X65675134Y-69362373D01*
X65812266Y-69111233D01*
X65912262Y-68843132D01*
X65932264Y-68775011D01*
X65993087Y-68495412D01*
X66013500Y-68210000D01*
X66013500Y-66565987D01*
X120592721Y-66565987D01*
X120601548Y-66577605D01*
X120824281Y-66739430D01*
X120830961Y-66743670D01*
X121100572Y-66891890D01*
X121107707Y-66895247D01*
X121393770Y-67008508D01*
X121401296Y-67010953D01*
X121699279Y-67087462D01*
X121707050Y-67088945D01*
X122012278Y-67127503D01*
X122020169Y-67128000D01*
X122327831Y-67128000D01*
X122335722Y-67127503D01*
X122640950Y-67088945D01*
X122648721Y-67087462D01*
X122946704Y-67010953D01*
X122954230Y-67008508D01*
X123240293Y-66895247D01*
X123247428Y-66891890D01*
X123517039Y-66743670D01*
X123523719Y-66739430D01*
X123746823Y-66577336D01*
X123755246Y-66566413D01*
X123748342Y-66553552D01*
X122186812Y-64992022D01*
X122172868Y-64984408D01*
X122171035Y-64984539D01*
X122164420Y-64988790D01*
X120599334Y-66553876D01*
X120592721Y-66565987D01*
X66013500Y-66565987D01*
X66013500Y-65691488D01*
X83000721Y-65691488D01*
X83009548Y-65703106D01*
X83232281Y-65864931D01*
X83238961Y-65869171D01*
X83508572Y-66017391D01*
X83515707Y-66020748D01*
X83801770Y-66134009D01*
X83809296Y-66136454D01*
X84107279Y-66212963D01*
X84115050Y-66214446D01*
X84420278Y-66253004D01*
X84428169Y-66253501D01*
X84735831Y-66253501D01*
X84743722Y-66253004D01*
X85048950Y-66214446D01*
X85056721Y-66212963D01*
X85354704Y-66136454D01*
X85362230Y-66134009D01*
X85648293Y-66020748D01*
X85655428Y-66017391D01*
X85925039Y-65869171D01*
X85931719Y-65864931D01*
X86154823Y-65702837D01*
X86163246Y-65691914D01*
X86156342Y-65679053D01*
X84594812Y-64117523D01*
X84580868Y-64109909D01*
X84579035Y-64110040D01*
X84572420Y-64114291D01*
X83007334Y-65679377D01*
X83000721Y-65691488D01*
X66013500Y-65691488D01*
X66013500Y-63749459D01*
X82069290Y-63749459D01*
X82088607Y-64056495D01*
X82089600Y-64064356D01*
X82147246Y-64366547D01*
X82149217Y-64374224D01*
X82244284Y-64666810D01*
X82247199Y-64674173D01*
X82378189Y-64952542D01*
X82382001Y-64959475D01*
X82546851Y-65219237D01*
X82551495Y-65225630D01*
X82626497Y-65316291D01*
X82639014Y-65324746D01*
X82649752Y-65318539D01*
X84209978Y-63758313D01*
X84216356Y-63746633D01*
X84946408Y-63746633D01*
X84946539Y-63748466D01*
X84950790Y-63755081D01*
X86513145Y-65317436D01*
X86526407Y-65324678D01*
X86536512Y-65317489D01*
X86612505Y-65225630D01*
X86617149Y-65219237D01*
X86781999Y-64959475D01*
X86785811Y-64952542D01*
X86916801Y-64674173D01*
X86919716Y-64666810D01*
X86933639Y-64623958D01*
X119661290Y-64623958D01*
X119680607Y-64930994D01*
X119681600Y-64938855D01*
X119739246Y-65241046D01*
X119741217Y-65248723D01*
X119836284Y-65541309D01*
X119839199Y-65548672D01*
X119970189Y-65827041D01*
X119974001Y-65833974D01*
X120138851Y-66093736D01*
X120143495Y-66100129D01*
X120218497Y-66190790D01*
X120231014Y-66199245D01*
X120241752Y-66193038D01*
X121801978Y-64632812D01*
X121808356Y-64621132D01*
X122538408Y-64621132D01*
X122538539Y-64622965D01*
X122542790Y-64629580D01*
X124105145Y-66191935D01*
X124118407Y-66199177D01*
X124128512Y-66191988D01*
X124204505Y-66100129D01*
X124209149Y-66093736D01*
X124373999Y-65833974D01*
X124377811Y-65827041D01*
X124508801Y-65548672D01*
X124511716Y-65541309D01*
X124606783Y-65248723D01*
X124608754Y-65241046D01*
X124666400Y-64938855D01*
X124667393Y-64930994D01*
X124686710Y-64623958D01*
X124686710Y-64616042D01*
X124667393Y-64309006D01*
X124666400Y-64301145D01*
X124608754Y-63998954D01*
X124606783Y-63991277D01*
X124511716Y-63698691D01*
X124508801Y-63691328D01*
X124377811Y-63412959D01*
X124373999Y-63406026D01*
X124209149Y-63146264D01*
X124204505Y-63139871D01*
X124129503Y-63049210D01*
X124116986Y-63040755D01*
X124106248Y-63046962D01*
X122546022Y-64607188D01*
X122538408Y-64621132D01*
X121808356Y-64621132D01*
X121809592Y-64618868D01*
X121809461Y-64617035D01*
X121805210Y-64610420D01*
X120242855Y-63048065D01*
X120229593Y-63040823D01*
X120219488Y-63048012D01*
X120143495Y-63139871D01*
X120138851Y-63146264D01*
X119974001Y-63406026D01*
X119970189Y-63412959D01*
X119839199Y-63691328D01*
X119836284Y-63698691D01*
X119741217Y-63991277D01*
X119739246Y-63998954D01*
X119681600Y-64301145D01*
X119680607Y-64309006D01*
X119661290Y-64616042D01*
X119661290Y-64623958D01*
X86933639Y-64623958D01*
X87014783Y-64374224D01*
X87016754Y-64366547D01*
X87074400Y-64064356D01*
X87075393Y-64056495D01*
X87094710Y-63749459D01*
X87094710Y-63741543D01*
X87075393Y-63434507D01*
X87074400Y-63426646D01*
X87016754Y-63124455D01*
X87014783Y-63116778D01*
X86919716Y-62824192D01*
X86916801Y-62816829D01*
X86849397Y-62673587D01*
X120592754Y-62673587D01*
X120599658Y-62686448D01*
X122161188Y-64247978D01*
X122175132Y-64255592D01*
X122176965Y-64255461D01*
X122183580Y-64251210D01*
X123748666Y-62686124D01*
X123755279Y-62674013D01*
X123746452Y-62662395D01*
X123523719Y-62500570D01*
X123517039Y-62496330D01*
X123247428Y-62348110D01*
X123240293Y-62344753D01*
X122954230Y-62231492D01*
X122946704Y-62229047D01*
X122648721Y-62152538D01*
X122640950Y-62151055D01*
X122335722Y-62112497D01*
X122327831Y-62112000D01*
X122020169Y-62112000D01*
X122012278Y-62112497D01*
X121707050Y-62151055D01*
X121699279Y-62152538D01*
X121401296Y-62229047D01*
X121393770Y-62231492D01*
X121107707Y-62344753D01*
X121100572Y-62348110D01*
X120830961Y-62496330D01*
X120824281Y-62500570D01*
X120601177Y-62662664D01*
X120592754Y-62673587D01*
X86849397Y-62673587D01*
X86785811Y-62538460D01*
X86781999Y-62531527D01*
X86617149Y-62271765D01*
X86612505Y-62265372D01*
X86537503Y-62174711D01*
X86524986Y-62166256D01*
X86514248Y-62172463D01*
X84954022Y-63732689D01*
X84946408Y-63746633D01*
X84216356Y-63746633D01*
X84217592Y-63744369D01*
X84217461Y-63742536D01*
X84213210Y-63735921D01*
X82650855Y-62173566D01*
X82637593Y-62166324D01*
X82627488Y-62173513D01*
X82551495Y-62265372D01*
X82546851Y-62271765D01*
X82382001Y-62531527D01*
X82378189Y-62538460D01*
X82247199Y-62816829D01*
X82244284Y-62824192D01*
X82149217Y-63116778D01*
X82147246Y-63124455D01*
X82089600Y-63426646D01*
X82088607Y-63434507D01*
X82069290Y-63741543D01*
X82069290Y-63749459D01*
X66013500Y-63749459D01*
X66013500Y-63382000D01*
X66008391Y-63238940D01*
X65994148Y-63139871D01*
X65967988Y-62957923D01*
X65967670Y-62955711D01*
X65956284Y-62903369D01*
X65934238Y-62816989D01*
X65921715Y-62767925D01*
X65921713Y-62767919D01*
X65920878Y-62764647D01*
X65882741Y-62662395D01*
X65822454Y-62500759D01*
X65820883Y-62496547D01*
X65812267Y-62480767D01*
X65685909Y-62249360D01*
X65683750Y-62245406D01*
X65642754Y-62190642D01*
X65617944Y-62124125D01*
X65633035Y-62054751D01*
X65642755Y-62039626D01*
X65672433Y-61999981D01*
X65675134Y-61996373D01*
X65775837Y-61811949D01*
X65782860Y-61799088D01*
X83000754Y-61799088D01*
X83007658Y-61811949D01*
X84569188Y-63373479D01*
X84583132Y-63381093D01*
X84584965Y-63380962D01*
X84591580Y-63376711D01*
X86156666Y-61811625D01*
X86163279Y-61799514D01*
X86154452Y-61787896D01*
X85931719Y-61626071D01*
X85925039Y-61621831D01*
X85655428Y-61473611D01*
X85648293Y-61470254D01*
X85362230Y-61356993D01*
X85354704Y-61354548D01*
X85056721Y-61278039D01*
X85048950Y-61276556D01*
X84743722Y-61237998D01*
X84735831Y-61237501D01*
X84428169Y-61237501D01*
X84420278Y-61237998D01*
X84115050Y-61276556D01*
X84107279Y-61278039D01*
X83809296Y-61354548D01*
X83801770Y-61356993D01*
X83515707Y-61470254D01*
X83508572Y-61473611D01*
X83238961Y-61621831D01*
X83232281Y-61626071D01*
X83009177Y-61788165D01*
X83000754Y-61799088D01*
X65782860Y-61799088D01*
X65810112Y-61749178D01*
X65810113Y-61749177D01*
X65812266Y-61745233D01*
X65912262Y-61477132D01*
X65932264Y-61409011D01*
X65993087Y-61129412D01*
X66013500Y-60844000D01*
X66013500Y-59323944D01*
X66033502Y-59255823D01*
X66087158Y-59209330D01*
X66140367Y-59197947D01*
X100607426Y-59435651D01*
G37*
%TD.AperFunction*%
%TD*%
%TA.AperFunction,Conductor*%
%TO.N,GND1*%
G36*
X106899030Y-106329002D02*
G01*
X106945523Y-106382658D01*
X106956263Y-106447747D01*
X106944823Y-106560245D01*
X106944500Y-106563424D01*
X106944500Y-111744328D01*
X106944542Y-111744902D01*
X106927111Y-111813492D01*
X106875198Y-111861924D01*
X106805342Y-111874601D01*
X106765433Y-111863504D01*
X106626053Y-111798510D01*
X106615761Y-111794764D01*
X106443497Y-111748606D01*
X106429401Y-111748942D01*
X106426000Y-111756884D01*
X106426000Y-114297967D01*
X106429973Y-114311498D01*
X106438522Y-114312727D01*
X106615761Y-114265236D01*
X106626053Y-114261490D01*
X106823511Y-114169414D01*
X106833007Y-114163931D01*
X107011467Y-114038972D01*
X107019875Y-114031916D01*
X107027469Y-114024322D01*
X107089781Y-113990296D01*
X107160596Y-113995361D01*
X107217521Y-114038027D01*
X107349335Y-114214547D01*
X107352642Y-114217825D01*
X107352647Y-114217831D01*
X107523722Y-114387418D01*
X107539390Y-114402950D01*
X107644506Y-114480024D01*
X107687613Y-114536434D01*
X107696000Y-114581635D01*
X107696000Y-126396157D01*
X107675998Y-126464278D01*
X107622342Y-126510771D01*
X107604731Y-126517276D01*
X107584972Y-126522942D01*
X107538530Y-126536259D01*
X107358404Y-126630427D01*
X107353457Y-126634462D01*
X107353455Y-126634463D01*
X107252245Y-126717007D01*
X107186814Y-126744561D01*
X107116872Y-126732365D01*
X107100794Y-126722894D01*
X107092227Y-126716951D01*
X107092224Y-126716949D01*
X107088385Y-126714286D01*
X107084192Y-126712218D01*
X106852559Y-126597989D01*
X106852556Y-126597988D01*
X106848371Y-126595924D01*
X106593497Y-126514338D01*
X106384087Y-126480234D01*
X106333976Y-126472073D01*
X106333975Y-126472073D01*
X106329364Y-126471322D01*
X106190184Y-126469500D01*
X106066451Y-126467880D01*
X106066448Y-126467880D01*
X106061774Y-126467819D01*
X105796605Y-126503907D01*
X105792118Y-126505215D01*
X105792117Y-126505215D01*
X105760817Y-126514338D01*
X105539683Y-126578792D01*
X105535430Y-126580752D01*
X105535429Y-126580753D01*
X105483512Y-126604687D01*
X105296652Y-126690831D01*
X105292743Y-126693394D01*
X105076764Y-126834996D01*
X105076759Y-126835000D01*
X105072851Y-126837562D01*
X105069359Y-126840679D01*
X104986734Y-126914424D01*
X104922593Y-126944862D01*
X104852178Y-126935790D01*
X104816500Y-126912196D01*
X104771670Y-126870024D01*
X104771667Y-126870022D01*
X104768269Y-126866825D01*
X104548385Y-126714286D01*
X104544192Y-126712218D01*
X104312559Y-126597989D01*
X104312556Y-126597988D01*
X104308371Y-126595924D01*
X104053497Y-126514338D01*
X103844087Y-126480234D01*
X103793976Y-126472073D01*
X103793975Y-126472073D01*
X103789364Y-126471322D01*
X103650184Y-126469500D01*
X103526451Y-126467880D01*
X103526448Y-126467880D01*
X103521774Y-126467819D01*
X103256605Y-126503907D01*
X103252118Y-126505215D01*
X103252117Y-126505215D01*
X103220817Y-126514338D01*
X102999683Y-126578792D01*
X102995430Y-126580752D01*
X102995429Y-126580753D01*
X102943512Y-126604687D01*
X102756652Y-126690831D01*
X102752743Y-126693394D01*
X102536764Y-126834996D01*
X102536759Y-126835000D01*
X102532851Y-126837562D01*
X102449231Y-126912196D01*
X102412632Y-126944862D01*
X102333197Y-127015760D01*
X102162075Y-127221512D01*
X102143861Y-127251528D01*
X102091424Y-127299387D01*
X102021434Y-127311301D01*
X101956114Y-127283483D01*
X101947048Y-127275257D01*
X101939875Y-127268084D01*
X101931467Y-127261028D01*
X101753007Y-127136069D01*
X101743511Y-127130586D01*
X101546053Y-127038510D01*
X101535761Y-127034764D01*
X101363497Y-126988606D01*
X101349401Y-126988942D01*
X101346000Y-126996884D01*
X101346000Y-129537967D01*
X101349973Y-129551498D01*
X101358522Y-129552727D01*
X101535761Y-129505236D01*
X101546053Y-129501490D01*
X101743511Y-129409414D01*
X101753007Y-129403931D01*
X101931467Y-129278972D01*
X101939875Y-129271916D01*
X101947469Y-129264322D01*
X102009781Y-129230296D01*
X102080596Y-129235361D01*
X102137521Y-129278027D01*
X102269335Y-129454547D01*
X102272642Y-129457825D01*
X102272647Y-129457831D01*
X102448143Y-129631801D01*
X102459390Y-129642950D01*
X102675205Y-129801192D01*
X102679340Y-129803368D01*
X102679344Y-129803370D01*
X102808918Y-129871542D01*
X102912039Y-129925797D01*
X102916458Y-129927340D01*
X103160273Y-130012484D01*
X103160279Y-130012486D01*
X103164690Y-130014026D01*
X103427606Y-130063943D01*
X103554616Y-130068933D01*
X103690345Y-130074266D01*
X103690350Y-130074266D01*
X103695013Y-130074449D01*
X103790943Y-130063943D01*
X103956382Y-130045825D01*
X103956387Y-130045824D01*
X103961035Y-130045315D01*
X104046842Y-130022724D01*
X104215309Y-129978370D01*
X104219829Y-129977180D01*
X104344501Y-129923617D01*
X104461407Y-129873391D01*
X104461410Y-129873389D01*
X104465710Y-129871542D01*
X104469690Y-129869079D01*
X104469694Y-129869077D01*
X104689302Y-129733179D01*
X104689306Y-129733176D01*
X104693275Y-129730720D01*
X104818022Y-129625114D01*
X104882938Y-129596365D01*
X104953091Y-129607277D01*
X104988143Y-129631801D01*
X104999390Y-129642950D01*
X105215205Y-129801192D01*
X105219340Y-129803368D01*
X105219344Y-129803370D01*
X105348918Y-129871542D01*
X105452039Y-129925797D01*
X105456458Y-129927340D01*
X105700273Y-130012484D01*
X105700279Y-130012486D01*
X105704690Y-130014026D01*
X105967606Y-130063943D01*
X106094616Y-130068933D01*
X106230345Y-130074266D01*
X106230350Y-130074266D01*
X106235013Y-130074449D01*
X106330943Y-130063943D01*
X106496382Y-130045825D01*
X106496387Y-130045824D01*
X106501035Y-130045315D01*
X106586842Y-130022724D01*
X106755309Y-129978370D01*
X106759829Y-129977180D01*
X106884501Y-129923617D01*
X107001407Y-129873391D01*
X107001410Y-129873389D01*
X107005710Y-129871542D01*
X107009690Y-129869079D01*
X107009694Y-129869077D01*
X107103378Y-129811103D01*
X107171830Y-129792265D01*
X107239600Y-129813426D01*
X107249317Y-129820604D01*
X107343632Y-129897525D01*
X107358404Y-129909573D01*
X107364057Y-129912528D01*
X107364058Y-129912529D01*
X107392389Y-129927340D01*
X107538530Y-130003741D01*
X107584972Y-130017058D01*
X107604731Y-130022724D01*
X107664699Y-130060728D01*
X107694601Y-130125121D01*
X107696000Y-130143843D01*
X107696000Y-130717500D01*
X107675998Y-130785621D01*
X107622342Y-130832114D01*
X107570000Y-130843500D01*
X92875719Y-130843500D01*
X92807598Y-130823498D01*
X92786624Y-130806596D01*
X92344405Y-130364378D01*
X92310380Y-130302065D01*
X92307500Y-130275282D01*
X92307500Y-129897525D01*
X92327502Y-129829404D01*
X92381158Y-129782911D01*
X92451432Y-129772807D01*
X92508002Y-129795911D01*
X92515205Y-129801192D01*
X92519340Y-129803368D01*
X92519344Y-129803370D01*
X92648918Y-129871542D01*
X92752039Y-129925797D01*
X92756458Y-129927340D01*
X93000273Y-130012484D01*
X93000279Y-130012486D01*
X93004690Y-130014026D01*
X93267606Y-130063943D01*
X93394616Y-130068933D01*
X93530345Y-130074266D01*
X93530350Y-130074266D01*
X93535013Y-130074449D01*
X93630943Y-130063943D01*
X93796382Y-130045825D01*
X93796387Y-130045824D01*
X93801035Y-130045315D01*
X93886842Y-130022724D01*
X94055309Y-129978370D01*
X94059829Y-129977180D01*
X94184501Y-129923617D01*
X94301407Y-129873391D01*
X94301410Y-129873389D01*
X94305710Y-129871542D01*
X94309690Y-129869079D01*
X94309694Y-129869077D01*
X94529302Y-129733179D01*
X94529306Y-129733176D01*
X94533275Y-129730720D01*
X94658022Y-129625114D01*
X94722938Y-129596365D01*
X94793091Y-129607277D01*
X94828143Y-129631801D01*
X94839390Y-129642950D01*
X95055205Y-129801192D01*
X95059340Y-129803368D01*
X95059344Y-129803370D01*
X95188918Y-129871542D01*
X95292039Y-129925797D01*
X95296458Y-129927340D01*
X95540273Y-130012484D01*
X95540279Y-130012486D01*
X95544690Y-130014026D01*
X95807606Y-130063943D01*
X95934616Y-130068933D01*
X96070345Y-130074266D01*
X96070350Y-130074266D01*
X96075013Y-130074449D01*
X96170943Y-130063943D01*
X96336382Y-130045825D01*
X96336387Y-130045824D01*
X96341035Y-130045315D01*
X96426842Y-130022724D01*
X96595309Y-129978370D01*
X96599829Y-129977180D01*
X96724501Y-129923617D01*
X96841407Y-129873391D01*
X96841410Y-129873389D01*
X96845710Y-129871542D01*
X96849690Y-129869079D01*
X96849694Y-129869077D01*
X97069302Y-129733179D01*
X97069306Y-129733176D01*
X97073275Y-129730720D01*
X97198022Y-129625114D01*
X97262938Y-129596365D01*
X97333091Y-129607277D01*
X97368143Y-129631801D01*
X97379390Y-129642950D01*
X97595205Y-129801192D01*
X97599340Y-129803368D01*
X97599344Y-129803370D01*
X97728918Y-129871542D01*
X97832039Y-129925797D01*
X97836458Y-129927340D01*
X98080273Y-130012484D01*
X98080279Y-130012486D01*
X98084690Y-130014026D01*
X98347606Y-130063943D01*
X98474616Y-130068933D01*
X98610345Y-130074266D01*
X98610350Y-130074266D01*
X98615013Y-130074449D01*
X98710943Y-130063943D01*
X98876382Y-130045825D01*
X98876387Y-130045824D01*
X98881035Y-130045315D01*
X98966842Y-130022724D01*
X99135309Y-129978370D01*
X99139829Y-129977180D01*
X99264501Y-129923617D01*
X99381407Y-129873391D01*
X99381410Y-129873389D01*
X99385710Y-129871542D01*
X99389690Y-129869079D01*
X99389694Y-129869077D01*
X99609302Y-129733179D01*
X99609306Y-129733176D01*
X99613275Y-129730720D01*
X99709930Y-129648896D01*
X99813960Y-129560828D01*
X99813961Y-129560827D01*
X99817526Y-129557809D01*
X99917799Y-129443470D01*
X99990900Y-129360115D01*
X99990903Y-129360111D01*
X99993976Y-129356607D01*
X100040496Y-129284283D01*
X100094169Y-129237813D01*
X100164447Y-129227737D01*
X100229016Y-129257255D01*
X100235561Y-129263352D01*
X100244125Y-129271916D01*
X100252533Y-129278972D01*
X100430993Y-129403931D01*
X100440489Y-129409414D01*
X100637947Y-129501490D01*
X100648239Y-129505236D01*
X100820503Y-129551394D01*
X100834599Y-129551058D01*
X100838000Y-129543116D01*
X100838000Y-127002033D01*
X100834027Y-126988502D01*
X100825478Y-126987273D01*
X100648239Y-127034764D01*
X100637947Y-127038510D01*
X100440489Y-127130586D01*
X100430993Y-127136069D01*
X100252533Y-127261028D01*
X100244125Y-127268084D01*
X100238467Y-127273742D01*
X100176155Y-127307768D01*
X100105340Y-127302703D01*
X100050214Y-127259289D01*
X100048868Y-127260350D01*
X99883190Y-127050189D01*
X99688269Y-126866825D01*
X99468385Y-126714286D01*
X99464192Y-126712218D01*
X99232559Y-126597989D01*
X99232556Y-126597988D01*
X99228371Y-126595924D01*
X98973497Y-126514338D01*
X98764087Y-126480234D01*
X98713976Y-126472073D01*
X98713975Y-126472073D01*
X98709364Y-126471322D01*
X98570184Y-126469500D01*
X98446451Y-126467880D01*
X98446448Y-126467880D01*
X98441774Y-126467819D01*
X98176605Y-126503907D01*
X98172118Y-126505215D01*
X98172117Y-126505215D01*
X98140817Y-126514338D01*
X97919683Y-126578792D01*
X97915430Y-126580752D01*
X97915429Y-126580753D01*
X97863512Y-126604687D01*
X97676652Y-126690831D01*
X97672743Y-126693394D01*
X97456764Y-126834996D01*
X97456759Y-126835000D01*
X97452851Y-126837562D01*
X97449359Y-126840679D01*
X97366734Y-126914424D01*
X97302593Y-126944862D01*
X97232178Y-126935790D01*
X97196500Y-126912196D01*
X97151670Y-126870024D01*
X97151667Y-126870022D01*
X97148269Y-126866825D01*
X96928385Y-126714286D01*
X96924192Y-126712218D01*
X96692559Y-126597989D01*
X96692556Y-126597988D01*
X96688371Y-126595924D01*
X96433497Y-126514338D01*
X96224087Y-126480234D01*
X96173976Y-126472073D01*
X96173975Y-126472073D01*
X96169364Y-126471322D01*
X96030184Y-126469500D01*
X95906451Y-126467880D01*
X95906448Y-126467880D01*
X95901774Y-126467819D01*
X95636605Y-126503907D01*
X95632118Y-126505215D01*
X95632117Y-126505215D01*
X95600817Y-126514338D01*
X95379683Y-126578792D01*
X95375430Y-126580752D01*
X95375429Y-126580753D01*
X95323512Y-126604687D01*
X95136652Y-126690831D01*
X95132743Y-126693394D01*
X94916764Y-126834996D01*
X94916759Y-126835000D01*
X94912851Y-126837562D01*
X94909359Y-126840679D01*
X94826734Y-126914424D01*
X94762593Y-126944862D01*
X94692178Y-126935790D01*
X94656500Y-126912196D01*
X94611670Y-126870024D01*
X94611667Y-126870022D01*
X94608269Y-126866825D01*
X94388385Y-126714286D01*
X94384192Y-126712218D01*
X94152559Y-126597989D01*
X94152556Y-126597988D01*
X94148371Y-126595924D01*
X93893497Y-126514338D01*
X93684087Y-126480234D01*
X93633976Y-126472073D01*
X93633975Y-126472073D01*
X93629364Y-126471322D01*
X93490184Y-126469500D01*
X93366451Y-126467880D01*
X93366448Y-126467880D01*
X93361774Y-126467819D01*
X93096605Y-126503907D01*
X93092118Y-126505215D01*
X93092117Y-126505215D01*
X93060817Y-126514338D01*
X92839683Y-126578792D01*
X92835430Y-126580752D01*
X92835429Y-126580753D01*
X92783512Y-126604687D01*
X92596652Y-126690831D01*
X92592743Y-126693394D01*
X92376764Y-126834996D01*
X92376759Y-126835000D01*
X92372851Y-126837562D01*
X92369359Y-126840679D01*
X92286734Y-126914424D01*
X92222593Y-126944862D01*
X92152178Y-126935790D01*
X92116500Y-126912196D01*
X92071670Y-126870024D01*
X92071667Y-126870022D01*
X92068269Y-126866825D01*
X91848385Y-126714286D01*
X91844192Y-126712218D01*
X91612559Y-126597989D01*
X91612556Y-126597988D01*
X91608371Y-126595924D01*
X91353497Y-126514338D01*
X91144087Y-126480234D01*
X91093976Y-126472073D01*
X91093975Y-126472073D01*
X91089364Y-126471322D01*
X90950184Y-126469500D01*
X90826451Y-126467880D01*
X90826448Y-126467880D01*
X90821774Y-126467819D01*
X90556605Y-126503907D01*
X90552118Y-126505215D01*
X90552117Y-126505215D01*
X90520817Y-126514338D01*
X90299683Y-126578792D01*
X90295430Y-126580752D01*
X90295429Y-126580753D01*
X90243512Y-126604687D01*
X90056652Y-126690831D01*
X90052743Y-126693394D01*
X89836764Y-126834996D01*
X89836759Y-126835000D01*
X89832851Y-126837562D01*
X89829359Y-126840679D01*
X89746734Y-126914424D01*
X89682593Y-126944862D01*
X89612178Y-126935790D01*
X89576500Y-126912196D01*
X89531670Y-126870024D01*
X89531667Y-126870022D01*
X89528269Y-126866825D01*
X89308385Y-126714286D01*
X89304192Y-126712218D01*
X89072559Y-126597989D01*
X89072556Y-126597988D01*
X89068371Y-126595924D01*
X88813497Y-126514338D01*
X88604087Y-126480234D01*
X88553976Y-126472073D01*
X88553975Y-126472073D01*
X88549364Y-126471322D01*
X88410184Y-126469500D01*
X88286451Y-126467880D01*
X88286448Y-126467880D01*
X88281774Y-126467819D01*
X88016605Y-126503907D01*
X88012118Y-126505215D01*
X88012117Y-126505215D01*
X87980817Y-126514338D01*
X87759683Y-126578792D01*
X87755430Y-126580752D01*
X87755429Y-126580753D01*
X87703512Y-126604687D01*
X87516652Y-126690831D01*
X87512743Y-126693394D01*
X87296764Y-126834996D01*
X87296759Y-126835000D01*
X87292851Y-126837562D01*
X87289359Y-126840679D01*
X87206734Y-126914424D01*
X87142593Y-126944862D01*
X87072178Y-126935790D01*
X87036500Y-126912196D01*
X86991670Y-126870024D01*
X86991667Y-126870022D01*
X86988269Y-126866825D01*
X86768385Y-126714286D01*
X86764192Y-126712218D01*
X86532559Y-126597989D01*
X86532556Y-126597988D01*
X86528371Y-126595924D01*
X86273497Y-126514338D01*
X86064087Y-126480234D01*
X86013976Y-126472073D01*
X86013975Y-126472073D01*
X86009364Y-126471322D01*
X85870184Y-126469500D01*
X85746451Y-126467880D01*
X85746448Y-126467880D01*
X85741774Y-126467819D01*
X85476605Y-126503907D01*
X85472118Y-126505215D01*
X85472117Y-126505215D01*
X85440817Y-126514338D01*
X85219683Y-126578792D01*
X85215430Y-126580752D01*
X85215429Y-126580753D01*
X85163512Y-126604687D01*
X84976652Y-126690831D01*
X84972743Y-126693394D01*
X84756764Y-126834996D01*
X84756759Y-126835000D01*
X84752851Y-126837562D01*
X84749359Y-126840679D01*
X84666734Y-126914424D01*
X84602593Y-126944862D01*
X84532178Y-126935790D01*
X84496500Y-126912196D01*
X84451670Y-126870024D01*
X84451667Y-126870022D01*
X84448269Y-126866825D01*
X84228385Y-126714286D01*
X84224192Y-126712218D01*
X83992559Y-126597989D01*
X83992556Y-126597988D01*
X83988371Y-126595924D01*
X83733497Y-126514338D01*
X83524087Y-126480234D01*
X83473976Y-126472073D01*
X83473975Y-126472073D01*
X83469364Y-126471322D01*
X83330184Y-126469500D01*
X83206451Y-126467880D01*
X83206448Y-126467880D01*
X83201774Y-126467819D01*
X82936605Y-126503907D01*
X82932118Y-126505215D01*
X82932117Y-126505215D01*
X82900817Y-126514338D01*
X82679683Y-126578792D01*
X82675430Y-126580752D01*
X82675429Y-126580753D01*
X82623512Y-126604687D01*
X82436652Y-126690831D01*
X82432743Y-126693394D01*
X82216764Y-126834996D01*
X82216759Y-126835000D01*
X82212851Y-126837562D01*
X82209359Y-126840679D01*
X82126734Y-126914424D01*
X82062593Y-126944862D01*
X81992178Y-126935790D01*
X81956500Y-126912196D01*
X81911670Y-126870024D01*
X81911667Y-126870022D01*
X81908269Y-126866825D01*
X81688385Y-126714286D01*
X81684192Y-126712218D01*
X81452559Y-126597989D01*
X81452556Y-126597988D01*
X81448371Y-126595924D01*
X81193497Y-126514338D01*
X80984087Y-126480234D01*
X80933976Y-126472073D01*
X80933975Y-126472073D01*
X80929364Y-126471322D01*
X80790184Y-126469500D01*
X80666451Y-126467880D01*
X80666448Y-126467880D01*
X80661774Y-126467819D01*
X80396605Y-126503907D01*
X80392118Y-126505215D01*
X80392117Y-126505215D01*
X80360817Y-126514338D01*
X80139683Y-126578792D01*
X80135430Y-126580752D01*
X80135429Y-126580753D01*
X80083512Y-126604687D01*
X79896652Y-126690831D01*
X79892743Y-126693394D01*
X79676764Y-126834996D01*
X79676759Y-126835000D01*
X79672851Y-126837562D01*
X79669359Y-126840679D01*
X79586734Y-126914424D01*
X79522593Y-126944862D01*
X79452178Y-126935790D01*
X79416500Y-126912196D01*
X79371670Y-126870024D01*
X79371667Y-126870022D01*
X79368269Y-126866825D01*
X79148385Y-126714286D01*
X79144192Y-126712218D01*
X78912559Y-126597989D01*
X78912556Y-126597988D01*
X78908371Y-126595924D01*
X78653497Y-126514338D01*
X78444087Y-126480234D01*
X78393976Y-126472073D01*
X78393975Y-126472073D01*
X78389364Y-126471322D01*
X78250184Y-126469500D01*
X78126451Y-126467880D01*
X78126448Y-126467880D01*
X78121774Y-126467819D01*
X77856605Y-126503907D01*
X77852118Y-126505215D01*
X77852117Y-126505215D01*
X77820817Y-126514338D01*
X77599683Y-126578792D01*
X77595430Y-126580752D01*
X77595429Y-126580753D01*
X77543512Y-126604687D01*
X77356652Y-126690831D01*
X77352743Y-126693394D01*
X77136764Y-126834996D01*
X77136759Y-126835000D01*
X77132851Y-126837562D01*
X77129359Y-126840679D01*
X77046734Y-126914424D01*
X76982593Y-126944862D01*
X76912178Y-126935790D01*
X76876500Y-126912196D01*
X76831670Y-126870024D01*
X76831667Y-126870022D01*
X76828269Y-126866825D01*
X76608385Y-126714286D01*
X76604192Y-126712218D01*
X76372559Y-126597989D01*
X76372556Y-126597988D01*
X76368371Y-126595924D01*
X76113497Y-126514338D01*
X75904087Y-126480234D01*
X75853976Y-126472073D01*
X75853975Y-126472073D01*
X75849364Y-126471322D01*
X75710184Y-126469500D01*
X75586451Y-126467880D01*
X75586448Y-126467880D01*
X75581774Y-126467819D01*
X75316605Y-126503907D01*
X75312118Y-126505215D01*
X75312117Y-126505215D01*
X75280817Y-126514338D01*
X75059683Y-126578792D01*
X75055430Y-126580752D01*
X75055429Y-126580753D01*
X75003512Y-126604687D01*
X74816652Y-126690831D01*
X74812743Y-126693394D01*
X74596764Y-126834996D01*
X74596759Y-126835000D01*
X74592851Y-126837562D01*
X74589359Y-126840679D01*
X74506734Y-126914424D01*
X74442593Y-126944862D01*
X74372178Y-126935790D01*
X74336500Y-126912196D01*
X74291670Y-126870024D01*
X74291667Y-126870022D01*
X74288269Y-126866825D01*
X74068385Y-126714286D01*
X74064192Y-126712218D01*
X73832559Y-126597989D01*
X73832556Y-126597988D01*
X73828371Y-126595924D01*
X73573497Y-126514338D01*
X73364087Y-126480234D01*
X73313976Y-126472073D01*
X73313975Y-126472073D01*
X73309364Y-126471322D01*
X73170184Y-126469500D01*
X73046451Y-126467880D01*
X73046448Y-126467880D01*
X73041774Y-126467819D01*
X72776605Y-126503907D01*
X72772118Y-126505215D01*
X72772117Y-126505215D01*
X72740817Y-126514338D01*
X72519683Y-126578792D01*
X72515430Y-126580752D01*
X72515429Y-126580753D01*
X72463512Y-126604687D01*
X72276652Y-126690831D01*
X72272743Y-126693394D01*
X72056764Y-126834996D01*
X72056759Y-126835000D01*
X72052851Y-126837562D01*
X71969231Y-126912196D01*
X71932632Y-126944862D01*
X71853197Y-127015760D01*
X71682075Y-127221512D01*
X71679653Y-127225504D01*
X71679652Y-127225505D01*
X71627590Y-127311301D01*
X71543244Y-127450298D01*
X71439755Y-127697091D01*
X71373881Y-127956470D01*
X71347070Y-128222736D01*
X71359909Y-128490041D01*
X71412118Y-128752512D01*
X71502549Y-129004383D01*
X71629215Y-129240121D01*
X71632010Y-129243864D01*
X71632012Y-129243867D01*
X71662193Y-129284284D01*
X71789335Y-129454547D01*
X71792642Y-129457825D01*
X71792647Y-129457831D01*
X71968143Y-129631801D01*
X71979390Y-129642950D01*
X72195205Y-129801192D01*
X72199340Y-129803368D01*
X72199344Y-129803370D01*
X72328918Y-129871542D01*
X72432039Y-129925797D01*
X72436458Y-129927340D01*
X72680273Y-130012484D01*
X72680279Y-130012486D01*
X72684690Y-130014026D01*
X72947606Y-130063943D01*
X73074616Y-130068933D01*
X73210345Y-130074266D01*
X73210350Y-130074266D01*
X73215013Y-130074449D01*
X73310943Y-130063943D01*
X73476382Y-130045825D01*
X73476387Y-130045824D01*
X73481035Y-130045315D01*
X73566842Y-130022724D01*
X73735309Y-129978370D01*
X73739829Y-129977180D01*
X73864501Y-129923617D01*
X73981407Y-129873391D01*
X73981410Y-129873389D01*
X73985710Y-129871542D01*
X73989690Y-129869079D01*
X73989694Y-129869077D01*
X74209302Y-129733179D01*
X74209306Y-129733176D01*
X74213275Y-129730720D01*
X74338022Y-129625114D01*
X74402938Y-129596365D01*
X74473091Y-129607277D01*
X74508143Y-129631801D01*
X74519390Y-129642950D01*
X74735205Y-129801192D01*
X74739340Y-129803368D01*
X74739344Y-129803370D01*
X74868918Y-129871542D01*
X74972039Y-129925797D01*
X74976458Y-129927340D01*
X75220273Y-130012484D01*
X75220279Y-130012486D01*
X75224690Y-130014026D01*
X75487606Y-130063943D01*
X75614616Y-130068933D01*
X75750345Y-130074266D01*
X75750350Y-130074266D01*
X75755013Y-130074449D01*
X75850943Y-130063943D01*
X76016382Y-130045825D01*
X76016387Y-130045824D01*
X76021035Y-130045315D01*
X76106842Y-130022724D01*
X76275309Y-129978370D01*
X76279829Y-129977180D01*
X76404501Y-129923617D01*
X76521407Y-129873391D01*
X76521410Y-129873389D01*
X76525710Y-129871542D01*
X76529690Y-129869079D01*
X76529694Y-129869077D01*
X76749302Y-129733179D01*
X76749306Y-129733176D01*
X76753275Y-129730720D01*
X76878022Y-129625114D01*
X76942938Y-129596365D01*
X77013091Y-129607277D01*
X77048143Y-129631801D01*
X77059390Y-129642950D01*
X77275205Y-129801192D01*
X77279340Y-129803368D01*
X77279344Y-129803370D01*
X77408918Y-129871542D01*
X77512039Y-129925797D01*
X77516458Y-129927340D01*
X77760273Y-130012484D01*
X77760279Y-130012486D01*
X77764690Y-130014026D01*
X78027606Y-130063943D01*
X78154616Y-130068933D01*
X78290345Y-130074266D01*
X78290350Y-130074266D01*
X78295013Y-130074449D01*
X78390943Y-130063943D01*
X78556382Y-130045825D01*
X78556387Y-130045824D01*
X78561035Y-130045315D01*
X78646842Y-130022724D01*
X78815309Y-129978370D01*
X78819829Y-129977180D01*
X78944501Y-129923617D01*
X79061407Y-129873391D01*
X79061410Y-129873389D01*
X79065710Y-129871542D01*
X79069690Y-129869079D01*
X79069694Y-129869077D01*
X79289302Y-129733179D01*
X79289306Y-129733176D01*
X79293275Y-129730720D01*
X79418022Y-129625114D01*
X79482938Y-129596365D01*
X79553091Y-129607277D01*
X79588143Y-129631801D01*
X79599390Y-129642950D01*
X79815205Y-129801192D01*
X79819340Y-129803368D01*
X79819344Y-129803370D01*
X79948918Y-129871542D01*
X80052039Y-129925797D01*
X80056458Y-129927340D01*
X80300273Y-130012484D01*
X80300279Y-130012486D01*
X80304690Y-130014026D01*
X80567606Y-130063943D01*
X80694616Y-130068933D01*
X80830345Y-130074266D01*
X80830350Y-130074266D01*
X80835013Y-130074449D01*
X80930943Y-130063943D01*
X81096382Y-130045825D01*
X81096387Y-130045824D01*
X81101035Y-130045315D01*
X81186842Y-130022724D01*
X81355309Y-129978370D01*
X81359829Y-129977180D01*
X81484501Y-129923617D01*
X81601407Y-129873391D01*
X81601410Y-129873389D01*
X81605710Y-129871542D01*
X81609690Y-129869079D01*
X81609694Y-129869077D01*
X81829302Y-129733179D01*
X81829306Y-129733176D01*
X81833275Y-129730720D01*
X81958022Y-129625114D01*
X82022938Y-129596365D01*
X82093091Y-129607277D01*
X82128143Y-129631801D01*
X82139390Y-129642950D01*
X82355205Y-129801192D01*
X82359340Y-129803368D01*
X82359344Y-129803370D01*
X82488918Y-129871542D01*
X82592039Y-129925797D01*
X82596458Y-129927340D01*
X82840273Y-130012484D01*
X82840279Y-130012486D01*
X82844690Y-130014026D01*
X83107606Y-130063943D01*
X83234616Y-130068933D01*
X83370345Y-130074266D01*
X83370350Y-130074266D01*
X83375013Y-130074449D01*
X83470943Y-130063943D01*
X83636382Y-130045825D01*
X83636387Y-130045824D01*
X83641035Y-130045315D01*
X83726842Y-130022724D01*
X83895309Y-129978370D01*
X83899829Y-129977180D01*
X84024501Y-129923617D01*
X84141407Y-129873391D01*
X84141410Y-129873389D01*
X84145710Y-129871542D01*
X84149690Y-129869079D01*
X84149694Y-129869077D01*
X84369302Y-129733179D01*
X84369306Y-129733176D01*
X84373275Y-129730720D01*
X84498022Y-129625114D01*
X84562938Y-129596365D01*
X84633091Y-129607277D01*
X84668143Y-129631801D01*
X84679390Y-129642950D01*
X84895205Y-129801192D01*
X84899340Y-129803368D01*
X84899344Y-129803370D01*
X85028918Y-129871542D01*
X85132039Y-129925797D01*
X85136458Y-129927340D01*
X85380273Y-130012484D01*
X85380279Y-130012486D01*
X85384690Y-130014026D01*
X85647606Y-130063943D01*
X85774616Y-130068933D01*
X85910345Y-130074266D01*
X85910350Y-130074266D01*
X85915013Y-130074449D01*
X86010943Y-130063943D01*
X86176382Y-130045825D01*
X86176387Y-130045824D01*
X86181035Y-130045315D01*
X86266842Y-130022724D01*
X86435309Y-129978370D01*
X86439829Y-129977180D01*
X86564501Y-129923617D01*
X86681407Y-129873391D01*
X86681410Y-129873389D01*
X86685710Y-129871542D01*
X86689690Y-129869079D01*
X86689694Y-129869077D01*
X86909302Y-129733179D01*
X86909306Y-129733176D01*
X86913275Y-129730720D01*
X87038022Y-129625114D01*
X87102938Y-129596365D01*
X87173091Y-129607277D01*
X87208143Y-129631801D01*
X87219390Y-129642950D01*
X87435205Y-129801192D01*
X87439340Y-129803368D01*
X87439344Y-129803370D01*
X87568918Y-129871542D01*
X87672039Y-129925797D01*
X87676458Y-129927340D01*
X87920273Y-130012484D01*
X87920279Y-130012486D01*
X87924690Y-130014026D01*
X88187606Y-130063943D01*
X88314616Y-130068933D01*
X88450345Y-130074266D01*
X88450350Y-130074266D01*
X88455013Y-130074449D01*
X88550943Y-130063943D01*
X88716382Y-130045825D01*
X88716387Y-130045824D01*
X88721035Y-130045315D01*
X88806842Y-130022724D01*
X88975309Y-129978370D01*
X88979829Y-129977180D01*
X89104501Y-129923617D01*
X89221407Y-129873391D01*
X89221410Y-129873389D01*
X89225710Y-129871542D01*
X89364198Y-129785843D01*
X89432649Y-129767005D01*
X89500418Y-129788166D01*
X89545990Y-129842607D01*
X89556500Y-129892987D01*
X89556500Y-131020482D01*
X89556185Y-131029381D01*
X89551661Y-131093274D01*
X89552187Y-131098588D01*
X89556286Y-131140027D01*
X89556866Y-131149572D01*
X89561605Y-131358382D01*
X89562563Y-131363454D01*
X89562564Y-131363460D01*
X89566214Y-131382774D01*
X89607417Y-131600833D01*
X89692211Y-131832545D01*
X89694755Y-131837041D01*
X89694757Y-131837046D01*
X89773790Y-131976736D01*
X89813712Y-132047297D01*
X89940917Y-132204945D01*
X89943296Y-132207324D01*
X91059147Y-133323174D01*
X91070812Y-133336616D01*
X91071830Y-133337971D01*
X91076083Y-133343636D01*
X91079825Y-133347212D01*
X91079826Y-133347213D01*
X91154516Y-133418588D01*
X91156560Y-133420587D01*
X91185219Y-133449246D01*
X91187177Y-133450906D01*
X91187184Y-133450913D01*
X91194619Y-133457218D01*
X91200173Y-133462219D01*
X91254468Y-133514104D01*
X91258740Y-133517018D01*
X91285965Y-133535590D01*
X91296454Y-133543580D01*
X91325531Y-133568239D01*
X91329964Y-133570892D01*
X91389973Y-133606807D01*
X91396270Y-133610835D01*
X91458300Y-133653149D01*
X91462987Y-133655325D01*
X91462993Y-133655328D01*
X91492887Y-133669204D01*
X91504532Y-133675370D01*
X91537250Y-133694951D01*
X91542057Y-133696844D01*
X91542060Y-133696846D01*
X91607122Y-133722474D01*
X91613994Y-133725419D01*
X91682104Y-133757035D01*
X91687089Y-133758417D01*
X91687093Y-133758419D01*
X91718843Y-133767224D01*
X91731338Y-133771404D01*
X91766822Y-133785381D01*
X91771883Y-133786466D01*
X91840229Y-133801119D01*
X91847487Y-133802901D01*
X91908489Y-133819818D01*
X91919871Y-133822974D01*
X91957780Y-133827025D01*
X91970802Y-133829112D01*
X92003016Y-133836018D01*
X92003024Y-133836019D01*
X92008080Y-133837103D01*
X92013239Y-133837346D01*
X92013244Y-133837347D01*
X92083085Y-133840641D01*
X92090534Y-133841214D01*
X92117950Y-133844143D01*
X92117952Y-133844143D01*
X92121292Y-133844500D01*
X92161968Y-133844500D01*
X92167902Y-133844640D01*
X92254546Y-133848726D01*
X92283190Y-133845361D01*
X92297891Y-133844500D01*
X107570000Y-133844500D01*
X107638121Y-133864502D01*
X107684614Y-133918158D01*
X107696000Y-133970500D01*
X107696000Y-137043000D01*
X66017500Y-137043000D01*
X65949379Y-137022998D01*
X65902886Y-136969342D01*
X65891500Y-136917000D01*
X65891500Y-120900941D01*
X65911502Y-120832820D01*
X65928405Y-120811846D01*
X66445846Y-120294405D01*
X66508158Y-120260379D01*
X66534941Y-120257500D01*
X98625482Y-120257500D01*
X98634381Y-120257815D01*
X98692946Y-120261962D01*
X98692949Y-120261962D01*
X98698274Y-120262339D01*
X98747187Y-120257500D01*
X98804018Y-120251878D01*
X98805768Y-120251717D01*
X98906285Y-120243188D01*
X98906290Y-120243187D01*
X98911595Y-120242737D01*
X98916752Y-120241399D01*
X98920990Y-120240674D01*
X98925258Y-120239883D01*
X98930571Y-120239357D01*
X99033021Y-120211234D01*
X99034708Y-120210783D01*
X99132377Y-120185433D01*
X99132379Y-120185432D01*
X99137539Y-120184093D01*
X99142400Y-120181903D01*
X99146522Y-120180452D01*
X99150535Y-120178975D01*
X99155675Y-120177564D01*
X99251892Y-120132595D01*
X99253467Y-120131872D01*
X99257823Y-120129910D01*
X99350373Y-120088219D01*
X99354792Y-120085244D01*
X99358516Y-120083172D01*
X99362320Y-120080984D01*
X99367149Y-120078727D01*
X99454373Y-120018218D01*
X99455824Y-120017226D01*
X99460133Y-120014325D01*
X99544010Y-119957855D01*
X99547873Y-119954171D01*
X99551809Y-119951006D01*
X99552294Y-119950629D01*
X99552289Y-119950623D01*
X99555536Y-119948038D01*
X99558946Y-119945672D01*
X99577065Y-119929186D01*
X99638185Y-119868066D01*
X99640308Y-119865991D01*
X99647919Y-119858730D01*
X99712913Y-119796729D01*
X99716100Y-119792446D01*
X99716104Y-119792441D01*
X99717284Y-119790855D01*
X99729277Y-119776974D01*
X102026767Y-117479483D01*
X102033282Y-117473412D01*
X102077643Y-117434918D01*
X102077645Y-117434916D01*
X102081676Y-117431418D01*
X102085059Y-117427292D01*
X102085063Y-117427288D01*
X102120779Y-117383729D01*
X102149098Y-117349192D01*
X102150139Y-117347940D01*
X102218656Y-117266717D01*
X102221360Y-117262118D01*
X102223902Y-117258527D01*
X102226308Y-117255027D01*
X102229684Y-117250909D01*
X102282271Y-117158526D01*
X102283072Y-117157140D01*
X102336955Y-117065483D01*
X102338846Y-117060491D01*
X102340746Y-117056526D01*
X102342528Y-117052670D01*
X102345162Y-117048042D01*
X102352771Y-117027082D01*
X102381407Y-116948189D01*
X102382019Y-116946539D01*
X102417770Y-116852175D01*
X102419658Y-116847193D01*
X102420678Y-116841968D01*
X102421847Y-116837867D01*
X102422990Y-116833630D01*
X102424809Y-116828619D01*
X102443706Y-116724120D01*
X102444031Y-116722392D01*
X102463376Y-116623328D01*
X102464399Y-116618090D01*
X102464525Y-116612754D01*
X102465070Y-116607736D01*
X102465171Y-116607126D01*
X102465139Y-116607122D01*
X102465607Y-116603003D01*
X102466346Y-116598914D01*
X102467500Y-116574445D01*
X102467500Y-116487973D01*
X102467535Y-116485005D01*
X102469772Y-116390061D01*
X102469898Y-116384724D01*
X102468836Y-116377487D01*
X102467500Y-116359190D01*
X102467500Y-114657525D01*
X102487502Y-114589404D01*
X102541158Y-114542911D01*
X102611432Y-114532807D01*
X102668002Y-114555911D01*
X102675205Y-114561192D01*
X102679340Y-114563368D01*
X102679344Y-114563370D01*
X102808918Y-114631542D01*
X102912039Y-114685797D01*
X102916458Y-114687340D01*
X103160273Y-114772484D01*
X103160279Y-114772486D01*
X103164690Y-114774026D01*
X103427606Y-114823943D01*
X103554616Y-114828933D01*
X103690345Y-114834266D01*
X103690350Y-114834266D01*
X103695013Y-114834449D01*
X103790943Y-114823943D01*
X103956382Y-114805825D01*
X103956387Y-114805824D01*
X103961035Y-114805315D01*
X104076567Y-114774898D01*
X104215309Y-114738370D01*
X104219829Y-114737180D01*
X104344501Y-114683617D01*
X104461407Y-114633391D01*
X104461410Y-114633389D01*
X104465710Y-114631542D01*
X104469690Y-114629079D01*
X104469694Y-114629077D01*
X104689302Y-114493179D01*
X104689306Y-114493176D01*
X104693275Y-114490720D01*
X104789930Y-114408896D01*
X104893960Y-114320828D01*
X104893961Y-114320827D01*
X104897526Y-114317809D01*
X105013986Y-114185012D01*
X105070900Y-114120115D01*
X105070903Y-114120111D01*
X105073976Y-114116607D01*
X105120496Y-114044283D01*
X105174169Y-113997813D01*
X105244447Y-113987737D01*
X105309016Y-114017255D01*
X105315561Y-114023352D01*
X105324125Y-114031916D01*
X105332533Y-114038972D01*
X105510993Y-114163931D01*
X105520489Y-114169414D01*
X105717947Y-114261490D01*
X105728239Y-114265236D01*
X105900503Y-114311394D01*
X105914599Y-114311058D01*
X105918000Y-114303116D01*
X105918000Y-111762033D01*
X105914027Y-111748502D01*
X105905478Y-111747273D01*
X105728239Y-111794764D01*
X105717947Y-111798510D01*
X105520489Y-111890586D01*
X105510993Y-111896069D01*
X105332533Y-112021028D01*
X105324125Y-112028084D01*
X105318467Y-112033742D01*
X105256155Y-112067768D01*
X105185340Y-112062703D01*
X105130214Y-112019289D01*
X105128868Y-112020350D01*
X104963190Y-111810189D01*
X104768269Y-111626825D01*
X104548385Y-111474286D01*
X104544194Y-111472219D01*
X104312559Y-111357989D01*
X104312556Y-111357988D01*
X104308371Y-111355924D01*
X104053497Y-111274338D01*
X103908134Y-111250665D01*
X103793976Y-111232073D01*
X103793975Y-111232073D01*
X103789364Y-111231322D01*
X103655569Y-111229571D01*
X103526451Y-111227880D01*
X103526448Y-111227880D01*
X103521774Y-111227819D01*
X103256605Y-111263907D01*
X103252118Y-111265215D01*
X103252117Y-111265215D01*
X103220817Y-111274338D01*
X102999683Y-111338792D01*
X102995430Y-111340752D01*
X102995429Y-111340753D01*
X102943512Y-111364687D01*
X102756652Y-111450831D01*
X102752743Y-111453394D01*
X102536764Y-111594996D01*
X102536759Y-111595000D01*
X102532851Y-111597562D01*
X102529359Y-111600679D01*
X102446734Y-111674424D01*
X102382593Y-111704862D01*
X102312178Y-111695790D01*
X102276500Y-111672196D01*
X102231670Y-111630024D01*
X102231667Y-111630022D01*
X102228269Y-111626825D01*
X102008385Y-111474286D01*
X102004194Y-111472219D01*
X101772559Y-111357989D01*
X101772556Y-111357988D01*
X101768371Y-111355924D01*
X101513497Y-111274338D01*
X101368134Y-111250665D01*
X101253976Y-111232073D01*
X101253975Y-111232073D01*
X101249364Y-111231322D01*
X101115569Y-111229571D01*
X100986451Y-111227880D01*
X100986448Y-111227880D01*
X100981774Y-111227819D01*
X100716605Y-111263907D01*
X100712118Y-111265215D01*
X100712117Y-111265215D01*
X100680817Y-111274338D01*
X100459683Y-111338792D01*
X100455430Y-111340752D01*
X100455429Y-111340753D01*
X100403512Y-111364687D01*
X100216652Y-111450831D01*
X100212743Y-111453394D01*
X99996764Y-111594996D01*
X99996759Y-111595000D01*
X99992851Y-111597562D01*
X99989359Y-111600679D01*
X99906734Y-111674424D01*
X99842593Y-111704862D01*
X99772178Y-111695790D01*
X99736500Y-111672196D01*
X99691670Y-111630024D01*
X99691667Y-111630022D01*
X99688269Y-111626825D01*
X99468385Y-111474286D01*
X99464194Y-111472219D01*
X99232559Y-111357989D01*
X99232556Y-111357988D01*
X99228371Y-111355924D01*
X98973497Y-111274338D01*
X98828134Y-111250665D01*
X98713976Y-111232073D01*
X98713975Y-111232073D01*
X98709364Y-111231322D01*
X98575569Y-111229571D01*
X98446451Y-111227880D01*
X98446448Y-111227880D01*
X98441774Y-111227819D01*
X98176605Y-111263907D01*
X98172118Y-111265215D01*
X98172117Y-111265215D01*
X98140817Y-111274338D01*
X97919683Y-111338792D01*
X97915430Y-111340752D01*
X97915429Y-111340753D01*
X97863512Y-111364687D01*
X97676652Y-111450831D01*
X97672743Y-111453394D01*
X97456764Y-111594996D01*
X97456759Y-111595000D01*
X97452851Y-111597562D01*
X97449359Y-111600679D01*
X97366734Y-111674424D01*
X97302593Y-111704862D01*
X97232178Y-111695790D01*
X97196500Y-111672196D01*
X97151670Y-111630024D01*
X97151667Y-111630022D01*
X97148269Y-111626825D01*
X96928385Y-111474286D01*
X96924194Y-111472219D01*
X96692559Y-111357989D01*
X96692556Y-111357988D01*
X96688371Y-111355924D01*
X96433497Y-111274338D01*
X96288134Y-111250665D01*
X96173976Y-111232073D01*
X96173975Y-111232073D01*
X96169364Y-111231322D01*
X96035569Y-111229571D01*
X95906451Y-111227880D01*
X95906448Y-111227880D01*
X95901774Y-111227819D01*
X95636605Y-111263907D01*
X95632118Y-111265215D01*
X95632117Y-111265215D01*
X95600817Y-111274338D01*
X95379683Y-111338792D01*
X95375430Y-111340752D01*
X95375429Y-111340753D01*
X95323512Y-111364687D01*
X95136652Y-111450831D01*
X95132743Y-111453394D01*
X94916764Y-111594996D01*
X94916759Y-111595000D01*
X94912851Y-111597562D01*
X94909359Y-111600679D01*
X94826734Y-111674424D01*
X94762593Y-111704862D01*
X94692178Y-111695790D01*
X94656500Y-111672196D01*
X94611670Y-111630024D01*
X94611667Y-111630022D01*
X94608269Y-111626825D01*
X94388385Y-111474286D01*
X94384194Y-111472219D01*
X94152559Y-111357989D01*
X94152556Y-111357988D01*
X94148371Y-111355924D01*
X93893497Y-111274338D01*
X93748134Y-111250665D01*
X93633976Y-111232073D01*
X93633975Y-111232073D01*
X93629364Y-111231322D01*
X93495569Y-111229571D01*
X93366451Y-111227880D01*
X93366448Y-111227880D01*
X93361774Y-111227819D01*
X93096605Y-111263907D01*
X93092118Y-111265215D01*
X93092117Y-111265215D01*
X93060817Y-111274338D01*
X92839683Y-111338792D01*
X92835430Y-111340752D01*
X92835429Y-111340753D01*
X92783512Y-111364687D01*
X92596652Y-111450831D01*
X92592743Y-111453394D01*
X92376764Y-111594996D01*
X92376759Y-111595000D01*
X92372851Y-111597562D01*
X92369359Y-111600679D01*
X92286734Y-111674424D01*
X92222593Y-111704862D01*
X92152178Y-111695790D01*
X92116500Y-111672196D01*
X92071670Y-111630024D01*
X92071667Y-111630022D01*
X92068269Y-111626825D01*
X91848385Y-111474286D01*
X91844194Y-111472219D01*
X91612559Y-111357989D01*
X91612556Y-111357988D01*
X91608371Y-111355924D01*
X91353497Y-111274338D01*
X91208134Y-111250665D01*
X91093976Y-111232073D01*
X91093975Y-111232073D01*
X91089364Y-111231322D01*
X90955569Y-111229571D01*
X90826451Y-111227880D01*
X90826448Y-111227880D01*
X90821774Y-111227819D01*
X90556605Y-111263907D01*
X90552118Y-111265215D01*
X90552117Y-111265215D01*
X90520817Y-111274338D01*
X90299683Y-111338792D01*
X90295430Y-111340752D01*
X90295429Y-111340753D01*
X90243512Y-111364687D01*
X90056652Y-111450831D01*
X90052743Y-111453394D01*
X89836764Y-111594996D01*
X89836759Y-111595000D01*
X89832851Y-111597562D01*
X89829359Y-111600679D01*
X89746734Y-111674424D01*
X89682593Y-111704862D01*
X89612178Y-111695790D01*
X89576500Y-111672196D01*
X89531670Y-111630024D01*
X89531667Y-111630022D01*
X89528269Y-111626825D01*
X89308385Y-111474286D01*
X89304194Y-111472219D01*
X89072559Y-111357989D01*
X89072556Y-111357988D01*
X89068371Y-111355924D01*
X88813497Y-111274338D01*
X88668134Y-111250665D01*
X88553976Y-111232073D01*
X88553975Y-111232073D01*
X88549364Y-111231322D01*
X88415569Y-111229571D01*
X88286451Y-111227880D01*
X88286448Y-111227880D01*
X88281774Y-111227819D01*
X88016605Y-111263907D01*
X88012118Y-111265215D01*
X88012117Y-111265215D01*
X87980817Y-111274338D01*
X87759683Y-111338792D01*
X87755430Y-111340752D01*
X87755429Y-111340753D01*
X87703512Y-111364687D01*
X87516652Y-111450831D01*
X87512743Y-111453394D01*
X87296764Y-111594996D01*
X87296759Y-111595000D01*
X87292851Y-111597562D01*
X87289359Y-111600679D01*
X87206734Y-111674424D01*
X87142593Y-111704862D01*
X87072178Y-111695790D01*
X87036500Y-111672196D01*
X86991670Y-111630024D01*
X86991667Y-111630022D01*
X86988269Y-111626825D01*
X86768385Y-111474286D01*
X86764194Y-111472219D01*
X86532559Y-111357989D01*
X86532556Y-111357988D01*
X86528371Y-111355924D01*
X86273497Y-111274338D01*
X86128134Y-111250665D01*
X86013976Y-111232073D01*
X86013975Y-111232073D01*
X86009364Y-111231322D01*
X85875569Y-111229571D01*
X85746451Y-111227880D01*
X85746448Y-111227880D01*
X85741774Y-111227819D01*
X85476605Y-111263907D01*
X85472118Y-111265215D01*
X85472117Y-111265215D01*
X85440817Y-111274338D01*
X85219683Y-111338792D01*
X85215430Y-111340752D01*
X85215429Y-111340753D01*
X85163512Y-111364687D01*
X84976652Y-111450831D01*
X84972743Y-111453394D01*
X84756764Y-111594996D01*
X84756759Y-111595000D01*
X84752851Y-111597562D01*
X84749359Y-111600679D01*
X84666734Y-111674424D01*
X84602593Y-111704862D01*
X84532178Y-111695790D01*
X84496500Y-111672196D01*
X84451670Y-111630024D01*
X84451667Y-111630022D01*
X84448269Y-111626825D01*
X84228385Y-111474286D01*
X84224194Y-111472219D01*
X83992559Y-111357989D01*
X83992556Y-111357988D01*
X83988371Y-111355924D01*
X83733497Y-111274338D01*
X83588134Y-111250665D01*
X83473976Y-111232073D01*
X83473975Y-111232073D01*
X83469364Y-111231322D01*
X83335569Y-111229571D01*
X83206451Y-111227880D01*
X83206448Y-111227880D01*
X83201774Y-111227819D01*
X82936605Y-111263907D01*
X82932118Y-111265215D01*
X82932117Y-111265215D01*
X82900817Y-111274338D01*
X82679683Y-111338792D01*
X82675430Y-111340752D01*
X82675429Y-111340753D01*
X82623512Y-111364687D01*
X82436652Y-111450831D01*
X82432743Y-111453394D01*
X82216764Y-111594996D01*
X82216759Y-111595000D01*
X82212851Y-111597562D01*
X82209359Y-111600679D01*
X82126734Y-111674424D01*
X82062593Y-111704862D01*
X81992178Y-111695790D01*
X81956500Y-111672196D01*
X81911670Y-111630024D01*
X81911667Y-111630022D01*
X81908269Y-111626825D01*
X81688385Y-111474286D01*
X81684194Y-111472219D01*
X81452559Y-111357989D01*
X81452556Y-111357988D01*
X81448371Y-111355924D01*
X81193497Y-111274338D01*
X81048134Y-111250665D01*
X80933976Y-111232073D01*
X80933975Y-111232073D01*
X80929364Y-111231322D01*
X80795569Y-111229571D01*
X80666451Y-111227880D01*
X80666448Y-111227880D01*
X80661774Y-111227819D01*
X80396605Y-111263907D01*
X80392118Y-111265215D01*
X80392117Y-111265215D01*
X80360817Y-111274338D01*
X80139683Y-111338792D01*
X80135430Y-111340752D01*
X80135429Y-111340753D01*
X80083512Y-111364687D01*
X79896652Y-111450831D01*
X79892743Y-111453394D01*
X79676764Y-111594996D01*
X79676759Y-111595000D01*
X79672851Y-111597562D01*
X79669359Y-111600679D01*
X79586734Y-111674424D01*
X79522593Y-111704862D01*
X79452178Y-111695790D01*
X79416500Y-111672196D01*
X79371670Y-111630024D01*
X79371667Y-111630022D01*
X79368269Y-111626825D01*
X79148385Y-111474286D01*
X79144194Y-111472219D01*
X78912559Y-111357989D01*
X78912556Y-111357988D01*
X78908371Y-111355924D01*
X78653497Y-111274338D01*
X78508134Y-111250665D01*
X78393976Y-111232073D01*
X78393975Y-111232073D01*
X78389364Y-111231322D01*
X78255569Y-111229571D01*
X78126451Y-111227880D01*
X78126448Y-111227880D01*
X78121774Y-111227819D01*
X77856605Y-111263907D01*
X77852118Y-111265215D01*
X77852117Y-111265215D01*
X77820817Y-111274338D01*
X77599683Y-111338792D01*
X77595430Y-111340752D01*
X77595429Y-111340753D01*
X77543512Y-111364687D01*
X77356652Y-111450831D01*
X77352743Y-111453394D01*
X77136764Y-111594996D01*
X77136759Y-111595000D01*
X77132851Y-111597562D01*
X77129359Y-111600679D01*
X77046734Y-111674424D01*
X76982593Y-111704862D01*
X76912178Y-111695790D01*
X76876500Y-111672196D01*
X76831670Y-111630024D01*
X76831667Y-111630022D01*
X76828269Y-111626825D01*
X76608385Y-111474286D01*
X76604194Y-111472219D01*
X76372559Y-111357989D01*
X76372556Y-111357988D01*
X76368371Y-111355924D01*
X76113497Y-111274338D01*
X75968134Y-111250665D01*
X75853976Y-111232073D01*
X75853975Y-111232073D01*
X75849364Y-111231322D01*
X75715569Y-111229571D01*
X75586451Y-111227880D01*
X75586448Y-111227880D01*
X75581774Y-111227819D01*
X75316605Y-111263907D01*
X75312118Y-111265215D01*
X75312117Y-111265215D01*
X75280817Y-111274338D01*
X75059683Y-111338792D01*
X75055430Y-111340752D01*
X75055429Y-111340753D01*
X75003512Y-111364687D01*
X74816652Y-111450831D01*
X74812743Y-111453394D01*
X74596764Y-111594996D01*
X74596759Y-111595000D01*
X74592851Y-111597562D01*
X74589359Y-111600679D01*
X74506734Y-111674424D01*
X74442593Y-111704862D01*
X74372178Y-111695790D01*
X74336500Y-111672196D01*
X74291670Y-111630024D01*
X74291667Y-111630022D01*
X74288269Y-111626825D01*
X74068385Y-111474286D01*
X74064194Y-111472219D01*
X73832559Y-111357989D01*
X73832556Y-111357988D01*
X73828371Y-111355924D01*
X73573497Y-111274338D01*
X73428134Y-111250665D01*
X73313976Y-111232073D01*
X73313975Y-111232073D01*
X73309364Y-111231322D01*
X73175569Y-111229571D01*
X73046451Y-111227880D01*
X73046448Y-111227880D01*
X73041774Y-111227819D01*
X72776605Y-111263907D01*
X72772118Y-111265215D01*
X72772117Y-111265215D01*
X72740817Y-111274338D01*
X72519683Y-111338792D01*
X72515430Y-111340752D01*
X72515429Y-111340753D01*
X72463512Y-111364687D01*
X72276652Y-111450831D01*
X72272743Y-111453394D01*
X72056764Y-111594996D01*
X72056759Y-111595000D01*
X72052851Y-111597562D01*
X71969231Y-111672196D01*
X71888414Y-111744328D01*
X71853197Y-111775760D01*
X71850204Y-111779359D01*
X71704423Y-111954642D01*
X71682075Y-111981512D01*
X71679652Y-111985505D01*
X71564407Y-112175423D01*
X71543244Y-112210298D01*
X71439755Y-112457091D01*
X71373881Y-112716470D01*
X71347070Y-112982736D01*
X71359909Y-113250041D01*
X71412118Y-113512512D01*
X71502549Y-113764383D01*
X71629215Y-114000121D01*
X71632010Y-114003864D01*
X71632012Y-114003867D01*
X71662193Y-114044284D01*
X71789335Y-114214547D01*
X71792642Y-114217825D01*
X71792647Y-114217831D01*
X71963722Y-114387418D01*
X71979390Y-114402950D01*
X72195205Y-114561192D01*
X72199340Y-114563368D01*
X72199344Y-114563370D01*
X72328918Y-114631542D01*
X72432039Y-114685797D01*
X72436458Y-114687340D01*
X72680273Y-114772484D01*
X72680279Y-114772486D01*
X72684690Y-114774026D01*
X72947606Y-114823943D01*
X73074616Y-114828933D01*
X73210345Y-114834266D01*
X73210350Y-114834266D01*
X73215013Y-114834449D01*
X73310943Y-114823943D01*
X73476382Y-114805825D01*
X73476387Y-114805824D01*
X73481035Y-114805315D01*
X73596567Y-114774898D01*
X73735309Y-114738370D01*
X73739829Y-114737180D01*
X73864501Y-114683617D01*
X73981407Y-114633391D01*
X73981410Y-114633389D01*
X73985710Y-114631542D01*
X73989690Y-114629079D01*
X73989694Y-114629077D01*
X74209302Y-114493179D01*
X74209306Y-114493176D01*
X74213275Y-114490720D01*
X74338022Y-114385114D01*
X74402938Y-114356365D01*
X74473091Y-114367277D01*
X74508143Y-114391801D01*
X74519390Y-114402950D01*
X74735205Y-114561192D01*
X74739340Y-114563368D01*
X74739344Y-114563370D01*
X74868918Y-114631542D01*
X74972039Y-114685797D01*
X74976458Y-114687340D01*
X75220273Y-114772484D01*
X75220279Y-114772486D01*
X75224690Y-114774026D01*
X75487606Y-114823943D01*
X75614616Y-114828933D01*
X75750345Y-114834266D01*
X75750350Y-114834266D01*
X75755013Y-114834449D01*
X75850943Y-114823943D01*
X76016382Y-114805825D01*
X76016387Y-114805824D01*
X76021035Y-114805315D01*
X76136567Y-114774898D01*
X76275309Y-114738370D01*
X76279829Y-114737180D01*
X76404501Y-114683617D01*
X76521407Y-114633391D01*
X76521410Y-114633389D01*
X76525710Y-114631542D01*
X76529690Y-114629079D01*
X76529694Y-114629077D01*
X76749302Y-114493179D01*
X76749306Y-114493176D01*
X76753275Y-114490720D01*
X76878022Y-114385114D01*
X76942938Y-114356365D01*
X77013091Y-114367277D01*
X77048143Y-114391801D01*
X77059390Y-114402950D01*
X77275205Y-114561192D01*
X77279340Y-114563368D01*
X77279344Y-114563370D01*
X77408918Y-114631542D01*
X77512039Y-114685797D01*
X77516458Y-114687340D01*
X77760273Y-114772484D01*
X77760279Y-114772486D01*
X77764690Y-114774026D01*
X78027606Y-114823943D01*
X78154616Y-114828933D01*
X78290345Y-114834266D01*
X78290350Y-114834266D01*
X78295013Y-114834449D01*
X78390943Y-114823943D01*
X78556382Y-114805825D01*
X78556387Y-114805824D01*
X78561035Y-114805315D01*
X78676567Y-114774898D01*
X78815309Y-114738370D01*
X78819829Y-114737180D01*
X78944501Y-114683617D01*
X79061407Y-114633391D01*
X79061410Y-114633389D01*
X79065710Y-114631542D01*
X79204198Y-114545843D01*
X79272649Y-114527005D01*
X79340418Y-114548166D01*
X79385990Y-114602607D01*
X79396500Y-114652987D01*
X79396500Y-114958059D01*
X79376498Y-115026180D01*
X79359595Y-115047154D01*
X79350154Y-115056595D01*
X79287842Y-115090621D01*
X79261059Y-115093500D01*
X63045517Y-115093500D01*
X63036618Y-115093185D01*
X62978053Y-115089038D01*
X62978050Y-115089038D01*
X62972725Y-115088661D01*
X62939101Y-115091988D01*
X62866966Y-115099124D01*
X62865214Y-115099285D01*
X62764717Y-115107812D01*
X62764714Y-115107813D01*
X62759405Y-115108263D01*
X62754247Y-115109602D01*
X62749998Y-115110328D01*
X62745740Y-115111117D01*
X62740429Y-115111643D01*
X62637992Y-115139763D01*
X62636292Y-115140217D01*
X62538623Y-115165567D01*
X62538621Y-115165568D01*
X62533461Y-115166907D01*
X62528600Y-115169097D01*
X62524478Y-115170548D01*
X62520464Y-115172025D01*
X62515325Y-115173436D01*
X62418990Y-115218460D01*
X62417520Y-115219134D01*
X62332091Y-115257617D01*
X62320627Y-115262781D01*
X62316197Y-115265763D01*
X62312481Y-115267832D01*
X62308698Y-115270007D01*
X62303850Y-115272273D01*
X62234949Y-115320072D01*
X62216578Y-115332816D01*
X62215125Y-115333809D01*
X62126990Y-115393145D01*
X62123127Y-115396830D01*
X62119202Y-115399986D01*
X62118703Y-115400357D01*
X62118716Y-115400373D01*
X62115467Y-115402960D01*
X62112053Y-115405328D01*
X62093935Y-115421814D01*
X62032815Y-115482934D01*
X62030692Y-115485009D01*
X61958087Y-115554271D01*
X61954904Y-115558550D01*
X61953721Y-115560140D01*
X61941723Y-115574027D01*
X60533233Y-116982517D01*
X60526718Y-116988588D01*
X60478324Y-117030582D01*
X60474941Y-117034708D01*
X60474937Y-117034712D01*
X60442848Y-117073848D01*
X60410902Y-117112808D01*
X60409861Y-117114060D01*
X60341344Y-117195283D01*
X60338640Y-117199882D01*
X60336098Y-117203473D01*
X60333692Y-117206973D01*
X60330316Y-117211091D01*
X60280853Y-117297988D01*
X60277752Y-117303435D01*
X60276928Y-117304860D01*
X60223045Y-117396517D01*
X60221154Y-117401509D01*
X60219254Y-117405474D01*
X60217472Y-117409330D01*
X60214838Y-117413958D01*
X60213021Y-117418963D01*
X60213019Y-117418968D01*
X60178593Y-117513811D01*
X60177981Y-117515461D01*
X60140342Y-117614807D01*
X60139322Y-117620032D01*
X60138153Y-117624133D01*
X60137010Y-117628370D01*
X60135191Y-117633381D01*
X60134242Y-117638630D01*
X60134241Y-117638633D01*
X60116294Y-117737880D01*
X60115969Y-117739608D01*
X60095601Y-117843910D01*
X60095475Y-117849246D01*
X60094930Y-117854264D01*
X60094829Y-117854874D01*
X60094861Y-117854878D01*
X60094393Y-117858997D01*
X60093654Y-117863086D01*
X60092500Y-117887555D01*
X60092500Y-117974027D01*
X60092465Y-117976995D01*
X60090102Y-118077276D01*
X60090878Y-118082562D01*
X60091164Y-118084513D01*
X60092500Y-118102810D01*
X60092500Y-136917000D01*
X60072498Y-136985121D01*
X60018842Y-137031614D01*
X59966500Y-137043000D01*
X59943000Y-137043000D01*
X59874879Y-137022998D01*
X59828386Y-136969342D01*
X59817000Y-136917000D01*
X59817000Y-125359000D01*
X49021000Y-125359000D01*
X48952879Y-125338998D01*
X48906386Y-125285342D01*
X48895000Y-125233000D01*
X48895000Y-118120000D01*
X48769369Y-106436354D01*
X48788638Y-106368023D01*
X48841790Y-106320956D01*
X48895362Y-106309000D01*
X106830909Y-106309000D01*
X106899030Y-106329002D01*
G37*
%TD.AperFunction*%
%TD*%
%TA.AperFunction,Conductor*%
%TO.N,GND1*%
G36*
X77089000Y-109230000D02*
G01*
X74041000Y-109230000D01*
X74041000Y-101102000D01*
X77089000Y-101102000D01*
X77089000Y-109230000D01*
G37*
%TD.AperFunction*%
%TD*%
%TA.AperFunction,Conductor*%
%TO.N,Drain*%
G36*
X164407121Y-62133002D02*
G01*
X164453614Y-62186658D01*
X164465000Y-62239000D01*
X164465000Y-68591000D01*
X164444998Y-68659121D01*
X164391342Y-68705614D01*
X164339000Y-68717000D01*
X156591000Y-68717000D01*
X156583624Y-68728715D01*
X154468074Y-72088705D01*
X154414852Y-72135694D01*
X154364312Y-72147538D01*
X153688113Y-72162906D01*
X153688112Y-72162906D01*
X153670000Y-72163318D01*
X148844000Y-72273000D01*
X148844000Y-62113000D01*
X164339000Y-62113000D01*
X164407121Y-62133002D01*
G37*
%TD.AperFunction*%
%TD*%
%TA.AperFunction,Conductor*%
%TO.N,V_in_arduino*%
G36*
X116381484Y-106530736D02*
G01*
X116449375Y-106551502D01*
X116495262Y-106605677D01*
X116504576Y-106676060D01*
X116478950Y-106734820D01*
X116476250Y-106738239D01*
X116391184Y-106876243D01*
X116385037Y-106889424D01*
X116333862Y-107043710D01*
X116330995Y-107057086D01*
X116321328Y-107151438D01*
X116321000Y-107157855D01*
X116321000Y-107257885D01*
X116325475Y-107273124D01*
X116326865Y-107274329D01*
X116334548Y-107276000D01*
X117857000Y-107276000D01*
X117925121Y-107296002D01*
X117971614Y-107349658D01*
X117983000Y-107402000D01*
X117983000Y-108594884D01*
X117987475Y-108610123D01*
X117988865Y-108611328D01*
X117996548Y-108612999D01*
X118426095Y-108612999D01*
X118432614Y-108612662D01*
X118528206Y-108602743D01*
X118541600Y-108599851D01*
X118695784Y-108548412D01*
X118708962Y-108542239D01*
X118846807Y-108456937D01*
X118858208Y-108447901D01*
X118972739Y-108333171D01*
X118981751Y-108321760D01*
X119019740Y-108260130D01*
X119072512Y-108212637D01*
X119142584Y-108201213D01*
X119207708Y-108229487D01*
X119247207Y-108288481D01*
X119253000Y-108326246D01*
X119253000Y-109738000D01*
X119265627Y-109738361D01*
X119265628Y-109738361D01*
X123575599Y-109861503D01*
X123643120Y-109883443D01*
X123688062Y-109938404D01*
X123698000Y-109987452D01*
X123698000Y-110109827D01*
X123677998Y-110177948D01*
X123658972Y-110200995D01*
X123598798Y-110258398D01*
X123537068Y-110317286D01*
X123519810Y-110333749D01*
X123517051Y-110337249D01*
X123517049Y-110337251D01*
X123442960Y-110431233D01*
X123385080Y-110472347D01*
X123314159Y-110475641D01*
X123265918Y-110452110D01*
X123243056Y-110434055D01*
X123234469Y-110428350D01*
X123033278Y-110317286D01*
X123023866Y-110313056D01*
X122807232Y-110236341D01*
X122797261Y-110233707D01*
X122699837Y-110216353D01*
X122686540Y-110217813D01*
X122682000Y-110232370D01*
X122682000Y-113167096D01*
X122685918Y-113180440D01*
X122700194Y-113182427D01*
X122762515Y-113172890D01*
X122772543Y-113170501D01*
X122990988Y-113099102D01*
X123000497Y-113095105D01*
X123204344Y-112988989D01*
X123213069Y-112983495D01*
X123266217Y-112943590D01*
X123332702Y-112918684D01*
X123402097Y-112933676D01*
X123443221Y-112969491D01*
X123479133Y-113018112D01*
X123482262Y-113021291D01*
X123482265Y-113021294D01*
X123661792Y-113203662D01*
X123695327Y-113266239D01*
X123698000Y-113292055D01*
X123698000Y-114185012D01*
X123677998Y-114253133D01*
X123624342Y-114299626D01*
X123573016Y-114311008D01*
X109383824Y-114425437D01*
X109315544Y-114405985D01*
X109268620Y-114352706D01*
X109257950Y-114282516D01*
X109286921Y-114217699D01*
X109329558Y-114185246D01*
X109363511Y-114169414D01*
X109373007Y-114163931D01*
X109551467Y-114038972D01*
X109559875Y-114031916D01*
X109713916Y-113877875D01*
X109720972Y-113869467D01*
X109845931Y-113691007D01*
X109851414Y-113681511D01*
X109943490Y-113484053D01*
X109947236Y-113473761D01*
X109993394Y-113301497D01*
X109993058Y-113287401D01*
X109985116Y-113284000D01*
X108584000Y-113284000D01*
X108515879Y-113263998D01*
X108469386Y-113210342D01*
X108458000Y-113158000D01*
X108458000Y-112757885D01*
X108966000Y-112757885D01*
X108970475Y-112773124D01*
X108971865Y-112774329D01*
X108979548Y-112776000D01*
X109979967Y-112776000D01*
X109993498Y-112772027D01*
X109994727Y-112763478D01*
X109947236Y-112586239D01*
X109943490Y-112575947D01*
X109851414Y-112378489D01*
X109845931Y-112368993D01*
X109720972Y-112190533D01*
X109713916Y-112182125D01*
X109559875Y-112028084D01*
X109551467Y-112021028D01*
X109477322Y-111969111D01*
X120980798Y-111969111D01*
X120981751Y-111980704D01*
X120983433Y-111990866D01*
X121039422Y-112213771D01*
X121042741Y-112223519D01*
X121134385Y-112434289D01*
X121139251Y-112443364D01*
X121264085Y-112636327D01*
X121270378Y-112644498D01*
X121425050Y-112814480D01*
X121432583Y-112821506D01*
X121612944Y-112963945D01*
X121621531Y-112969650D01*
X121822722Y-113080714D01*
X121832134Y-113084944D01*
X122048768Y-113161659D01*
X122058739Y-113164293D01*
X122156163Y-113181647D01*
X122169460Y-113180187D01*
X122174000Y-113165630D01*
X122174000Y-111971115D01*
X122169525Y-111955876D01*
X122168135Y-111954671D01*
X122160452Y-111953000D01*
X120997588Y-111953000D01*
X120982859Y-111957325D01*
X120980798Y-111969111D01*
X109477322Y-111969111D01*
X109373007Y-111896069D01*
X109363511Y-111890586D01*
X109166053Y-111798510D01*
X109155761Y-111794764D01*
X108983497Y-111748606D01*
X108969401Y-111748942D01*
X108966000Y-111756884D01*
X108966000Y-112757885D01*
X108458000Y-112757885D01*
X108458000Y-111762033D01*
X108454027Y-111748502D01*
X108445478Y-111747273D01*
X108268239Y-111794764D01*
X108257947Y-111798510D01*
X108129250Y-111858523D01*
X108059059Y-111869184D01*
X107994246Y-111840204D01*
X107955389Y-111780785D01*
X107950000Y-111744328D01*
X107950000Y-111426987D01*
X120983099Y-111426987D01*
X120985747Y-111441608D01*
X120998124Y-111445000D01*
X122155885Y-111445000D01*
X122171124Y-111440525D01*
X122172329Y-111439135D01*
X122174000Y-111431452D01*
X122174000Y-110230904D01*
X122170082Y-110217560D01*
X122155806Y-110215573D01*
X122093485Y-110225110D01*
X122083457Y-110227499D01*
X121865012Y-110298898D01*
X121855503Y-110302895D01*
X121651656Y-110409011D01*
X121642931Y-110414505D01*
X121459148Y-110552493D01*
X121451441Y-110559336D01*
X121292661Y-110725491D01*
X121286174Y-110733501D01*
X121156670Y-110923347D01*
X121151571Y-110932321D01*
X121054813Y-111140769D01*
X121051250Y-111150456D01*
X120989835Y-111371908D01*
X120987904Y-111382030D01*
X120983099Y-111426987D01*
X107950000Y-111426987D01*
X107950000Y-107902095D01*
X116321001Y-107902095D01*
X116321338Y-107908614D01*
X116331257Y-108004206D01*
X116334149Y-108017600D01*
X116385588Y-108171784D01*
X116391761Y-108184962D01*
X116477063Y-108322807D01*
X116486099Y-108334208D01*
X116600829Y-108448739D01*
X116612240Y-108457751D01*
X116750243Y-108542816D01*
X116763424Y-108548963D01*
X116917710Y-108600138D01*
X116931086Y-108603005D01*
X117025438Y-108612672D01*
X117031854Y-108613000D01*
X117456885Y-108613000D01*
X117472124Y-108608525D01*
X117473329Y-108607135D01*
X117475000Y-108599452D01*
X117475000Y-107802115D01*
X117470525Y-107786876D01*
X117469135Y-107785671D01*
X117461452Y-107784000D01*
X116339116Y-107784000D01*
X116323877Y-107788475D01*
X116322672Y-107789865D01*
X116321001Y-107797548D01*
X116321001Y-107902095D01*
X107950000Y-107902095D01*
X107950000Y-106563424D01*
X107970002Y-106495303D01*
X108023658Y-106448810D01*
X108077416Y-106437432D01*
X116381484Y-106530736D01*
G37*
%TD.AperFunction*%
%TD*%
%TA.AperFunction,Conductor*%
%TO.N,GND1*%
G36*
X118237000Y-137141470D02*
G01*
X118222134Y-137145804D01*
X118192191Y-137164965D01*
X118156928Y-137170000D01*
X106552000Y-137170000D01*
X106483879Y-137149998D01*
X106437386Y-137096342D01*
X106433360Y-137077836D01*
X106431104Y-137078498D01*
X106426000Y-137061116D01*
X106426000Y-134122000D01*
X118237000Y-134122000D01*
X118237000Y-137141470D01*
G37*
%TD.AperFunction*%
%TD*%
M02*
