%TF.GenerationSoftware,KiCad,Pcbnew,(6.0.10)*%
%TF.CreationDate,2023-01-04T09:35:26+03:00*%
%TF.ProjectId,ee463_project,65653436-335f-4707-926f-6a6563742e6b,rev?*%
%TF.SameCoordinates,Original*%
%TF.FileFunction,Soldermask,Top*%
%TF.FilePolarity,Negative*%
%FSLAX46Y46*%
G04 Gerber Fmt 4.6, Leading zero omitted, Abs format (unit mm)*
G04 Created by KiCad (PCBNEW (6.0.10)) date 2023-01-04 09:35:26*
%MOMM*%
%LPD*%
G01*
G04 APERTURE LIST*
G04 Aperture macros list*
%AMRoundRect*
0 Rectangle with rounded corners*
0 $1 Rounding radius*
0 $2 $3 $4 $5 $6 $7 $8 $9 X,Y pos of 4 corners*
0 Add a 4 corners polygon primitive as box body*
4,1,4,$2,$3,$4,$5,$6,$7,$8,$9,$2,$3,0*
0 Add four circle primitives for the rounded corners*
1,1,$1+$1,$2,$3*
1,1,$1+$1,$4,$5*
1,1,$1+$1,$6,$7*
1,1,$1+$1,$8,$9*
0 Add four rect primitives between the rounded corners*
20,1,$1+$1,$2,$3,$4,$5,0*
20,1,$1+$1,$4,$5,$6,$7,0*
20,1,$1+$1,$6,$7,$8,$9,0*
20,1,$1+$1,$8,$9,$2,$3,0*%
%AMHorizOval*
0 Thick line with rounded ends*
0 $1 width*
0 $2 $3 position (X,Y) of the first rounded end (center of the circle)*
0 $4 $5 position (X,Y) of the second rounded end (center of the circle)*
0 Add line between two ends*
20,1,$1,$2,$3,$4,$5,0*
0 Add two circle primitives to create the rounded ends*
1,1,$1,$2,$3*
1,1,$1,$4,$5*%
%AMRotRect*
0 Rectangle, with rotation*
0 The origin of the aperture is its center*
0 $1 length*
0 $2 width*
0 $3 Rotation angle, in degrees counterclockwise*
0 Add horizontal line*
21,1,$1,$2,0,0,$3*%
G04 Aperture macros list end*
%ADD10RoundRect,0.150000X0.150000X-0.825000X0.150000X0.825000X-0.150000X0.825000X-0.150000X-0.825000X0*%
%ADD11RoundRect,0.200000X-0.275000X0.200000X-0.275000X-0.200000X0.275000X-0.200000X0.275000X0.200000X0*%
%ADD12RoundRect,0.250000X-0.625000X0.312500X-0.625000X-0.312500X0.625000X-0.312500X0.625000X0.312500X0*%
%ADD13RoundRect,0.250000X-0.312500X-0.625000X0.312500X-0.625000X0.312500X0.625000X-0.312500X0.625000X0*%
%ADD14RoundRect,0.250000X0.312500X0.625000X-0.312500X0.625000X-0.312500X-0.625000X0.312500X-0.625000X0*%
%ADD15RoundRect,0.200000X0.200000X0.275000X-0.200000X0.275000X-0.200000X-0.275000X0.200000X-0.275000X0*%
%ADD16RoundRect,0.225000X-0.250000X0.225000X-0.250000X-0.225000X0.250000X-0.225000X0.250000X0.225000X0*%
%ADD17RoundRect,0.225000X-0.225000X-0.250000X0.225000X-0.250000X0.225000X0.250000X-0.225000X0.250000X0*%
%ADD18RoundRect,0.250000X0.650000X-0.325000X0.650000X0.325000X-0.650000X0.325000X-0.650000X-0.325000X0*%
%ADD19RoundRect,0.250000X0.325000X0.650000X-0.325000X0.650000X-0.325000X-0.650000X0.325000X-0.650000X0*%
%ADD20RoundRect,0.250000X0.625000X-0.312500X0.625000X0.312500X-0.625000X0.312500X-0.625000X-0.312500X0*%
%ADD21R,2.500000X4.500000*%
%ADD22O,2.500000X4.500000*%
%ADD23R,1.600000X1.600000*%
%ADD24O,1.600000X1.600000*%
%ADD25R,1.905000X2.000000*%
%ADD26O,1.905000X2.000000*%
%ADD27R,3.000000X3.000000*%
%ADD28C,3.000000*%
%ADD29RotRect,2.000000X2.000000X330.000000*%
%ADD30HorizOval,2.000000X0.000000X0.000000X0.000000X0.000000X0*%
%ADD31C,1.600000*%
G04 APERTURE END LIST*
D10*
%TO.C,U3*%
X115443000Y-127707000D03*
X116713000Y-127707000D03*
X117983000Y-127707000D03*
X119253000Y-127707000D03*
X119253000Y-122757000D03*
X117983000Y-122757000D03*
X116713000Y-122757000D03*
X115443000Y-122757000D03*
%TD*%
D11*
%TO.C,R8*%
X104140000Y-129170000D03*
X104140000Y-130820000D03*
%TD*%
D12*
%TO.C,R7*%
X113538000Y-115387500D03*
X113538000Y-118312500D03*
%TD*%
D13*
%TO.C,R6*%
X103439500Y-125740000D03*
X106364500Y-125740000D03*
%TD*%
D12*
%TO.C,R5*%
X152400000Y-106751500D03*
X152400000Y-109676500D03*
%TD*%
D14*
%TO.C,R4*%
X167832500Y-101864000D03*
X164907500Y-101864000D03*
%TD*%
D15*
%TO.C,D3*%
X105727000Y-132980000D03*
X104077000Y-132980000D03*
%TD*%
D16*
%TO.C,C9*%
X106426000Y-129157000D03*
X106426000Y-130707000D03*
%TD*%
D17*
%TO.C,C8*%
X117843000Y-117104000D03*
X119393000Y-117104000D03*
%TD*%
D18*
%TO.C,C7*%
X152400000Y-101815000D03*
X152400000Y-98865000D03*
%TD*%
%TO.C,C6*%
X164846000Y-99021000D03*
X164846000Y-96071000D03*
%TD*%
D19*
%TO.C,C3*%
X170893000Y-96276000D03*
X167943000Y-96276000D03*
%TD*%
%TO.C,C2*%
X171147000Y-89672000D03*
X168197000Y-89672000D03*
%TD*%
%TO.C,C1*%
X171147000Y-92974000D03*
X168197000Y-92974000D03*
%TD*%
D20*
%TO.C,R2*%
X176976500Y-93928500D03*
X176976500Y-91003500D03*
%TD*%
D21*
%TO.C,Q1*%
X177038000Y-74432000D03*
D22*
X171588000Y-74432000D03*
X166138000Y-74432000D03*
%TD*%
D23*
%TO.C,A1*%
X141478000Y-94508000D03*
D24*
X138938000Y-94508000D03*
X136398000Y-94508000D03*
X133858000Y-94508000D03*
X131318000Y-94508000D03*
X128778000Y-94508000D03*
X126238000Y-94508000D03*
X123698000Y-94508000D03*
X121158000Y-94508000D03*
X118618000Y-94508000D03*
X116078000Y-94508000D03*
X113538000Y-94508000D03*
X110998000Y-94508000D03*
X108458000Y-94508000D03*
X105918000Y-94508000D03*
X105918000Y-109748000D03*
X108458000Y-109748000D03*
X110998000Y-109748000D03*
X113538000Y-109748000D03*
X116078000Y-109748000D03*
X118618000Y-109748000D03*
X121158000Y-109748000D03*
X123698000Y-109748000D03*
X126238000Y-109748000D03*
X128778000Y-109748000D03*
X131318000Y-109748000D03*
X133858000Y-109748000D03*
X136398000Y-109748000D03*
X138938000Y-109748000D03*
X141478000Y-109748000D03*
%TD*%
D25*
%TO.C,U2*%
X164846000Y-106507000D03*
D26*
X162306000Y-106507000D03*
X159766000Y-106507000D03*
%TD*%
D27*
%TO.C,D2*%
X62460000Y-43420000D03*
D28*
X62460000Y-50920000D03*
X62460000Y-58420000D03*
X62460000Y-65920000D03*
X62460000Y-73420000D03*
%TD*%
D20*
%TO.C,R1*%
X177038000Y-112978500D03*
X177038000Y-110053500D03*
%TD*%
D29*
%TO.C,D1*%
X153283796Y-54168394D03*
D30*
X157683205Y-56708394D03*
%TD*%
D31*
%TO.C,C5*%
X125984000Y-55676000D03*
X125984000Y-60676000D03*
%TD*%
D23*
%TO.C,U1*%
X174508000Y-107696000D03*
D24*
X177048000Y-107696000D03*
X179588000Y-107696000D03*
X182128000Y-107696000D03*
X182128000Y-100076000D03*
X179588000Y-100076000D03*
X177048000Y-100076000D03*
X174508000Y-100076000D03*
%TD*%
D31*
%TO.C,C4*%
X140462000Y-55422000D03*
X140462000Y-60422000D03*
%TD*%
D14*
%TO.C,R3*%
X176976500Y-84338000D03*
X174051500Y-84338000D03*
%TD*%
M02*
