M48
; DRILL file {KiCad (6.0.10)} date Wed Jan  4 19:46:44 2023
; FORMAT={-:-/ absolute / metric / decimal}
; #@! TF.CreationDate,2023-01-04T19:46:44+03:00
; #@! TF.GenerationSoftware,Kicad,Pcbnew,(6.0.10)
; #@! TF.FileFunction,Plated,1,2,PTH
FMAT,2
METRIC
; #@! TA.AperFunction,Plated,PTH,ComponentDrill
T1C0.800
; #@! TA.AperFunction,Plated,PTH,ComponentDrill
T2C1.000
; #@! TA.AperFunction,Plated,PTH,ComponentDrill
T3C1.100
; #@! TA.AperFunction,Plated,PTH,ComponentDrill
T4C1.390
; #@! TA.AperFunction,Plated,PTH,ComponentDrill
T5C1.500
%
G90
G05
T1
X94.742Y-55.676
X94.742Y-60.676
X109.22Y-55.422
X109.22Y-60.422
X142.504Y-105.43
X142.504Y-107.97
X142.504Y-110.51
X142.504Y-113.05
X150.124Y-105.43
X150.124Y-107.97
X150.124Y-110.51
X150.124Y-113.05
T2
X79.248Y-90.698
X79.248Y-105.938
X81.788Y-90.698
X81.788Y-105.938
X84.328Y-90.698
X84.328Y-105.938
X86.868Y-90.698
X86.868Y-105.938
X89.408Y-90.698
X89.408Y-105.938
X91.948Y-90.698
X91.948Y-105.938
X94.488Y-90.698
X94.488Y-105.938
X97.028Y-90.698
X97.028Y-105.938
X99.568Y-90.698
X99.568Y-105.938
X102.108Y-90.698
X102.108Y-105.938
X104.648Y-90.698
X104.648Y-105.938
X107.188Y-90.698
X107.188Y-105.938
X109.728Y-90.698
X109.728Y-105.938
X112.268Y-90.698
X112.268Y-105.938
X114.808Y-90.698
X114.808Y-105.938
T3
X122.042Y-54.168
X126.441Y-56.708
X128.524Y-106.507
X131.064Y-106.507
X133.604Y-106.507
T4
X62.46Y-43.42
X62.46Y-50.92
X62.46Y-58.42
X62.46Y-65.92
X62.46Y-73.42
T5
X134.896Y-74.432
X140.346Y-74.432
X145.796Y-74.432
T0
M30
