%TF.GenerationSoftware,KiCad,Pcbnew,(6.0.10)*%
%TF.CreationDate,2023-01-04T19:45:40+03:00*%
%TF.ProjectId,ee463_project,65653436-335f-4707-926f-6a6563742e6b,rev?*%
%TF.SameCoordinates,Original*%
%TF.FileFunction,Soldermask,Top*%
%TF.FilePolarity,Negative*%
%FSLAX46Y46*%
G04 Gerber Fmt 4.6, Leading zero omitted, Abs format (unit mm)*
G04 Created by KiCad (PCBNEW (6.0.10)) date 2023-01-04 19:45:40*
%MOMM*%
%LPD*%
G01*
G04 APERTURE LIST*
G04 Aperture macros list*
%AMRoundRect*
0 Rectangle with rounded corners*
0 $1 Rounding radius*
0 $2 $3 $4 $5 $6 $7 $8 $9 X,Y pos of 4 corners*
0 Add a 4 corners polygon primitive as box body*
4,1,4,$2,$3,$4,$5,$6,$7,$8,$9,$2,$3,0*
0 Add four circle primitives for the rounded corners*
1,1,$1+$1,$2,$3*
1,1,$1+$1,$4,$5*
1,1,$1+$1,$6,$7*
1,1,$1+$1,$8,$9*
0 Add four rect primitives between the rounded corners*
20,1,$1+$1,$2,$3,$4,$5,0*
20,1,$1+$1,$4,$5,$6,$7,0*
20,1,$1+$1,$6,$7,$8,$9,0*
20,1,$1+$1,$8,$9,$2,$3,0*%
%AMHorizOval*
0 Thick line with rounded ends*
0 $1 width*
0 $2 $3 position (X,Y) of the first rounded end (center of the circle)*
0 $4 $5 position (X,Y) of the second rounded end (center of the circle)*
0 Add line between two ends*
20,1,$1,$2,$3,$4,$5,0*
0 Add two circle primitives to create the rounded ends*
1,1,$1,$2,$3*
1,1,$1,$4,$5*%
%AMRotRect*
0 Rectangle, with rotation*
0 The origin of the aperture is its center*
0 $1 length*
0 $2 width*
0 $3 Rotation angle, in degrees counterclockwise*
0 Add horizontal line*
21,1,$1,$2,0,0,$3*%
G04 Aperture macros list end*
%ADD10C,2.200000*%
%ADD11RoundRect,0.225000X-0.225000X-0.250000X0.225000X-0.250000X0.225000X0.250000X-0.225000X0.250000X0*%
%ADD12RoundRect,0.250000X0.625000X-0.312500X0.625000X0.312500X-0.625000X0.312500X-0.625000X-0.312500X0*%
%ADD13R,2.500000X4.500000*%
%ADD14O,2.500000X4.500000*%
%ADD15RoundRect,0.250000X0.325000X0.650000X-0.325000X0.650000X-0.325000X-0.650000X0.325000X-0.650000X0*%
%ADD16RoundRect,0.250000X0.650000X-0.325000X0.650000X0.325000X-0.650000X0.325000X-0.650000X-0.325000X0*%
%ADD17RoundRect,0.250000X0.312500X0.625000X-0.312500X0.625000X-0.312500X-0.625000X0.312500X-0.625000X0*%
%ADD18RoundRect,0.150000X0.150000X-0.825000X0.150000X0.825000X-0.150000X0.825000X-0.150000X-0.825000X0*%
%ADD19R,1.600000X1.600000*%
%ADD20O,1.600000X1.600000*%
%ADD21R,1.905000X2.000000*%
%ADD22O,1.905000X2.000000*%
%ADD23RoundRect,0.250000X-0.625000X0.312500X-0.625000X-0.312500X0.625000X-0.312500X0.625000X0.312500X0*%
%ADD24R,3.000000X3.000000*%
%ADD25C,3.000000*%
%ADD26RoundRect,0.250000X-0.312500X-0.625000X0.312500X-0.625000X0.312500X0.625000X-0.312500X0.625000X0*%
%ADD27RoundRect,0.200000X-0.275000X0.200000X-0.275000X-0.200000X0.275000X-0.200000X0.275000X0.200000X0*%
%ADD28RoundRect,0.225000X-0.250000X0.225000X-0.250000X-0.225000X0.250000X-0.225000X0.250000X0.225000X0*%
%ADD29RotRect,2.000000X2.000000X330.000000*%
%ADD30HorizOval,2.000000X0.000000X0.000000X0.000000X0.000000X0*%
%ADD31C,1.600000*%
%ADD32RoundRect,0.200000X0.200000X0.275000X-0.200000X0.275000X-0.200000X-0.275000X0.200000X-0.275000X0*%
G04 APERTURE END LIST*
D10*
%TO.C,H4*%
X162560000Y-133614000D03*
%TD*%
%TO.C,H3*%
X54356000Y-27442000D03*
%TD*%
%TO.C,H2*%
X161290000Y-27442000D03*
%TD*%
%TO.C,H1*%
X54356000Y-133360000D03*
%TD*%
D11*
%TO.C,C8*%
X91173000Y-113294000D03*
X92723000Y-113294000D03*
%TD*%
D12*
%TO.C,R2*%
X145734500Y-93928500D03*
X145734500Y-91003500D03*
%TD*%
D13*
%TO.C,Q1*%
X145796000Y-74432000D03*
D14*
X140346000Y-74432000D03*
X134896000Y-74432000D03*
%TD*%
D15*
%TO.C,C3*%
X139651000Y-96276000D03*
X136701000Y-96276000D03*
%TD*%
D16*
%TO.C,C6*%
X133604000Y-99021000D03*
X133604000Y-96071000D03*
%TD*%
D17*
%TO.C,R4*%
X136590500Y-101864000D03*
X133665500Y-101864000D03*
%TD*%
D18*
%TO.C,U3*%
X88773000Y-123897000D03*
X90043000Y-123897000D03*
X91313000Y-123897000D03*
X92583000Y-123897000D03*
X92583000Y-118947000D03*
X91313000Y-118947000D03*
X90043000Y-118947000D03*
X88773000Y-118947000D03*
%TD*%
D19*
%TO.C,A1*%
X114808000Y-90698000D03*
D20*
X112268000Y-90698000D03*
X109728000Y-90698000D03*
X107188000Y-90698000D03*
X104648000Y-90698000D03*
X102108000Y-90698000D03*
X99568000Y-90698000D03*
X97028000Y-90698000D03*
X94488000Y-90698000D03*
X91948000Y-90698000D03*
X89408000Y-90698000D03*
X86868000Y-90698000D03*
X84328000Y-90698000D03*
X81788000Y-90698000D03*
X79248000Y-90698000D03*
X79248000Y-105938000D03*
X81788000Y-105938000D03*
X84328000Y-105938000D03*
X86868000Y-105938000D03*
X89408000Y-105938000D03*
X91948000Y-105938000D03*
X94488000Y-105938000D03*
X97028000Y-105938000D03*
X99568000Y-105938000D03*
X102108000Y-105938000D03*
X104648000Y-105938000D03*
X107188000Y-105938000D03*
X109728000Y-105938000D03*
X112268000Y-105938000D03*
X114808000Y-105938000D03*
%TD*%
D21*
%TO.C,U2*%
X133604000Y-106507000D03*
D22*
X131064000Y-106507000D03*
X128524000Y-106507000D03*
%TD*%
D23*
%TO.C,R7*%
X86868000Y-111577500D03*
X86868000Y-114502500D03*
%TD*%
D24*
%TO.C,D2*%
X62460000Y-43420000D03*
D25*
X62460000Y-50920000D03*
X62460000Y-58420000D03*
X62460000Y-65920000D03*
X62460000Y-73420000D03*
%TD*%
D26*
%TO.C,R6*%
X76769500Y-121930000D03*
X79694500Y-121930000D03*
%TD*%
%TO.C,R1*%
X135697500Y-112532000D03*
X138622500Y-112532000D03*
%TD*%
D27*
%TO.C,R8*%
X77470000Y-125360000D03*
X77470000Y-127010000D03*
%TD*%
D15*
%TO.C,C2*%
X139905000Y-89672000D03*
X136955000Y-89672000D03*
%TD*%
D28*
%TO.C,C9*%
X79756000Y-125347000D03*
X79756000Y-126897000D03*
%TD*%
D15*
%TO.C,C1*%
X139905000Y-92974000D03*
X136955000Y-92974000D03*
%TD*%
D29*
%TO.C,D1*%
X122041796Y-54168394D03*
D30*
X126441205Y-56708394D03*
%TD*%
D17*
%TO.C,R5*%
X124652500Y-106436000D03*
X121727500Y-106436000D03*
%TD*%
D31*
%TO.C,C5*%
X94742000Y-55676000D03*
X94742000Y-60676000D03*
%TD*%
D19*
%TO.C,U1*%
X142504000Y-105430000D03*
D20*
X142504000Y-107970000D03*
X142504000Y-110510000D03*
X142504000Y-113050000D03*
X150124000Y-113050000D03*
X150124000Y-110510000D03*
X150124000Y-107970000D03*
X150124000Y-105430000D03*
%TD*%
D16*
%TO.C,C7*%
X128524000Y-99275000D03*
X128524000Y-96325000D03*
%TD*%
D31*
%TO.C,C4*%
X109220000Y-55422000D03*
X109220000Y-60422000D03*
%TD*%
D32*
%TO.C,D3*%
X79057000Y-129170000D03*
X77407000Y-129170000D03*
%TD*%
D17*
%TO.C,R3*%
X145734500Y-84338000D03*
X142809500Y-84338000D03*
%TD*%
M02*
